<svg xmlns="http://www.w3.org/2000/svg" viewBox="0 0 1120 1080">
<style>
@keyframes breathe{0%,100%{transform:scale(1)}50%{transform:scale(1.018,.985)}}
@keyframes breatheSlow{0%,100%{transform:scale(1)}50%{transform:scale(1.03,.965)}}
@keyframes bob{0%,100%{transform:translateY(0)}50%{transform:translateY(-13px)}}
@keyframes typebob{0%,100%{transform:translateY(0)}50%{transform:translateY(-4px)}}
@keyframes sway{0%,100%{transform:rotate(-1.2deg)}50%{transform:rotate(1.2deg)}}
@keyframes jbob{0%,100%{transform:translateY(0)}50%{transform:translateY(-7px)}}
@keyframes stretchk{0%{transform:scaleY(1)}30%{transform:scaleY(1.06) scaleX(.97)}100%{transform:scaleY(1)}}
@keyframes shake{0%,100%{transform:translateX(0)}25%{transform:translateX(-15px)}75%{transform:translateX(15px)}}
@keyframes dotpulse{0%,70%,100%{opacity:.18;transform:translateY(0)}30%{opacity:1;transform:translateY(-15px)}}
@keyframes zfloat{0%{opacity:0;transform:translate(0,0) scale(.6)}20%{opacity:.9}100%{opacity:0;transform:translate(40px,-130px) scale(1.15)}}
@keyframes badgePop{0%,100%{transform:translateY(0)}40%{transform:translateY(-16px)}}
@keyframes bktwinkle{0%,100%{opacity:.35;transform:scale(.8)}50%{opacity:1;transform:scale(1.3)}}
@keyframes confettiFall{0%{opacity:0;transform:translateY(-30px) rotate(0deg)}12%{opacity:1}86%{opacity:1}100%{opacity:0;transform:translateY(560px) rotate(560deg)}}
@keyframes jorbit{0%{transform:translate(0,0)}12.5%{transform:translate(150px,-138px)}25%{transform:translate(139px,-315px)}37.5%{transform:translate(68px,-400px)}50%{transform:translate(0,-420px)}62.5%{transform:translate(-68px,-400px)}75%{transform:translate(-139px,-315px)}87.5%{transform:translate(-150px,-138px)}100%{transform:translate(0,0)}}
@keyframes pawtapA{0%,100%{transform:translateY(0)}50%{transform:translateY(-8px)}}
@keyframes pawtapB{0%,100%{transform:translateY(-8px)}50%{transform:translateY(0)}}
@keyframes jpawbob{0%,100%{transform:translateY(0)}50%{transform:translateY(-10px)}}
@keyframes eyescan{0%,100%{transform:translateX(-9px)}50%{transform:translateX(9px)}}
.td{transform-box:fill-box;transform-origin:center;animation:dotpulse 1.5s ease-in-out infinite}
.zz{transform-box:fill-box;transform-origin:center;animation:zfloat 2.7s ease-in infinite}
.bk{transform-box:fill-box;transform-origin:center;animation:bktwinkle 1.6s ease-in-out infinite}
.cf{transform-box:fill-box;transform-origin:center;animation:confettiFall 2.2s linear infinite}
.jb{transform-box:fill-box;transform-origin:center;animation:jorbit 1.3s linear infinite}
.pawA{transform-box:fill-box;transform-origin:center;animation:pawtapA .42s ease-in-out infinite}
.pawB{transform-box:fill-box;transform-origin:center;animation:pawtapB .42s ease-in-out infinite}
.jpaw{transform-box:fill-box;transform-origin:center;animation:jpawbob .65s ease-in-out infinite}
.eye{transform-box:fill-box;transform-origin:center;animation:eyescan 2.8s ease-in-out infinite}
#body-js{transform-origin:496.5px 1000px;animation:breathe 2.4s ease-in-out infinite;}#motion-js{transform-origin:496.5px 1000px;animation:bob .7s ease-in-out infinite;}</style>
<g transform="translate(63.5,40.0)"><g id="body-js"><g id="motion-js">

<path d="M293.623 0.348894C310.801 -0.246015 328.568 0.0453173 345.752 0.304115L345.968 15.9768C354.691 16.0094 367.73 17.3669 376.655 18.1563C376.206 22.7162 374.018 35.1238 375.4 37.6898C379.081 39.4273 386.079 38.6428 390.54 38.537C390.664 45.2006 391.06 52.2036 391.374 58.877L404.521 58.606C404.357 66.3317 404.558 74.6661 404.597 82.4406L419.096 82.2787L419.113 97.0782L433.745 97.1669L433.742 135.948C439.831 137.371 442.941 137.337 449.187 137.53C449.136 144.238 448.567 179.072 449.493 182.909C450.696 183.322 451.558 183.655 452.727 184.157C453.586 187.128 453.169 195.426 453.108 198.89L463.944 199.072L463.923 183.25L487.398 183.366L487.504 199.597L501.29 199.749L501.323 216.253C510.088 216.43 518.861 216.057 527.585 215.136L527.927 202.714C538.499 202.774 549.078 202.756 559.65 202.656L559.813 188.318L572.614 188.212C572.24 182.959 572.46 176.742 572.533 171.39L586.018 171.364C585.652 160.545 585.937 148.307 585.961 137.379C594.091 137.083 598.071 136.996 606.136 135.644L606.217 117.073L619.19 116.958L619.271 86.2722L633.212 85.7961L633.253 66.9486L647.755 66.9079L647.828 50.6704L660.842 50.6541L660.809 34.6485C671.511 34.9659 682.31 34.756 693.028 34.655L693.232 17.1349C709.134 16.9404 725.044 16.9689 740.947 17.2187C740.686 28.3519 740.93 39.5169 741.085 50.6549L754.464 50.7892C755.311 90.3885 754.139 130.658 754.823 170.263C762.342 170.709 766.078 172.235 774.582 172.187L774.501 189.738C767.974 189.87 762.359 190.881 755.116 190.92C753.765 201.746 754.546 221.043 754.391 232.994L741.647 232.96C741.988 243.045 741.785 254.163 741.785 264.337L759.201 264.793C759.095 270.648 759.225 276.828 759.266 282.712C752.747 283.588 748.54 284.165 742.021 284.209C742.062 292.301 741.671 294.893 739.693 302.389C749.687 302.424 759.958 303.443 770.326 303.519L770.367 323.129C763.604 323.245 745.927 321.112 741.492 324.494C739.677 329.422 740.703 335.764 740.971 341.329L754.497 341.426L754.473 359.855L741.541 359.845L741.459 373.442L737.602 373.516C727.714 373.766 726.973 368.782 714.09 369.721C714.587 375.67 714.489 383.361 714.579 389.452L728.568 389.69L728.275 414.122C721.39 414.246 697.773 412.407 695.47 417.891L696.251 419.272C698.652 419.432 699.311 419.357 701.623 420.108C702.973 423.569 702.493 431.755 702.469 435.852L715.189 436.487L715.14 459.532C707.287 459.582 688.439 456.92 683.328 462.011C682.058 464.911 682.205 464.822 682.742 467.79C683.897 468.406 684.548 468.725 685.777 469.24L686.811 469.659C688.105 473.283 687.665 484.516 687.641 488.729L700.784 488.8L700.874 509.339L688.349 508.964C688.471 513.025 688.911 516.387 687.714 520.22C683.368 524.199 681.684 518.853 671.649 519.349L670.428 519.414C670.331 528.928 671.096 539.776 671.291 549.501C665.016 549.729 656.398 547.035 653.118 552.797C653.004 555.638 652.597 557.672 653.835 560.179C664.667 561.766 672.976 564.728 682.929 564.435L682.782 593.367C677.761 593.09 672.642 593.285 667.613 593.383L666.709 614.86C673.895 614.681 681.073 615.08 688.259 615.381L688.292 648.723L702.298 648.601C702.176 658.172 702.265 667.913 702.249 677.5C697.179 677.5 691.865 677.761 686.778 677.932C686.705 689.146 686.998 700.312 686.884 711.632C688.642 711.657 696.292 711.714 696.992 712.267C705.057 718.656 704.113 718.102 714.514 717.85L714.717 730.904L763.351 731.14L763.465 747.49C775.461 747.4 784.072 747.058 795.954 749.06L796.092 762.716C820.018 763.091 844.075 762.659 868.067 762.944L868.197 778.586C877.515 778.521 887.322 779.123 896.673 779.53L896.689 792.983C914.284 793.251 932.099 793.186 949.718 793.227L949.751 810.545L964.416 810.749L964.571 823.916L976.55 823.981L976.632 837.776L993.038 837.808C992.843 854.842 992.827 871.875 992.973 888.917L979.659 888.949C979.594 894.223 981.205 899.692 976.827 902.931C973.059 903.598 960.64 901.596 956.091 900.88L956.115 917.938C931.114 918.028 906.113 917.889 881.113 917.523L880.82 901.238C871.436 901.067 859.986 902.036 849.691 901.971L849.731 888.787C837.044 888.282 830.81 886.06 816.674 886.402L816.503 873.682C806.867 873.698 797.231 873.658 787.604 873.56L787.579 858.138C776.763 857.991 765.63 858.138 754.782 858.146L755.018 842.919C737.447 842.325 717.411 842.651 699.702 842.586C699.393 837.491 699.531 832.291 699.572 827.188L670.274 827.131C667.743 827.025 667.434 826.862 664.976 827.66C662.917 830.834 663.592 835.269 663.657 839.338C675.32 839.233 684.483 839.42 696.113 840.144L696.438 853.32C709.5 852.824 712.609 854.435 724.45 855.167L724.564 869.328C735.38 869.035 742.745 868.994 753.423 870.508L753.561 884.457L777.138 884.775C777.089 893.605 775.128 897.601 782.599 902.744C784.234 903.875 783.656 911.444 783.583 913.82C788.662 913.983 793.195 914.333 798.248 914.756C798.248 920.046 798.2 924.587 798.72 929.861L811.416 930.015C811.726 943.053 812.474 955.757 812.311 968.827L799.461 968.819L799.339 983.663C791.681 982.817 785.821 982.239 778.106 982.003L777.878 999.052C752.267 999.598 725.525 999.175 699.84 999.101V982.589L668.052 982.516L668.028 966.41L646.949 966.361L647.023 952.949C637.696 952.77 627.304 953.063 617.904 953.136C617.79 947.513 617.847 941.678 617.831 936.03C610.213 935.997 599.951 937.039 592.708 936.469C583.267 935.728 578.93 934.41 568.977 934.557L569.147 920.518C555.898 920.835 543.121 918.451 530.417 918.288C520.643 918.158 514.206 920.209 502.926 919.655L502.853 904.046L421.623 903.859L421.528 888.006C410.631 888.168 399.734 888.225 388.837 888.176L388.758 869.645C372.18 869.629 354.268 868.929 337.546 868.661L337.622 853.361C331.767 853.19 326.415 853.06 320.562 853.45C312.418 853.987 302.504 856.095 294.446 855.347C293.608 854.679 291.321 852.685 290.391 852.734C277.81 853.336 270.872 856.12 257.737 855.81L257.672 870.158L137.299 870.166C137.14 864.64 137.352 858.944 137.478 853.393C130.288 852.913 120.052 854.842 116.809 852.938C114.929 850.187 115.567 846.28 115.655 842.773C99.4329 842.569 83.2092 842.496 66.9855 842.545C66.9285 837.54 67.1076 832.16 67.1824 827.123L53.7005 827.058C53.5524 820.661 52.3431 814.004 55.3835 808.437C50.9937 805.027 8.9741 808.812 0 809.088L0.196131 789.337L14.6164 789.386L14.5903 773.093C19.9291 772.84 25.6226 772.816 30.9955 772.694L30.8677 760.34L44.5409 760.185L44.8217 748.889L56.6751 748.662C56.7337 744.592 57.5345 731.229 55.4535 728.69C52.5807 725.191 53.4352 719.82 53.5833 714.741C44.0851 714.53 35.7939 714.033 26.0841 714.074C26.0613 707.197 26.2818 700.043 26.3941 693.142L39.8939 693.061L40.1397 681.098C43.9623 681.049 52.7378 681.464 55.539 679.763C57.0901 678.811 58.2189 677.305 58.6942 675.555C59.3843 673.057 59.9247 664.447 58.6079 661.997C56.422 662.086 56.0216 662.322 54.0554 661.509C53.0055 657.635 53.4979 648.992 53.5785 644.557C64.9281 644.158 76.2818 643.914 87.638 643.816L87.2645 628.467L73.7972 628.264L73.8241 611.515L87.5387 611.597C87.533 599.788 89.8207 593.961 89.8695 583.902L105.716 583.951L105.646 568.993L119.136 569.009L119.206 550.266L135.156 550.12L135.382 540.785C141.579 540.696 160.894 542.014 163.854 539.654C164.098 538.531 163.054 523.036 163.019 520.098L191.839 520.285C191.806 524.598 190.731 529.961 195.134 531.947L196.721 530.8C198.628 527.43 198.151 524.159 198.163 520.155L246.397 519.878L246.472 504.081L291.396 504.138L291.369 490.27C300.975 490.422 311.065 489.743 320.75 489.446L320.628 469.268C316.309 469.211 312.912 469.579 308.638 469.971L309.065 458.682L294.627 458.493L295.111 436.516L307.672 436.487C307.633 430.089 307.825 424.358 308.122 417.96L320.414 417.9C320.531 413.982 321.055 407.419 320.14 403.858C316.573 403.091 306.682 404.9 301.837 404.859C295.431 404.804 289.508 404.546 283.099 404.217L283.155 383.085L295.383 383.187C295.483 377.148 297.985 369.654 294.819 365.193C292.358 363.698 271.545 365.565 265.925 365.571L265.955 344.381C273.312 344.307 275.391 343.817 282.203 341.826L282.439 330.72L295.532 330.633C295.322 321.965 295.076 317.896 297.224 309.507C279.169 309.159 264.803 313.811 246.454 313.501L246.545 296.797L261.181 296.584C261.146 288.813 261.523 282.359 262.025 274.642C268.005 274.844 273.179 275.898 277.687 272.093L277.758 270.775C273.204 266.696 268.401 267.632 262.156 267.665L261.984 253.229L246.597 253.29L246.623 232.987C257.253 233.272 266.127 231.17 277.464 231.378L277.39 215.413L262.73 215.228C262.354 188.875 262.639 161.846 262.734 135.448L277.727 135.343C278.712 112.71 277.36 88.2115 277.956 65.386C278.21 55.6803 279.665 47.9669 279.805 38.5842C284.145 38.6689 292.013 39.5616 294.97 36.9037C290.95 28.2347 293.12 10.5006 293.623 0.348894Z" fill="#1B1A1B"/>
<path d="M492.135 217.191C496.905 220.042 495.163 228.636 494.894 234.049C499.696 233.753 509.551 231.853 512.148 236.137C516.038 237.425 525.494 236.965 529.97 236.833L547.004 236.679L546.768 222.298C554.223 222.155 568.88 223.311 575.35 221.988C576.163 220.087 576.749 218.97 577.938 217.278C580.224 220.897 579.378 229.957 579.215 234.521C590.584 234.298 600.497 234.939 611.834 235.513C611.891 241.194 612.078 247.36 611.923 252.996L628.989 253.175C628.924 258.216 628.932 263.453 628.753 268.472C634.718 268.53 640.798 268.655 646.763 268.628L646.942 282.16C651.988 282.187 658.466 281.444 662.397 284.245C665.384 285.151 675.377 284.735 679.096 284.69C679.121 294.444 678.242 303.819 678.266 313.409C672.529 313.433 666.572 313.373 660.85 313.511L660.679 330.018C665.506 329.924 672.285 329.606 676.956 329.912C677.07 339.365 677.054 350.488 676.704 359.869C681.245 359.706 686.071 359.193 690.392 360.283C690.685 360.753 691.483 361.974 691.662 362.427L691.426 374.649C693.729 377.479 700.028 376.747 703.674 376.754C703.642 381.875 703.015 387.38 704.594 392.004C706.124 393.385 706.287 393.233 708.329 393.785C712.879 392.904 716.411 393.064 720.992 393.071L720.732 406.062L708.63 406.151C705.839 406.225 695.495 406.728 693.534 405.289C689.107 402.03 681.058 398.111 677.965 405.412C679.129 410.577 678.803 416.444 678.779 421.789C682.808 421.875 687.178 421.891 691.174 422.063C691.157 427.862 691.035 433.788 691.45 439.557L704.561 439.632V451.535L677.168 450.858L677.119 438.682L663.349 438.702C663.707 448.193 665.001 463.386 664.724 472.037L675.809 472.123L675.923 473.146C677.086 484.312 671.39 491.436 684.744 492.257L687.984 492.474C690.832 495.986 689.522 500.375 689.538 505.111C685.656 505.274 679.438 505.868 675.89 504.948C672.48 503.199 664.13 503.793 659.955 503.874C659.923 508.806 660.118 513.901 659.239 518.718C658.979 515.113 659.166 509.896 659.182 506.169C654.592 506.169 650.01 506.015 645.436 505.705C642.051 508.879 642.206 517.449 644.191 521.469C638.511 521.087 630.657 518.873 629.005 525.253C629.095 528.175 629.656 537.135 628.452 539.292C628.086 549.131 628.134 557.676 628.322 567.516C623.056 567.255 617.628 567.125 612.436 566.295C612.306 571.341 612.061 576.744 612.208 581.75C606.861 581.896 601.213 582.189 595.891 581.871C595.427 586.852 595.646 591.637 595.752 596.634C589.583 595.666 585.864 595.568 579.581 595.414C573.055 595.552 570.808 595.104 565.348 598.71L565.323 605.155L565.567 613.448C561.042 612.862 551.04 613.114 546.101 613.098L545.954 597.912L528.4 598.002L527.48 597.847C529.075 592.15 528.929 586.991 529.189 581.123C508.135 581.05 482.814 580.203 461.939 581.318C459.461 582.506 451.389 581.717 448.064 581.57L448.251 595.894L448.452 596.496C448.696 602.168 448.7 607.003 448.595 612.683C443.504 614.221 436.406 613.774 430.917 613.749L430.51 614.181L430.439 630.685L422.453 629.79C418.582 631.466 416.521 632.532 412.232 631.54C410.709 630.303 400.867 630.18 397.827 629.944L397.779 615.361C400.319 610.014 399.08 604.887 398.451 599.011C402.063 598.889 409.711 599.035 411.976 596.756C411.727 594.307 411.81 592.134 411.84 589.684C411.843 585.973 412.386 586.38 410.82 583.556C407.191 581.88 401.443 582.653 397.168 582.604C397.683 577.314 397.689 575.597 397.404 570.372L396.532 569.135C394.53 568.159 385.869 569.184 382.332 569.29C382.876 564.838 383.104 555.919 381.606 551.735L380.394 551.296C379.064 552.915 378.321 560.566 377.271 563.626C373.357 564.561 368.718 566.189 364.82 567.434C364.652 559.866 364.003 544.802 365.43 538.201C364.938 531.414 366.072 526.336 365.977 520.468C365.142 515.764 365.268 509.962 365.181 505.095L348.246 505.315C347.49 510.043 347.931 515.862 348.08 520.745L333.555 520.965C333.888 509.685 336.59 502.963 336.489 491.523L349.022 491.698C349.044 485.105 348.662 478.437 348.357 471.844L358.536 471.544L358.933 454.655L357.161 453.474C352.998 453.083 352.261 453.523 348.106 454.69C341.813 455.339 327.323 454.502 320.181 454.223L320.124 439.579C326.153 439.585 329.969 439.59 335.918 438.852C335.459 433.662 335.486 429.178 335.48 423.976L348.443 423.783C348.274 416.995 348.195 412.108 348.699 405.375C348.886 401.349 348.477 395.304 348.303 391.092C343.357 391.743 316.058 394.661 313.422 391.028C316.325 389.231 317.912 389.4 321.436 389.051L321.699 375.764L335.56 375.055C335.599 370.818 334.351 360.998 337.693 358.757C340.863 359.069 346.206 358.785 349.552 358.708C349.454 349.955 350.829 339.518 350.959 329.799L366.029 329.435C365.615 322.354 365.849 305.279 367.186 298.63C361.895 298.953 356.496 298.853 351.19 298.844C350.559 293.634 350.686 288.5 350.682 283.252C355.801 282.511 360.984 282.629 366.164 282.588C366.108 278.31 365.218 275.123 366.284 271.059C368.377 268.499 367.748 269.312 371.936 268.531C375.069 268.795 382.201 268.589 385.618 268.58L385.582 253.91L413.576 253.696C413.393 248.024 413.478 242.029 413.469 236.326C417.614 236.386 426.162 237.272 428.808 234.459C432.627 232.965 441.445 233.588 445.859 233.696L445.869 218.138C455.229 217.933 476.145 221.953 481.013 218.249C482.881 217.211 489.132 217.447 492.135 217.191Z" fill="#585858"/>
<path d="M454.693 471.643L455.381 469.332C461.316 467.48 510.36 468.401 518.351 468.853L518.962 486.066C522.852 486.098 531.015 485.949 534.522 486.392C547.234 486.049 559.434 487.138 571.535 486.765L571.836 503.992L589.09 503.943L589.13 521.864L604.878 521.945L604.788 536.724C609.15 536.586 617.077 535.626 620.308 537.929C619.942 547.768 619.991 556.313 620.178 566.152C614.912 565.892 609.484 565.762 604.292 564.932C604.162 569.977 603.918 575.381 604.064 580.386C598.717 580.533 593.069 580.826 587.747 580.508C587.283 585.489 587.503 590.274 587.608 595.271C581.44 594.303 577.72 594.205 571.438 594.05C564.911 594.189 562.665 593.741 557.204 597.346L557.179 603.792L557.423 612.085C552.899 611.499 542.897 611.751 537.957 611.735L537.81 596.549L520.256 596.638L519.336 596.484C520.931 590.787 520.785 585.627 521.045 579.76C499.992 579.686 474.67 578.84 453.795 579.955C451.317 581.143 443.245 580.354 439.92 580.207L440.107 594.531L440.308 595.133C440.552 600.805 440.556 605.639 440.451 611.32C435.36 612.858 428.262 612.41 422.773 612.386L422.366 612.817L422.295 629.322L414.309 628.427C410.439 630.103 408.377 631.169 404.088 630.176C402.565 628.939 392.723 628.817 389.684 628.581L389.635 613.997C392.175 608.65 390.936 603.523 390.307 597.648C393.919 597.525 401.567 597.672 403.832 595.393C403.583 592.944 403.666 590.771 403.696 588.321C403.699 584.61 404.242 585.017 402.676 582.193C399.047 580.516 393.299 581.29 389.024 581.241C389.539 575.951 389.545 574.234 389.26 569.009L388.388 567.772C386.386 566.795 377.725 567.821 374.188 567.926C374.732 563.475 374.961 554.555 373.462 550.372L372.25 549.933C370.92 551.552 370.177 559.202 369.127 562.262C365.213 563.198 360.574 564.826 356.676 566.071C356.508 558.502 355.859 543.438 357.287 536.838C358.31 532.085 358.07 527.023 358.097 522.116L373.432 522.246C373.299 516.281 373.387 510.031 373.384 504.041L389.664 503.805L389.675 489.398C394.103 489.49 400.927 490.08 404.782 488.725L405.857 486.311L414.512 486.281C422.298 487.32 430.743 486.774 438.597 486.293C440.799 484.789 451.74 485.341 455.049 485.373C455.112 480.402 454.991 476.598 454.693 471.643Z" fill="#B2ACA9"/>
<path d="M534.527 486.391C547.239 486.048 559.438 487.137 571.54 486.764L571.841 503.991L589.094 503.942L589.135 521.863L604.882 521.944L604.793 536.723C609.155 536.585 617.082 535.625 620.313 537.928C619.946 547.767 619.995 556.312 620.182 566.151C614.917 565.891 609.489 565.761 604.296 564.931C604.166 569.976 603.922 575.38 604.069 580.385C598.722 580.532 593.074 580.825 587.751 580.507C587.287 585.488 587.507 590.273 587.613 595.27C581.444 594.302 577.725 594.204 571.442 594.049C564.915 594.188 562.669 593.74 557.208 597.345L557.184 603.791L557.428 612.084C552.903 611.498 542.901 611.75 537.961 611.734L537.815 596.548L520.26 596.637L519.341 596.483C520.936 590.786 520.789 585.626 521.05 579.759C523.06 577.285 522.36 568.992 522.327 565.419C518.861 561.049 515.296 561.504 509.908 561.586C504.269 561.659 498.718 561.757 493.07 561.749L493.217 537.309C501.941 536.585 509.168 536.593 517.876 536.601C517.729 530.978 517.729 525.183 517.664 519.543L533.827 519.576C533.77 508.711 534.73 498.286 534.527 486.391Z" fill="#B2ACA9"/>
<path d="M535.32 565.085L538.347 565.452L552.451 565.492C552.361 569.049 551.775 577.789 552.947 580.548L556.056 582.241C557.13 589.809 555.397 596.198 557.179 603.791L557.423 612.084C552.898 611.498 542.896 611.75 537.956 611.734L537.81 596.548L520.256 596.638L519.336 596.483C520.931 590.786 520.785 585.626 521.045 579.759C523.055 577.285 522.355 568.992 522.323 565.419C525.594 564.963 531.796 565.118 535.32 565.085Z" fill="#B3ACA7"/>
<path d="M553.606 564.28C553.639 554.318 550.131 537.521 552.117 530.343C553.891 531.336 554.2 533.688 555.161 536.162C557.773 537.741 567.71 537.651 571.274 537.797C571.266 542.534 571.087 546.864 570.868 551.584C569.598 556.898 571.315 562.383 569.069 565.346L553.606 564.28Z" fill="#B3ACA7"/>
<path d="M569.07 565.348C571.316 562.385 569.599 556.9 570.869 551.586C571.089 556.298 571.235 561.026 571.316 565.746C577.371 565.6 581.522 565.405 587.512 566.316C588.073 571.517 588.439 575.195 587.748 580.509C587.284 585.49 587.504 590.275 587.609 595.272C581.441 594.304 577.721 594.206 571.439 594.051C571.349 589.779 571.219 586.092 570.901 581.812C569.274 576.937 571.935 568.937 569.07 565.348Z" fill="#B3ACA7"/>
<path d="M570.867 551.584C576.67 551.852 581.903 551.299 587.543 551.356L587.51 566.314C581.52 565.402 577.37 565.598 571.315 565.744C571.233 561.024 571.087 556.296 570.867 551.584Z" fill="#B3ACA7"/>
<path d="M556.981 581.834C561.718 581.663 566.17 581.737 570.898 581.81C571.215 586.091 571.346 589.777 571.435 594.05C564.908 594.188 562.662 593.74 557.201 597.346C556.868 592.886 557.014 586.449 556.981 581.834Z" fill="#3C3735"/>
<path d="M535.32 565.086C535.336 560.52 535.002 556.419 536.427 552.13C538.494 554.457 538.266 562.026 538.347 565.452L535.32 565.086Z" fill="#B3ACA7"/>
<path d="M421.464 551.943L438.582 551.17C438.455 556.069 438.172 560.244 439.883 564.834C440.222 570.197 440.342 574.266 440.272 579.638C443.685 579.678 450.711 579.589 453.802 579.955C451.324 581.143 443.252 580.354 439.927 580.207L440.114 594.531L440.315 595.133C440.559 600.805 440.563 605.639 440.458 611.32C435.367 612.858 428.269 612.411 422.78 612.386L422.373 612.817L422.302 629.322L414.316 628.427C410.446 630.103 408.384 631.169 404.095 630.176C402.572 628.939 392.73 628.817 389.69 628.581L389.642 613.997C392.182 608.651 390.943 603.524 390.314 597.648C393.926 597.526 401.574 597.672 403.839 595.393C403.59 592.944 403.673 590.771 403.703 588.321C403.706 584.61 404.249 585.017 402.683 582.193C399.054 580.517 393.306 581.29 389.031 581.241C389.546 575.951 389.552 574.234 389.267 569.009C390.474 566.592 389.614 567.495 391.879 566.152C396.261 565.973 399.717 565.77 404.12 566.071L404.407 566.543C420.972 566.999 421.693 568.635 421.464 551.943Z" fill="#B3ACA7"/>
<path d="M403.83 595.394C404.937 598.169 404.46 607.813 404.415 611.402L421.67 611.483L421.732 602.742C423.222 604.924 422.765 609.497 422.771 612.386L422.364 612.818L422.293 629.322L414.307 628.427C410.437 630.103 408.375 631.169 404.086 630.177C402.563 628.94 392.721 628.818 389.682 628.582L389.633 613.998C392.174 608.651 390.934 603.524 390.305 597.648C393.918 597.526 401.565 597.672 403.83 595.394Z" fill="#3C3735"/>
<path d="M404.46 612.304C409.93 612.304 417.113 612.085 422.373 612.817L422.302 629.321L414.316 628.426C411.107 628.451 407.381 628.768 404.133 628.955L404.46 612.304Z" fill="#1B1A1B"/>
<path d="M421.586 594.62L440.315 595.133C440.559 600.805 440.563 605.639 440.458 611.32C435.367 612.858 428.269 612.41 422.78 612.386C422.774 609.497 423.231 604.923 421.741 602.742L421.586 594.62Z" fill="#3C3735"/>
<path d="M422.279 581.339L439.284 580.175C439.261 584.716 438.897 590.307 440.118 594.531L440.319 595.133L421.59 594.62C421.491 590.934 422.034 585.172 422.279 581.339Z" fill="#968E89"/>
<path d="M391.879 566.153C396.261 565.974 399.717 565.771 404.12 566.072L404.407 566.544C404.441 571.923 404.859 583.764 403.703 588.322C403.706 584.611 404.249 585.018 402.683 582.194C399.054 580.517 393.306 581.29 389.031 581.242C389.546 575.952 389.552 574.234 389.267 569.01C390.474 566.593 389.614 567.496 391.879 566.153Z" fill="#968E89"/>
<path d="M404.416 521.237L420.695 521.229C421.506 532.052 419.799 541.721 420.121 552.13L404.84 552.357L404.112 566.07C399.709 565.769 396.253 565.973 391.871 566.152L390.209 565.306C388.599 559.544 389.412 544.74 389.109 537.416L403.707 537.09C404.158 531.361 404.409 526.974 404.416 521.237Z" fill="#B3ACA7"/>
<path d="M571.259 312.898C577.875 313.168 584.882 313.025 591.531 313.002C591.784 326.664 592.142 320.577 585.875 331.744C585.501 332.411 585.639 340.841 585.68 342.576L621.407 342.275C621.513 346.045 620.455 355.821 621.13 357.504C623.385 358.658 633.81 357.986 637.22 357.968C637.798 369.154 634.681 375.763 634.917 388.887C638.351 388.856 648.28 388.327 650.575 390.092L650.819 391.329L650.721 403.692C643.975 404.18 628.528 403.438 620.911 403.308L620.837 388.023L604.585 387.859C603.934 382.449 603.926 377.801 603.837 372.362C590.693 372.752 580.016 370.135 566.075 370.032C550.954 369.921 551.312 373.455 537.851 372.979C536.557 363.66 538.584 354.516 538.217 343.992L553.404 344.057L552.809 327.822L572.138 327.874C571.397 322.932 571.397 317.9 571.259 312.898Z" fill="#939393"/>
<path d="M650.57 375.111L652.483 372.776C655.559 371.131 677.801 372.963 683.278 373.285C685.581 376.115 691.88 375.383 695.526 375.39C695.494 380.51 694.867 386.016 696.446 390.64C697.976 392.02 698.139 391.869 700.181 392.421C704.731 391.539 708.263 391.7 712.845 391.707L712.584 404.698L700.482 404.787C697.691 404.861 687.347 405.364 685.386 403.925C680.959 400.666 672.91 396.747 669.817 404.048L668.287 403.268C665.724 403.208 663.665 403.419 661.37 402.345C659.661 399.89 658.774 394.398 656.511 390.335L655.901 389.244C651.343 385.656 656.357 381.685 650.814 376.348L650.57 375.111Z" fill="#3C3735"/>
<path d="M700.195 392.421C704.745 391.54 708.277 391.7 712.859 391.707L712.598 404.698L700.496 404.787C700.472 400.664 700.374 396.541 700.195 392.421Z" fill="#3C3735"/>
<path d="M655.898 389.244C659.813 388.349 664.696 388.613 668.716 388.971C668.846 392.829 669.481 399.952 668.285 403.269C665.721 403.209 663.662 403.42 661.367 402.345C659.658 399.891 658.771 394.399 656.509 390.336L655.898 389.244Z" fill="#3C3735"/>
<path d="M622.283 471.531C621.038 469.893 620.2 468.734 619.093 467.004C618.962 463.151 618.311 456.573 620.574 453.685C622.731 452.645 631.731 453.486 635.296 453.505C635.296 469.191 633.807 470.79 650.393 471.48C650.246 479.683 650.091 481.514 652.289 489.123C657.774 488.722 661.998 488.82 667.491 488.941C667.45 482.767 667.442 476.927 667.67 470.759L667.784 471.782C668.948 482.949 663.251 490.073 676.606 490.894L679.845 491.111C682.693 494.622 681.383 499.011 681.4 503.748C677.518 503.911 671.3 504.505 667.752 503.585C664.342 501.835 655.992 502.43 651.817 502.511C651.784 507.443 651.98 512.537 651.101 517.355C650.84 513.75 651.027 508.533 651.044 504.806C646.454 504.806 641.872 504.651 637.298 504.342L636.395 503.317C636.696 493.928 636.395 481.341 635.54 472.111C631.496 471.565 626.442 471.62 622.283 471.531Z" fill="#3C3735"/>
<path d="M676.599 490.893L679.838 491.11C682.687 494.622 681.377 499.011 681.393 503.748C677.511 503.91 671.293 504.504 667.745 503.585C667.623 500.614 666.492 494.611 667.704 492.341C670.081 490.541 673.458 490.943 676.599 490.893Z" fill="#585858"/>
<path d="M430.79 471.407L454.697 471.642C454.995 476.597 455.116 480.401 455.053 485.373C451.743 485.34 440.803 484.788 438.601 486.292C430.747 486.773 422.302 487.319 414.516 486.28C417.489 486.229 417.854 486.61 420.273 485.305C421.701 481.601 419.504 475.711 418.457 471.502C422.865 471.641 426.403 471.564 430.79 471.407Z" fill="#726A68"/>
<path d="M358.218 421.297C362.698 421.528 367.181 421.696 371.667 421.803C371.756 428.596 371.744 430.719 373.877 437.39C368.548 437.377 362.971 436.636 358.304 438.298C356.622 440.371 357.128 440.041 356.596 443.055C356.404 439.821 357.053 440.925 355.512 438.741C351.603 437.499 345.702 438.159 340.68 437.864C346.217 437.194 351.496 437.302 357.066 437.288C357.335 431.988 357.475 426.534 358.218 421.297Z" fill="#3C3735"/>
<path d="M340.693 437.864C345.715 438.16 351.616 437.5 355.525 438.742C357.066 440.925 356.418 439.822 356.609 443.056C356.521 446.491 357.007 450.665 355.437 453.223C353.237 453.866 353.119 453.646 350.795 453.291L349.023 452.111C344.861 451.72 344.123 452.16 339.969 453.326C340.033 449.082 339.926 441.789 340.693 437.864Z" fill="#3C3735"/>
<path d="M636.398 503.316L637.301 504.342C633.916 507.516 634.07 516.085 636.056 520.106C630.376 519.723 622.522 517.51 620.87 523.89C620.756 522.979 621.204 506.71 621.171 504.122C626.347 504.138 631.385 504.456 636.398 503.316Z" fill="#524B49"/>
<path d="M341.725 490.533C347.881 489.837 351.199 489.548 357.36 489.62C357.425 498.831 358.416 510.509 357.833 519.103C356.998 514.4 357.124 508.597 357.037 503.73L340.102 503.95C344.306 501.069 342.345 495.362 341.725 490.533Z" fill="#3C3735"/>
<path d="M406.832 470.169C413.483 470.299 424.61 470.164 430.789 471.408C426.402 471.565 422.864 471.642 418.456 471.503C419.503 475.712 421.7 481.602 420.272 485.306C417.853 486.612 417.487 486.23 414.514 486.281L405.859 486.311C405.926 481.663 406.565 475.022 406.832 470.169Z" fill="#585858"/>
<path d="M503.999 234.773C507.889 236.062 517.346 235.602 521.822 235.47C519.421 238.937 519.999 243.923 519.934 248.346C515.181 247.966 508.369 248.53 503.438 248.794C503.535 244.117 503.722 239.443 503.999 234.773Z" fill="#3C3735"/>
<path d="M340.164 389.728C344.735 388.879 351.15 389.022 355.845 389.359C354.638 403.565 354.938 403.968 340.56 404.011C340.748 399.985 340.338 393.94 340.164 389.728Z" fill="#3C3735"/>
<path d="M425.965 311.84C429.477 311.646 435.184 311.825 438.85 311.832L438.591 326.209C444.161 326.51 449.955 326.421 455.553 326.419L455.588 341.836C461.694 341.753 467.801 341.722 473.908 341.74C473.751 348.978 475.692 365.4 473.091 369.493C468.204 373.16 461.218 371.936 454.831 371.721L454.792 357.154C438.515 357.753 420.044 357.215 403.554 357.216C403.703 362.289 403.59 367.42 403.538 372.5C395.773 372.472 388.007 372.517 380.242 372.633C377.879 372.569 376.314 372.239 374.327 373.439C369.664 382.987 381.976 389.032 357.148 389.194C357.172 383.882 357.486 378.201 357.691 372.865L372.85 372.735L372.765 357.223L389.757 357.751L389.716 342.037L400.739 342.313L400.69 326.472C405.961 326.611 398.41 326.717 402.698 327.532L403.865 329.6C407.704 332.135 417.944 332.421 421.063 328.607L420.609 327.069C419.353 326.725 418.102 326.362 416.857 325.978C415.537 322.626 415.782 316.486 415.69 312.633L425.965 311.84Z" fill="#939393"/>
<path d="M372.735 453.697L389.845 453.63C389.782 459.258 389.626 465.128 389.663 470.733L373.765 470.737L372.853 470.266C372.563 464.215 372.543 459.754 372.735 453.697Z" fill="#3C3735"/>
<path d="M372.867 470.268L373.779 470.738C373.282 474.955 373.379 484.516 373.289 489.135L357.762 489.458C357.636 483.273 357.968 476.943 358.207 470.748C363.508 471.064 367.73 471.671 372.867 470.268Z" fill="#3C3735"/>
<path d="M600.891 485.528C609.533 488.25 611.926 487.639 620.927 487.072C620.39 493.749 619.682 496.732 620.691 503.455C615.898 503.78 610.315 503.821 605.448 503.975C605.359 499.125 605.481 494.546 604.594 489.785C603.495 488.864 602.445 488.312 601.151 487.701L600.891 485.528Z" fill="#3C3735"/>
<path d="M302.628 524.394C302.518 518.428 301.68 513.366 305.382 508.654L306.375 508.459C309.722 512.634 308.988 516.329 308.881 521.61L322.851 521.594L322.829 536.683L338.246 536.626C337.98 544.609 337.625 552.365 338.043 560.365C338.429 567.738 340.224 572.719 340.015 580.117C344.864 580.296 352.232 581.175 356.301 579.335C356.942 580.393 359.186 609.17 359.164 612.206C371.139 612.32 375.552 614.566 389.64 613.996L389.689 628.58C392.728 628.816 402.57 628.938 404.093 630.175C404.278 635.49 404.471 638.908 405.185 644.173C410.428 644.458 415.891 644.832 421.116 645.011L421.465 661.443C428.251 661.215 432.679 661.003 439.384 661.703C439.494 667.074 439.735 672.934 439.454 678.248C448.953 678.549 457.688 678.297 467.273 677.809C468.554 677.744 470.045 678.834 471.064 679.648C474.263 685.565 471.973 690.472 471.07 697.316L487.806 697.227C488.302 704.022 486.088 708.889 486.243 712.315C490.857 710.215 491.028 712.201 495.879 711.786C506.817 710.85 503.936 722.48 503.667 729.357C505.002 735.127 503.374 769.511 503.529 778.561C508.688 777.877 512.131 777.071 517.185 778.341C518.072 779.537 518.324 779.961 519.081 781.222L519.594 776.86C524.908 776.453 546.678 777.21 551.764 778.146L552.09 793.136C557.559 793.145 564.737 792.949 569.986 793.641C563.874 794.268 558.21 794.129 552.074 794.097C552.074 799.549 552.236 804.921 551.455 810.308C555.475 811.13 579.492 811.854 584.716 811.838C584.757 815.582 584.586 823.289 585.514 826.487L586.596 827.423C587.223 831.639 586.873 836.627 586.751 840.957L569.97 841.136L570.32 855.679L551.008 855.728C550.91 866.698 552.814 873.111 552.188 884.928L533.673 884.92L533.803 899.854C530.385 898.625 519.74 898.479 515.541 898.267C515.834 892.855 516.29 888.753 517.014 883.366C490.076 883.284 462.045 882.845 435.189 883.382L435.03 869.693C424.808 869.303 414.576 869.213 404.347 869.425C404.634 859.26 404.402 848.745 404.316 838.556L390.485 838.418C390.385 829.881 390.675 817.218 389.533 809.153C374.159 808.16 374.878 811.114 374.949 792.876C370.485 793.21 363.234 793.063 358.556 793.112C358.596 797.881 358.414 805.832 359.256 810.219C363.742 811.13 367.268 811.024 371.799 811.073C371.545 815.899 371.307 820.245 370.785 825.047C370.688 834.943 373.358 841.698 373.255 850.609L351.628 849.893L351.773 837.075C342.5 837.474 335.488 837.572 326.186 837.295C325.414 831.541 324.349 828.725 325.495 822.988C320.037 823.045 297.823 822.565 294.308 824.412C294.27 828.994 295.17 833.079 294.012 837.222C286.885 837.059 281.409 836.79 274.285 837.702C274.271 832.469 274.179 827.993 273.855 822.776C270.027 823.281 262.109 823.175 257.932 823.224L257.865 810.032C242.983 810.178 243.122 806.027 228.461 806.735L228.245 793.975L242.893 793.844L243.292 776.738L258.717 776.656C258.694 772.595 257.746 768.933 259.892 765.824C267.569 761.088 265.182 753.169 264.711 744.966L250.415 745.007L249.924 729.389L263.285 728.852L262.834 713.926L280.507 714.138C280.378 703.884 281.222 690.911 281.545 680.413C275.544 679.851 269.086 680.364 263.033 680.665C262.998 683.229 262.967 699.693 260.13 700.401C255.211 701.63 246.178 701.304 241.346 699.733C240.988 698.635 242.827 685.857 242.626 681.756L242.543 680.25C247.872 679.925 253.835 680.112 259.226 680.169C258.665 660.792 257.176 660.149 277.199 660.222C277.012 648.657 279.849 641.471 279.838 630.615C273.965 630.851 267.831 630.826 261.93 630.875L261.468 643.791L241.457 644.108C241.498 641.089 241.31 636.767 241.188 633.797C240.808 624.56 242.29 628.181 245.954 624.348C247.438 619.97 246.757 615.6 246.501 610.888C244.375 610.782 236.408 610.342 234.883 610.822C225.181 613.882 225.228 615.347 214.769 614.786L214.743 628.93L226.153 629.077C226.441 637.679 226.562 644.499 226.255 653.15L244.72 652.962L245.135 664.258C239.193 665.341 236.294 665.268 230.263 665.284C230.048 677.825 226.601 678.566 227.05 694.232C224.918 696.144 224.194 696.234 224.235 700.067C224.283 704.714 224.275 708.84 224.137 713.479C231.099 714.219 238.255 713.65 245.329 714.032C244.169 719.281 243.263 723.001 242.858 728.372L229.961 728.518C229.872 734.435 229.897 740.75 229.682 746.626C234.496 746.178 237.636 745.829 242.53 746.073C242.771 750.939 242.967 755.814 243.116 760.681L226.825 760.372L226.974 776.778C221.962 777.047 217.068 777.348 212.045 777.348C211.987 782.605 211.817 788.31 212.071 793.519C202.068 793.568 192.064 793.527 182.061 793.405C182.445 800.819 182.454 806.573 182.258 814.011C195.877 813.702 211.729 813.246 225.32 813.482L225.326 826.292L240.717 826.414C242.858 827.887 243.297 827.863 245.889 828.066C248.331 833.047 241.738 837.604 240.721 843.578C240.679 847.118 241.289 847.761 239.681 850.186C232.489 851.081 217.679 850.528 209.975 850.495C190.108 850.275 170.239 850.357 150.375 850.747C150.357 844.945 150.688 841.787 151.386 836.009C143.88 835.911 137.559 836.098 130.054 836.481C129.612 831.753 129.643 826.17 129.55 821.344C113.338 821.344 96.7232 822.019 80.4466 822.304C80.436 816.192 81.5583 813.205 76.598 809.706C72.7168 806.963 73.9262 797.295 74.08 792.648L86.8254 792.29C86.5886 785.608 86.591 783.012 88.1487 776.64C82.451 776.713 76.7526 776.689 71.0566 776.567C71.0599 780.441 71.2999 784.713 71.4326 788.62C62.946 788.49 60.4736 785.031 54.8126 792.852C47.8519 792.599 40.4599 792.754 33.461 792.787L33.3438 780.953C36.8229 781.027 40.5657 781.425 43.5866 779.814C48.7976 777.023 49.3876 776.583 55.3245 777.267L55.0706 762.895C61.7505 762.87 68.0129 763.285 74.6627 763.692C74.4877 752.258 74.4373 740.815 74.5113 729.381L87.8719 729.519C87.8508 723.831 87.9615 718.036 88.0152 712.331L71.5937 712.348L71.7362 701.792C66.653 701.67 50.0248 703.892 48.6877 698.651C50.5294 697.251 54.0142 697.479 56.5346 697.365C58.8532 694.655 56.4573 694.679 57.897 690.154C60.6315 689.308 69.0212 689.512 72.3945 689.479L72.458 679.705C77.8749 679.501 83.5098 679.086 88.9413 678.777C89.8837 665.154 88.82 664.673 87.0874 651.302C92.3757 651.359 98.0155 652.1 102.519 649.821C106.336 645.614 105.017 638.729 104.835 632.698L119.383 632.918C119.417 628.474 119.296 623.811 119.246 619.343C113.682 619.343 99.0776 621.06 95.4056 618.611C95.0939 616.446 94.9433 616.495 95.6717 614.476C98.311 613.012 102.002 613.532 105.162 613.614C105.207 609.162 105.431 604.466 105.578 599.999C110.576 599.958 115.792 599.632 120.808 599.396C120.572 594.888 120.467 590.192 120.307 585.667C125.835 585.879 131.3 585.838 136.83 585.83C136.602 580.442 136.123 574.754 135.758 569.342C140.875 569.179 145.929 569.569 151.041 569.862L150.704 557.289C156.045 557.216 164.455 558.534 169.178 556.247C170.252 555.734 170.349 553.749 170.717 552.243C171.201 548.337 171.503 544.446 171.84 540.524C174.799 540.312 177.662 539.84 180.427 540.792C181.829 542.681 181.29 547.889 182.414 551.437C185.765 551.657 195.029 551.389 197.18 552.284C197.505 553.716 197.813 554.961 198.208 556.377C202.634 558.762 211.642 558.094 214.391 553.309C214.65 547.905 210.395 546.644 212.781 539.018C226.336 538.465 246.014 539.222 260.471 539.108C260.156 534.282 259.727 529.146 259.519 524.337C273.888 524.5 288.259 524.516 302.628 524.394Z" fill="#585858"/>
<path d="M276.181 807.566C284.826 806.997 299.325 806.24 307.284 809.739C309.075 813.084 306.973 817.869 308.436 822.012C313.929 822.061 320.217 821.849 325.492 822.988C320.034 823.045 297.82 822.565 294.305 824.413C294.266 828.994 295.167 833.08 294.008 837.222C286.882 837.059 281.406 836.791 274.282 837.702C274.267 832.469 274.176 827.993 273.852 822.777L275.5 821.914C276.997 819.066 276.314 811.261 276.181 807.566Z" fill="#3C3735"/>
<path d="M276.656 808.551C282.202 808.323 291.612 806.557 294.664 811.904C294.102 816.502 293.555 816.746 296.034 820.002C299.695 821.841 304.208 821.719 308.43 822.012C313.922 822.06 320.211 821.849 325.486 822.988C320.028 823.045 297.813 822.565 294.298 824.413C294.26 828.994 295.16 833.08 294.002 837.222C292.946 832.201 292.804 829.336 292.475 824.225C287.727 823.916 282.984 823.542 278.247 823.086C278.317 817.218 278.433 814.166 276.656 808.551Z" fill="#3C3735"/>
<path d="M519.07 781.222L519.583 776.86C524.897 776.453 546.667 777.21 551.754 778.146L552.079 793.136C557.548 793.144 564.726 792.949 569.975 793.641C563.864 794.268 558.199 794.129 552.063 794.097C552.063 799.549 552.226 804.921 551.444 810.308C548.165 808.591 540.832 809.25 536.853 809.323C536.958 804.139 536.494 799.037 536.136 793.869C530.521 793.771 524.905 793.625 519.298 793.429C519.404 789.425 519.192 785.242 519.07 781.222Z" fill="#3C3735"/>
<path d="M359.408 779.099C369.261 778.147 379.837 777.813 389.729 777.658C389.795 783.029 389.845 786.912 389.35 792.275C385.188 792.242 378.756 791.868 374.939 792.877C370.475 793.211 363.225 793.064 358.547 793.113C359.236 787.538 359.423 784.706 359.408 779.099Z" fill="#3C3735"/>
<path d="M486.242 712.317C490.857 710.217 491.028 712.203 495.878 711.788C506.816 710.852 503.935 722.482 503.666 729.358L487.211 729.521C487.113 723.165 486.901 718.616 486.242 712.317Z" fill="#3C3735"/>
<path d="M374.947 792.877C378.763 791.868 385.196 792.243 389.358 792.275C387.816 797.378 387.726 804.141 389.531 809.154C374.157 808.161 374.876 811.115 374.947 792.877Z" fill="#3C3735"/>
<path d="M359.242 810.22C363.729 811.131 367.254 811.025 371.786 811.074C371.532 815.9 371.293 820.246 370.772 825.048C367.088 824.291 363.418 824.657 359.629 824.787C359.681 819.929 359.552 815.07 359.242 810.22Z" fill="#3C3735"/>
<path d="M171.834 540.525C174.794 540.313 177.656 539.841 180.422 540.794C181.823 542.682 181.284 547.89 182.408 551.439C179.627 551.357 172.619 550.665 170.711 552.244C171.195 548.338 171.498 544.448 171.834 540.525Z" fill="#3C3735"/>
<path d="M240.703 826.414C242.843 827.887 243.283 827.863 245.875 828.066C248.317 833.047 241.724 837.604 240.707 843.578L240.703 826.414Z" fill="#3C3735"/>
<path d="M436.942 744.454C442.602 744.698 448.265 744.869 453.931 744.967C455.063 762.887 448.873 778.261 454.174 795.636C455.183 798.948 454.866 805.206 454.679 808.844L471.035 808.299C471.138 798.264 472.829 787.734 472.368 778.212L486.533 778.122C486.231 787.929 487.534 799.396 488.372 809.341L473.521 809.162L472.885 823.501L454.121 823.884L454.348 809.113C449.213 809.406 441.454 810.789 437.723 807.713C435.587 803.855 436.482 798.346 436.659 793.626C431.492 793.544 425.823 793.748 420.614 793.837L420.924 778.415C415.487 778.261 409.707 778.383 404.242 778.407L404.445 759.095C404.996 753.74 405.319 749.85 405.417 744.47C412.292 745.146 414.552 745.113 421.395 744.755C420.348 749.549 419.108 756.344 420.918 760.958C421.731 763.481 421.564 774.118 421.574 777.26C426.54 777.699 432.755 777.561 437.861 777.569C438.021 766.655 437.386 755.392 436.942 744.454Z" fill="#3C3735"/>
<path d="M405.41 744.47C412.284 745.145 414.544 745.113 421.388 744.755C420.341 749.548 419.1 756.343 420.911 760.958C414.719 760.518 410.548 760.103 404.438 759.094C404.988 753.739 405.312 749.849 405.41 744.47Z" fill="#3C3735"/>
<path d="M371.796 696.903C378.172 696.7 384.029 696.822 390.414 696.968C390.225 705.286 390.744 714.295 390.154 722.539C389.522 731.361 388.259 735.804 388.779 744.822L373.391 744.748L373.408 761.334C368.515 761.082 363.741 761.31 358.848 761.456C358.571 766.624 358.402 771.881 358.188 777.065L358.222 777.424C356.403 779.076 344.82 778.539 341.422 778.579C341.817 773.184 341.711 766.486 341.762 760.968C346.899 761.342 352.08 761.196 357.234 761.147C357.176 751.08 358.643 740.647 358.972 730.287L370.88 730.132C371.111 719.056 371.416 707.98 371.796 696.903Z" fill="#3C3735"/>
<path d="M118.611 760.6C124.86 760.763 131.113 760.722 137.361 760.494C136.891 766.728 137.167 771.823 137.413 778.081C130.997 779.098 125.288 779.171 118.832 779.383C118.838 783.892 118.869 788.4 118.926 792.917C116.204 793.625 105.961 793.145 102.896 792.022C102.526 791.029 102.237 789.808 102.84 788.937C105.848 784.592 101.594 780.824 104.099 777.462C106.875 776.404 115.336 776.73 118.703 776.73C118.794 771.497 118.025 765.548 118.611 760.6Z" fill="#3C3735"/>
<path d="M308.621 728.616C314.271 728.787 320.53 728.641 326.233 728.616C325.65 734.525 325.55 739.001 325.497 744.958C330.926 745.088 336.836 744.868 342.306 744.771C341.756 750.004 341.675 755.22 341.511 760.486C336.517 761.194 330.392 761.267 325.26 761.462L325.139 745.698L308.586 745.007L308.621 728.616Z" fill="#3C3735"/>
<path d="M435.91 825.837C436.537 826.171 437.558 826.952 438.176 827.391C439.277 830.826 438.61 833.715 438.233 837.361C433.585 833.755 434.4 831.078 435.91 825.837Z" fill="#585858"/>
<path d="M486.145 858.227C490.588 860.945 489.302 864.729 488.334 869.14L486.267 867.545C484.965 864.225 485.673 861.816 486.145 858.227Z" fill="#585858"/>
<path d="M634.499 567.462L636.599 564.394C639.756 568.853 645.502 564.906 649.351 567.478L650.051 570.693C652.737 572.247 660.143 570.855 663.976 570.709L663.862 581.761C655.3 582.151 646.739 582.477 638.169 582.745L637.762 596.361L650.914 596.092C650.816 600.788 650.393 606.867 651.321 611.327C653.477 614.623 652.623 624.747 652.525 629.215C658.922 628.727 662.617 628.548 668.989 628.816C668.818 636.727 668.452 645.011 668.981 652.881L681.97 653.044L682.067 664.356C669.29 666.033 669.534 660.726 660.761 660.865L654.128 660.979L653.852 680.413L667.044 680.047C666.824 691.359 666.873 702.679 667.19 713.992H681.961C682.173 720.738 682.45 727.485 682.783 734.223C688.35 734.313 696.163 734.183 701.526 734.549C701.249 739.7 701.013 742.533 700.134 747.619C702.909 747.424 709.518 746.699 711.878 747.627C707.76 748.278 705.66 748.238 701.55 748.262C701.558 753.08 701.485 758.109 701.583 762.911C695.577 762.943 689.27 762.878 683.304 763.188C682.466 773.629 686.014 781.116 685.77 792.599L685.746 793.397L667.231 793.495L667.101 806.833C651.988 806.947 635.093 808.469 620.9 808.347C620.672 799.427 621.396 787.366 621.705 778.203C625.734 777.682 631.227 777.454 635.402 777.177C634.54 771.44 634.027 768.046 635.76 762.52C635.956 761.405 635.475 747.302 635.435 745.568C630.812 744.754 624.318 744.95 619.533 745.194C619.598 750.329 619.964 758.256 619.044 763.017C608.953 763.594 607.048 762.414 597.307 759.973C596.045 759.656 587.63 759.713 585.816 759.713L585.726 775.802C592.033 776.16 596.9 777.267 602.589 777.706L602.353 793.722C592.44 793.674 579.655 793.234 569.979 793.641C564.729 792.949 557.551 793.145 552.082 793.136L551.757 778.146C546.67 777.21 524.9 776.453 519.586 776.86L519.073 781.222C518.317 779.961 518.064 779.537 517.177 778.341C512.123 777.072 508.681 777.877 503.521 778.561C503.367 769.511 504.994 735.127 503.66 729.357C503.928 722.48 506.809 710.85 495.871 711.786C491.021 712.201 490.85 710.215 486.235 712.315C486.081 708.889 488.294 704.022 487.798 697.227L471.062 697.316C471.965 690.472 474.255 685.565 471.057 679.648C470.037 678.834 468.547 677.744 467.265 677.809C457.681 678.297 448.945 678.549 439.447 678.248C439.728 672.934 439.487 667.074 439.377 661.703C432.672 661.003 428.244 661.215 421.457 661.443L421.109 645.011C415.883 644.832 410.421 644.458 405.177 644.173C404.464 638.908 404.271 635.49 404.086 630.175C408.375 631.168 410.436 630.102 414.307 628.426L422.293 629.321L422.364 612.816L422.771 612.385C428.26 612.409 435.358 612.857 440.449 611.319C440.554 605.638 440.55 600.804 440.305 595.132L440.104 594.53L439.918 580.206C443.243 580.353 451.315 581.142 453.793 579.954C474.668 578.839 499.989 579.685 521.043 579.759C520.783 585.626 520.929 590.786 519.334 596.483L520.254 596.637L537.808 596.548L537.954 611.734C542.894 611.75 552.896 611.498 557.421 612.084C552.009 612.955 543.252 612.637 537.507 612.613C537.751 618.855 537.857 622.2 537.254 628.385C540.559 628.426 548.249 628.238 551.659 629.337C554.068 630.11 550.788 631.095 554.377 632.218C554.98 630.314 554.874 630.403 556.249 628.971C560.506 628.133 566.08 629.077 570.556 629.541L570.296 612.507C580.534 611.758 592.277 614.184 604.314 613.915L604.574 595.921C610.035 595.669 615.618 595.889 621.095 596.003L621.071 581.403L633.832 581.443L634.499 567.462Z" fill="#3C3735"/>
<path d="M552.634 661.085C563.67 661.191 575.023 661.598 586.083 661.866L586.327 678.818C597.403 678.664 609.342 679.803 620.931 679.836L620.939 697.048L603.596 697.081C603.678 713.024 603.922 728.966 604.329 744.909L618.433 745.048C618.457 749.931 618.229 758.549 619.043 763.017C608.952 763.595 607.047 762.415 597.306 759.973C596.044 759.656 587.629 759.713 585.814 759.713L585.725 775.802C592.032 776.16 596.899 777.267 602.587 777.707L602.351 793.723C592.439 793.674 579.654 793.235 569.977 793.641C564.728 792.95 557.55 793.145 552.081 793.137L551.756 778.146L552.065 761.186L536.268 761.015C536.114 755.676 536.163 750.134 536.146 744.771L521.676 744.763C521.286 730.309 521.53 711.64 521.514 696.845L536.96 696.796L537.033 679.795H553.074C552.797 673.683 552.765 667.229 552.634 661.085Z" fill="#F5F5F5"/>
<path d="M453.797 579.956C474.672 578.841 499.993 579.687 521.047 579.76C520.786 585.628 520.933 590.788 519.338 596.484L520.257 596.639C521.885 607.919 518.963 616.798 519.346 628.468L505.136 628.509L505.177 645.111L487.712 645.029C487.672 640.586 487.826 632.683 487.395 628.533C482.821 628.289 476.952 628.476 472.254 628.509C470.401 631.178 471.138 640.488 471.19 644.175L455.174 644.093C455.597 634.604 454.764 621.16 454.756 611.019C450.03 610.922 445.187 611.158 440.452 611.32C440.557 605.64 440.553 600.806 440.309 595.133L440.108 594.531L439.922 580.208C443.246 580.354 451.319 581.144 453.797 579.956Z" fill="#F5F5F5"/>
<path d="M473.214 614.664L486.797 614.713C486.846 619.205 486.724 624.129 487.391 628.532C482.818 628.287 476.948 628.475 472.25 628.507C473.529 623.999 473.24 619.352 473.214 614.664Z" fill="#585858"/>
<path d="M618.211 728.658L634.422 729.366C634.243 733.777 633.893 741.053 635.505 745.016L635.44 745.57C630.817 744.756 624.323 744.951 619.537 745.195C619.603 750.33 619.969 758.257 619.049 763.018C618.235 758.55 618.463 749.932 618.439 745.049C618.61 740.076 618.317 733.736 618.211 728.658Z" fill="#3C3735"/>
<path d="M635.503 745.016C641.647 746.098 645.456 745.96 651.69 745.943C651.673 749.524 652.333 759.095 651.12 761.211C648.792 761.951 642.526 760.934 635.763 762.521C635.958 761.406 635.478 747.303 635.438 745.569L635.503 745.016Z" fill="#3C3735"/>
<path d="M637.758 596.361L650.909 596.093C650.812 600.789 650.388 606.868 651.316 611.328C646.856 611.385 642.429 611.743 637.986 612.06L637.758 596.361Z" fill="#3C3735"/>
<path d="M310.949 19.0422C316.794 18.8176 322.832 18.9486 328.693 18.9991C328.706 24.6698 328.468 29.6578 328.142 35.3261C328.771 35.2341 329.401 35.1503 330.032 35.0755C334.746 34.531 356.165 34.295 359.864 37.1947C360.833 41.5901 360.026 46.9134 359.652 51.5246L372.378 51.5693L372.656 68.7468C377.962 68.6475 381.019 68.6891 386.309 69.1725C386.364 75.8182 386.427 79.9101 387.293 86.4444L402.272 86.9082C401.16 97.3391 400.785 101.162 401.064 111.91L415.736 111.71C416.051 124.498 416.292 137.288 416.459 150.079C421.228 149.397 424.66 149.369 429.425 149.273C429.291 161.405 429.358 173.538 429.625 185.668C431.468 190.042 430.998 189.143 435.996 190.207C438.316 193.695 437.569 196.639 437.459 201.231L437.728 216.773L437.718 232.331C433.304 232.224 424.487 231.601 420.668 233.095C418.021 235.907 409.473 235.021 405.329 234.962C405.338 240.664 405.253 246.66 405.435 252.332L377.441 252.545L377.478 267.215C374.061 267.224 366.929 267.43 363.796 267.167C359.608 267.948 360.237 267.135 358.144 269.694C357.078 273.759 357.967 276.946 358.023 281.224C352.844 281.265 347.661 281.147 342.542 281.887C342.546 287.135 342.419 292.27 343.05 297.48C348.356 297.489 353.755 297.588 359.045 297.265C357.708 303.914 357.475 320.99 357.888 328.07L342.818 328.435C342.688 338.154 341.314 348.59 341.411 357.344C338.066 357.42 332.723 357.704 329.552 357.393C326.099 348.169 312.387 356.559 305.734 357.244C301.874 357.64 298.263 357.671 294.393 357.649L294.501 342.801L310.953 343.31C310.418 336.557 308.085 334.674 313.636 329.59L314.034 313.594L326.897 313.431C327.961 312.38 327.495 312.863 327.945 311.072L326.808 309.937C322.66 308.967 316.084 309.329 311.576 309.379L310.727 296.105C300.169 295.141 290.96 297.556 279.166 297.168L278.979 282.878C283.772 281.916 293.89 282.759 296.677 278.61C287.982 263.923 304.555 268.483 308.962 266.746L309.216 265.338L307.349 262.878C303.115 262.032 299.12 263.326 294.79 264.241C294.491 260.631 294.411 256.78 294.264 253.142C289.606 252.173 284.533 253.731 280.098 251.898C277.749 243.181 272.516 248.562 267.324 245.034L266.969 242.717C271.295 238.433 289.294 243.267 294.977 236.867C295.321 236.523 297.102 234.449 297.116 234.166C297.605 223.968 296.862 212.502 296.796 202.277L282.306 202.196C283.109 185.946 282.195 166.095 282.392 149.326C287.002 149.175 292.277 149.313 296.948 149.339C298.367 133.541 297.993 117.38 298.188 101.547C298.397 84.6108 298.629 67.9737 298.423 51.0176L310.717 50.8727C310.53 40.7031 310.897 29.3445 310.949 19.0422Z" fill="#3C3735"/>
<path d="M327.924 102.567C334.955 102.169 335.298 101.796 341.983 100.189L343.228 102.35C345.556 103.064 354.411 102.899 357.401 102.925L357.289 117.412C361.793 118.121 367.313 118.296 371.933 118.581C372.015 122.844 372.003 127.408 372.444 131.646C372.758 134.667 373.47 134.237 376.303 136.234C377.233 141.584 376.785 158.538 376.757 164.984L390.608 165.571C390.299 177.212 390.429 189.495 390.368 201.187C395.305 201.363 400.262 200.831 405.193 200.434L404.974 217.432C409.448 217.492 415.144 217.147 419.716 216.985C419.609 221.888 419.38 228.452 420.666 233.095C418.02 235.908 409.472 235.021 405.327 234.962C405.336 240.664 405.252 246.66 405.434 252.332L377.44 252.546L377.476 267.216C374.059 267.225 366.928 267.431 363.794 267.167C351.359 266.956 339.079 266.361 327.052 266.225C327.163 258.576 326.301 250.617 326.417 243.221C326.565 233.841 327.597 226.828 327.018 217.222C325.108 215.455 324.499 216.064 321.12 215.872C320.306 214.895 319.424 137.795 321.712 135.44C323.917 135.451 325.506 135.755 327.27 134.544C328.333 127.058 327.113 112.555 327.924 102.567Z" fill="#1B1A1B"/>
<path d="M340.948 135.383C345.571 135.833 352.056 135.765 356.83 135.843C356.507 147.346 359.072 158.103 358.88 171.645C363.179 171.759 367.479 171.832 371.779 171.866C371.802 177.195 371.596 182.049 372.736 187.262L372.528 193.144C372.572 200.528 372.384 207.914 372.427 215.263C377.766 215.112 383.585 214.696 388.816 215.539C388.872 221.641 388.897 227.743 388.89 233.846C385.288 233.909 372.672 233.146 371.071 233.622C368.156 237.358 369.084 242.585 369.199 247.633C360.464 247.722 351.65 248.789 343.307 248.606L343.446 232.774C342.82 222.9 343.185 212.477 343.327 202.549L340.966 200.551C337.185 190.409 341.022 147.171 340.948 135.383Z" fill="#585858"/>
<path d="M343.322 202.549C344.681 204.596 343.862 213.009 343.746 215.953L357.224 215.96L357.676 215.555C366.322 217.087 379.622 215.67 388.811 215.539C388.867 221.641 388.891 227.743 388.884 233.845C385.283 233.909 372.666 233.146 371.065 233.622C368.15 237.358 369.079 242.585 369.193 247.633C360.459 247.722 351.645 248.789 343.301 248.606L343.441 232.774C342.814 222.9 343.179 212.477 343.322 202.549Z" fill="#585858"/>
<path d="M343.322 202.549C344.681 204.596 343.862 213.009 343.746 215.953L357.224 215.96L357.274 233.014L343.441 232.774C342.814 222.9 343.179 212.477 343.322 202.549Z" fill="#3C3735"/>
<path d="M372.526 193.143C372.57 200.527 372.382 207.913 372.425 215.262C377.764 215.111 383.583 214.695 388.814 215.538C379.625 215.669 366.326 217.086 357.68 215.555C358.234 211.123 358.06 204.775 358.07 200.128C362.777 199.928 366.491 201.03 370.63 199.41C372.801 196.853 372.106 197.212 372.526 193.143Z" fill="#524B49"/>
<path d="M358.885 171.645C363.183 171.758 367.484 171.832 371.783 171.866C371.806 177.195 371.601 182.049 372.74 187.262C369.833 181.616 363.74 184.314 358.469 185.453L358.885 171.645Z" fill="#524B49"/>
<path d="M314.031 313.595L326.893 313.433C325.785 318.151 325.953 322.167 325.926 326.973C321.185 327.177 317.533 326.796 313.633 329.592L314.031 313.595Z" fill="#3C3735"/>
<path d="M294.258 253.142C299.289 255.043 304.248 253.424 307.135 255.512C307.954 258.44 307.61 259.879 307.343 262.878C303.109 262.032 299.114 263.326 294.784 264.241C294.485 260.631 294.405 256.78 294.258 253.142Z" fill="#3C3735"/>
<path d="M429.617 185.668C431.461 190.042 430.991 189.143 435.989 190.207C438.309 193.695 437.561 196.639 437.452 201.231C436.233 200.831 435.654 200.488 434.504 199.922C433.115 195.126 429.624 188.27 429.617 185.668Z" fill="#3C3735"/>
<path d="M308.422 137.969C309.454 138.39 309.514 138.546 310.429 139.21C311.318 143.12 310.685 145.685 310.179 149.659L308.367 147.905C307.363 144.296 307.99 141.712 308.422 137.969Z" fill="#3C3735"/>
<path d="M308.682 153.697L309.956 154.776C310.849 158.413 310.093 162.937 309.746 166.794L308.086 165.378C307.346 161.252 308.115 157.874 308.682 153.697Z" fill="#3C3735"/>
<path d="M309.298 218.682L310.983 219.661C311.98 222.927 311.442 226.127 311.212 229.601C310.763 229.51 309.862 229.038 309.397 228.821C308.281 225.619 308.983 222.173 309.298 218.682Z" fill="#3C3735"/>
<path d="M706.439 36.1719C711.558 36.3176 717.377 36.329 722.374 36.9597C722.374 46.5856 722.528 56.6039 722.122 66.1916L735.387 66.0882C734.435 78.5626 734.817 96.7183 735.086 109.324C735.371 122.795 732.815 160.595 736.836 171.636C740.351 174.341 747 173.401 751.769 173.247L751.932 184.937C747.318 185.01 742.516 185.16 737.918 185.153C738.211 195.635 736.266 197.437 734.427 207.272C733.906 210.052 734.565 219.311 734.785 222.491C730.561 222.326 725.93 222.246 721.747 221.915C721.625 231.27 721.601 239.6 721.951 248.971C721.894 253.953 721.975 259.809 721.682 264.705L722.431 266.656C725.654 267.915 731.839 267.423 735.582 267.409C735.81 283.408 726.809 280.144 713.918 280.628C713.918 284.741 713.552 293.199 714.773 296.716C719.021 298.523 719.135 295.834 721.666 298.499C721.772 302.113 721.129 301.918 723.001 303.788C725.011 303.643 727.029 303.539 729.047 303.477C732.107 307.535 728.925 308.173 731.953 311.797C736.478 312.41 737.218 310.646 739.505 312.235C739.66 315.145 740.14 314.033 738.854 316.061C734.207 317.382 733.426 315.544 730.699 317.27C730.292 318.49 729.747 321.176 728.885 321.3C721.934 322.301 709.336 318.881 702.883 321.626C701.971 324.473 702.061 324.501 702.044 327.353C704.787 329.495 708.433 325.905 709.548 334.249C709.792 336.056 709.548 340.988 709.515 343.01C716.799 342.339 736.421 340.256 729.975 353.421C725.637 355.286 706.87 356.935 701.93 356.732C697.674 356.558 690.049 349.456 683.969 355.706C683.286 358.219 683.424 358.522 683.514 361.064C683.334 360.611 682.537 359.39 682.244 358.92C677.922 357.83 673.097 358.342 668.555 358.506C668.905 349.125 668.922 338.002 668.808 328.548C664.136 328.243 657.357 328.56 652.531 328.655L652.702 312.147C658.423 312.01 664.38 312.07 670.118 312.045C670.094 302.456 670.972 293.081 670.948 283.327C667.229 283.372 657.235 283.788 654.248 282.882C650.317 280.081 643.839 280.824 638.794 280.797L638.615 267.264C632.649 267.291 626.57 267.167 620.605 267.109C620.784 262.09 620.775 256.852 620.841 251.811L603.775 251.632C603.929 245.997 603.742 239.831 603.685 234.15C592.348 233.576 582.436 232.935 571.067 233.158C571.229 228.594 572.076 219.533 569.789 215.914C571.067 213.378 570.985 206.053 571.01 202.904C576.405 202.633 582.192 202.213 587.555 202.357C586.741 194.49 585.976 191.936 588.955 184.544L603.88 184.169C604.654 170.009 605.752 165.812 605.305 150.858C610.529 150.902 616.405 150.826 621.573 151.103C621.703 145.867 621.703 140.169 622.281 135.018L635.563 134.479C634.537 123.191 636.32 122.15 638.558 111.358C638.867 109.861 638.81 100.862 638.794 98.7757L650.871 98.6626C650.13 89.5428 651.831 88.9861 654.378 80.4287C654.834 78.889 654.606 71.7175 654.549 69.6789C661.027 69.6854 668.458 70.8874 672.738 66.8939C674.358 62.8248 673.805 57.9207 673.723 53.3876C681.528 52.1018 697.552 53.1207 706.341 53.0637L706.439 36.1719Z" fill="#3C3735"/>
<path d="M680.464 103.558C689.733 103.11 696.789 103.488 706.042 103.948C705.961 112.023 706.848 119.902 707.231 127.978C708.679 158.972 706.335 189.571 706.97 220.602L691.906 220.99C691.719 228.299 692.419 262.812 690.254 266.284C682.971 269.702 684.712 273.9 685.013 281.199C674.767 281.867 664.521 282.427 654.259 282.882C650.328 280.08 643.85 280.823 638.804 280.797L638.625 267.264C632.66 267.291 626.58 267.166 620.615 267.109C620.794 262.09 620.786 256.852 620.851 251.811L603.785 251.632C603.94 245.996 603.752 239.831 603.695 234.149C603.297 220.627 606.853 212.431 605.779 200.427L620.078 200.633C619.858 188.926 621.714 181.192 621.657 171.356C626.32 171.411 632.31 171.631 636.826 171.391C636.973 164.574 637.022 157.577 637.559 150.795C642.434 150.902 647.829 150.849 652.623 151.507C652.533 148.739 652.281 140.822 652.883 138.543C655.439 128.742 656.619 129.115 656.692 118.43C666.971 118.787 670.967 116.967 679.976 116.617L680.464 103.558Z" fill="#1B1A1B"/>
<path d="M670.087 134.971C676.231 135.062 682.375 135.06 688.52 134.965C688.455 140.238 688.178 146.072 688.398 151.284C689.317 173.238 685.883 193.694 686.127 215.75L673.342 215.947C672.74 231.769 673.415 247.847 672.976 263.989C665.895 263.942 658.807 263.952 651.718 264.018L651.613 247.792C652.508 242.656 652.052 238.187 651.784 232.991L635.393 232.877C634.962 225.993 634.791 222.748 635.426 215.956L636.329 210.618C635.849 204.803 636.329 191.126 636.361 184.794C641.57 184.827 646.852 184.969 652.068 185.062C652.573 181.127 652.329 170.838 652.345 166.42L668.703 166.117C669.004 155.85 670.07 144.991 670.087 134.971Z" fill="#585858"/>
<path d="M652.5 185.229C658.302 183.869 662.681 184.585 668.841 182.987C668.752 188.51 668.386 193.736 669.46 199.139C668.019 208.302 669.151 222.701 669.142 232.647C663.722 233.232 657.318 233.022 651.784 232.992L635.393 232.877C634.962 225.994 634.791 222.749 635.426 215.956L636.329 210.618C635.849 204.804 636.329 191.127 636.361 184.795C641.57 184.828 646.852 184.97 652.068 185.063L652.5 185.229Z" fill="#524B49"/>
<path d="M636.362 184.794C641.57 184.827 646.852 184.969 652.069 185.062L652.5 185.228C652.573 189.715 653.273 212.891 651.963 215.153L651.467 215.466C642.93 219.272 641.131 218.193 636.329 210.618C635.849 204.803 636.329 191.126 636.362 184.794Z" fill="#585858"/>
<path d="M636.329 210.618C641.13 218.194 642.929 219.272 651.466 215.467C647.503 220.361 649.399 226.205 650.433 232.097C655.527 232.1 664.479 231.846 669.142 232.647C663.722 233.232 657.318 233.022 651.784 232.992L635.393 232.877C634.962 225.994 634.791 222.748 635.426 215.956L636.329 210.618Z" fill="#585858"/>
<path d="M668.705 166.118C667.891 168.075 669.787 193.535 669.462 199.139C668.388 193.735 668.754 188.51 668.843 182.987C662.683 184.585 658.304 183.869 652.502 185.228L652.07 185.062C652.575 181.128 652.331 170.839 652.347 166.421L668.705 166.118Z" fill="#585858"/>
<path d="M635.399 232.876L651.79 232.991C652.058 238.186 652.514 242.655 651.619 247.791C645.898 247.635 639.183 249.229 634.87 246.658C633.495 243.488 634.064 243.855 634.536 239.852C634.781 237.403 635.017 235.307 635.399 232.876Z" fill="#726A68"/>
<path d="M622.348 216.072L635.434 215.956C634.799 222.748 634.97 225.994 635.402 232.877C635.019 235.308 634.783 237.405 634.539 239.853C634.433 237.649 634.612 236.817 633.587 234.883C630.828 233.021 625.88 233.995 622.25 234.217L622.348 216.072Z" fill="#585858"/>
<path d="M708.552 264.085C708.381 250.305 708.031 249.71 721.956 248.971C721.899 253.952 721.98 259.808 721.687 264.704C718.245 263.488 712.369 263.982 708.552 264.085Z" fill="#3C3735"/>
<path d="M701.559 748.264C705.669 748.239 707.768 748.28 711.886 747.629C713.538 749.859 713.693 750.941 716.802 751.234C728.008 752.284 739.809 751.25 751.088 751.462L750.934 766.2C763.573 766.07 774.714 767.234 787.825 766.917L787.76 784.007L854.998 783.909L854.892 798.575H891.271C891.165 803.767 891.205 808.967 890.449 814.102L943.763 814.143V827.27L959.347 827.124L959.266 837.882C959.551 841.61 958.916 841.333 960.853 843.636L972.955 843.49L973.06 883.14L944.731 883.131L944.755 897.658C931.107 897.194 906.074 896.836 892.963 897.911C892.947 893.231 893.224 887.892 893.37 883.156C883.287 883.099 874.904 882.676 864.642 883.083C864.382 878.167 864.626 873.431 864.789 868.523C851.556 868.417 838.323 868.45 825.09 868.605C825.139 863.502 825 858.196 824.943 853.085C816.813 852.906 806.274 853.386 798.055 853.589L798.095 838.932C795.296 838.761 793.18 838.346 790.437 837.866C781.998 837.508 771.931 837.687 763.369 837.63L763.402 822.314C746.954 821.931 729.058 822.216 712.513 822.192L712.228 810.693C707.272 810.872 704.822 811.62 701.437 808.951C696.749 805.264 673.482 806.77 667.109 806.835L667.24 793.496L685.754 793.399L685.779 792.601C686.023 781.118 682.474 773.631 683.313 763.189C689.278 762.88 695.585 762.945 701.591 762.913C701.494 758.111 701.567 753.081 701.559 748.264Z" fill="#F5F5F5"/>
<path d="M939.016 836.84C945.486 837.89 952.647 837.784 959.256 837.881C959.54 841.609 958.906 841.332 960.843 843.635C961.184 846.41 961.217 852.473 961.323 855.509C952.159 855.232 948.269 855.542 939.138 853.784L939.016 836.84Z" fill="#585858"/>
<path d="M586.587 827.424C596.166 827.188 605.411 827.546 614.819 827.358L614.941 844.221L650.115 844.091L649.968 859.529C661.753 858.748 673.838 858.935 685.671 858.943L685.378 873.071C694.298 873.161 706.399 874.292 714.643 873.966L714.757 888.941L746.13 888.965L746.187 903.5L763.172 903.582C763.18 909.051 763.05 915.309 763.27 920.696L778.57 920.729L778.659 933.62L792.266 933.832C791.933 943.76 792.258 953.168 792.014 962.828C787.343 962.869 782.24 962.772 777.626 963.187C775.379 964.611 767.485 964.008 764.238 964.008C764.222 967.044 764.352 976.183 763.839 978.617C747.001 978.413 730.155 978.381 713.309 978.535L713.512 963.073L681.594 963.081L681.773 947.895C676.686 947.944 671.6 947.919 666.522 947.838C663.144 947.585 663.454 948.131 661.126 946.454C659.637 943.126 660.605 937.054 660.605 933.091C649.342 932.709 640.097 932.147 628.695 932.163L628.353 919.761C611.572 919.175 601.554 915.626 582.828 916.009C582.6 911.769 582.803 907.081 582.876 902.8C576.431 902.833 568.219 901.327 561.253 900.945C553.074 900.497 541.518 900.904 533.794 899.854L533.664 884.921L552.179 884.929C552.805 873.112 550.901 866.699 550.999 855.729L570.311 855.68L569.961 841.137L586.742 840.957C586.864 836.628 587.214 831.639 586.587 827.424Z" fill="#F5F5F5"/>
<path d="M745.37 946.072C751.783 946.235 758.432 946.194 764.87 946.243C764.381 952.786 764.113 956.79 764.447 963.285L777.631 963.187C775.384 964.611 767.49 964.009 764.243 964.009C764.227 967.045 764.357 976.184 763.844 978.617C763.177 974.345 763.503 969.128 763.592 964.725L745.289 964.701L745.37 946.072Z" fill="#585858"/>
<path d="M637.298 504.342C641.872 504.651 646.454 504.806 651.044 504.806C651.028 508.533 650.841 513.75 651.101 517.355L651.166 519.447C654.478 522.116 658.312 530.132 653.892 533.29C649.294 536.578 643.37 536.138 637.998 536.016C638.088 531.817 638.527 525.217 637.665 521.318L636.053 520.106C634.068 516.085 633.913 507.516 637.298 504.342Z" fill="#585858"/>
<path d="M374.19 567.926C377.727 567.821 386.388 566.795 388.39 567.772L389.262 569.009C389.547 574.234 389.542 575.951 389.026 581.241L388.819 595.214L373.008 595.247C373.196 585.912 374.163 577.839 374.19 567.926Z" fill="#B3ACA7"/>
<path d="M472.547 202.565L483.519 203.024C483.413 206.846 482.917 212.363 483.991 215.828C480.988 216.084 474.737 215.848 472.868 216.886C472.976 212.431 472.688 207.103 472.547 202.565Z" fill="#3C3735"/>
<path d="M267.258 299.005C270.63 298.672 272.16 298.32 275.434 298.938C278.02 300.867 276.971 299.621 278.056 303.272C274.984 303.44 273.029 303.527 269.969 303.376C267.151 301.604 268.222 302.856 267.258 299.005Z" fill="#3C3735"/>
<path d="M313.422 504.35C317.259 503.878 322.123 502.494 325.069 505.237L324.956 507.792C320.649 507.369 318.61 507.174 314.368 506.035L313.422 504.35Z" fill="#1B1A1B"/>
<path d="M634.498 567.464C633.944 562.573 633.074 559.716 635.45 555.387L636.492 555.55C637.826 558.919 637.159 560.644 636.597 564.396L634.498 567.464Z" fill="#3C3735"/>
<path d="M619.394 811.302L620.265 811.977C621.551 814.402 620.997 817.397 620.818 820.262L619.622 819.334C618.45 816.608 619.069 814.321 619.394 811.302Z" fill="#3C3735"/>
<path d="M433.88 383.888L433.287 389.147L448.515 390.861L446.706 406.932L430.636 405.124L431.228 399.862L417.378 398.304L416.86 402.904L402.373 401.274L401.469 409.311L385.398 407.502L387.207 391.432L401.693 393.062L402.599 385.026L417.291 386.679L417.81 382.079L433.88 383.888Z" fill="#1B1A1B"/>
<path d="M576.724 391.891L590.397 390.373L591.216 397.748L603.77 396.355L605.554 412.429L591.114 414.031L590.295 406.655L577.742 408.049L577.158 402.789L564.712 404.17L565.223 408.771L550.784 410.373L549 394.3L562.211 392.833L561.701 388.233L576.141 386.631L576.724 391.891Z" fill="#1B1A1B"/>
<rect x="552.148" y="285.275" width="41.8259" height="43.8151" fill="#585858"/>
<rect x="401.406" y="277.696" width="41.8259" height="43.8151" fill="#585858"/>
<rect x="424.281" y="277.816" width="41.8259" height="43.8151" fill="#585858"/>
<path d="M482.623 547.561H495.143V545.329H506.108V544.907H521.459V546.699H525.033V567.655H524.478V575.672H518.045V588.276H509.535V597.345H483.651V589.454H475.642V575.67H468.715V561.985H467.273V537.081H482.623V547.561Z" fill="#FFABD8"/>
<path d="M528.818 455.348L528.13 453.037C522.195 451.185 473.151 452.106 465.16 452.558L464.549 469.771C460.659 469.804 452.496 469.655 448.989 470.097C448.785 481.992 449.746 492.417 449.689 503.282L465.851 503.249C465.786 508.889 465.786 514.684 465.64 520.307C474.348 520.299 481.575 520.291 490.299 521.015L490.445 530.834C484.797 530.842 479.247 530.745 473.607 530.671C468.22 530.59 464.655 530.134 461.188 534.505C461.156 538.077 460.456 546.37 462.466 548.844C483.52 548.771 500.866 547.925 521.741 549.04C524.832 548.673 531.859 548.763 535.271 548.722C535.201 543.351 535.321 539.282 535.661 533.919C535.461 533.463 534.858 532.755 534.525 532.315C523.081 531.949 520.963 530.794 509.065 530.647L509.045 520.584L527.833 520.397L527.957 503.355L544.348 503.331C544.608 492.222 544.797 481.113 544.914 469.998C542.712 468.494 531.772 469.046 528.462 469.078C528.399 464.107 528.52 460.303 528.818 455.348Z" fill="#1B1A1B"/>
<path d="M206.511 814.219C202.762 813.961 198.828 814.065 195.034 814.095C191.982 814.092 177.395 814.324 176.063 814.213L174.141 814.589L173.393 815.42C168.756 816.062 166.339 814.893 161.702 814.628C159.538 814.504 156.958 814.488 154.766 814.484C154.625 816.232 154.771 820.573 153.113 821.607L151.815 822.16C151.225 824.576 151.764 826.668 151.663 829.071C147.577 829.087 142.838 829.041 138.808 829.162C138.51 832.118 138.595 842.479 137.853 844.168C137.42 846.619 137.341 847.811 137.459 850.273C144.142 850.021 150.651 849.726 157.11 850.963L157.076 855.864L175.248 855.85C178.34 856.037 184.034 855.739 187.547 855.736C197.4 855.726 210.418 856.269 220.069 855.638L220.693 855.579C220.94 854.872 220.963 853.841 221.036 853.094C221.283 852.233 221.3 852.017 221.834 851.212C224.56 850.204 227.989 850.6 231.322 850.708C234.464 849.7 242.839 849.984 246.852 849.975C246.869 847.899 246.864 845.827 246.83 843.755C247.156 840.655 246.954 831.241 246.071 828.193C244.7 827.65 244.081 827.833 242.12 827.774C241.417 822.35 240.737 820.118 230.749 820.55L230.097 820.671L229.754 816.786C227.039 816.475 224.065 816.344 221.204 816.042C219.557 812.851 210.884 816.006 206.511 814.219Z" fill="#F7F7F7"/>

</g></g></g>
<g transform="translate(250,170) rotate(0)"><g class="cf" style="animation-delay:0.0s"><rect x="-12" y="-17" width="24" height="34" rx="2" fill="#ff5d8f"/></g></g><g transform="translate(330,220) rotate(47)"><g class="cf" style="animation-delay:0.15s"><rect x="-15" y="-21" width="30" height="42" rx="2" fill="#ffd23f"/></g></g><g transform="translate(420,150) rotate(94)"><g class="cf" style="animation-delay:0.3s"><rect x="-18" y="-25" width="36" height="50" rx="2" fill="#45c4ff"/></g></g><g transform="translate(500,210) rotate(141)"><g class="cf" style="animation-delay:0.45s"><rect x="-12" y="-17" width="24" height="34" rx="2" fill="#4fd16b"/></g></g><g transform="translate(580,150) rotate(188)"><g class="cf" style="animation-delay:0.6s"><rect x="-15" y="-21" width="30" height="42" rx="2" fill="#ff9f43"/></g></g><g transform="translate(660,220) rotate(235)"><g class="cf" style="animation-delay:0.75s"><rect x="-18" y="-25" width="36" height="50" rx="2" fill="#9b6bff"/></g></g><g transform="translate(740,160) rotate(282)"><g class="cf" style="animation-delay:0.9s"><rect x="-12" y="-17" width="24" height="34" rx="2" fill="#ff5d8f"/></g></g><g transform="translate(820,205) rotate(329)"><g class="cf" style="animation-delay:1.05s"><rect x="-15" y="-21" width="30" height="42" rx="2" fill="#ffd23f"/></g></g><g transform="translate(300,270) rotate(16)"><g class="cf" style="animation-delay:1.2s"><rect x="-18" y="-25" width="36" height="50" rx="2" fill="#45c4ff"/></g></g><g transform="translate(560,265) rotate(63)"><g class="cf" style="animation-delay:1.35s"><rect x="-12" y="-17" width="24" height="34" rx="2" fill="#4fd16b"/></g></g><g transform="translate(710,150) rotate(110)"><g class="cf" style="animation-delay:1.5s"><rect x="-15" y="-21" width="30" height="42" rx="2" fill="#ff9f43"/></g></g><g transform="translate(470,255) rotate(157)"><g class="cf" style="animation-delay:1.65s"><rect x="-18" y="-25" width="36" height="50" rx="2" fill="#9b6bff"/></g></g>
</svg>