<svg xmlns="http://www.w3.org/2000/svg" viewBox="0 0 1120 1080">
<style>
@keyframes breathe{0%,100%{transform:scale(1)}50%{transform:scale(1.018,.985)}}
@keyframes breatheSlow{0%,100%{transform:scale(1)}50%{transform:scale(1.03,.965)}}
@keyframes bob{0%,100%{transform:translateY(0)}50%{transform:translateY(-13px)}}
@keyframes typebob{0%,100%{transform:translateY(0)}50%{transform:translateY(-4px)}}
@keyframes sway{0%,100%{transform:rotate(-1.2deg)}50%{transform:rotate(1.2deg)}}
@keyframes jbob{0%,100%{transform:translateY(0)}50%{transform:translateY(-7px)}}
@keyframes stretchk{0%{transform:scaleY(1)}30%{transform:scaleY(1.06) scaleX(.97)}100%{transform:scaleY(1)}}
@keyframes shake{0%,100%{transform:translateX(0)}25%{transform:translateX(-15px)}75%{transform:translateX(15px)}}
@keyframes dotpulse{0%,70%,100%{opacity:.18;transform:translateY(0)}30%{opacity:1;transform:translateY(-15px)}}
@keyframes zfloat{0%{opacity:0;transform:translate(0,0) scale(.6)}20%{opacity:.9}100%{opacity:0;transform:translate(40px,-130px) scale(1.15)}}
@keyframes badgePop{0%,100%{transform:translateY(0)}40%{transform:translateY(-16px)}}
@keyframes bktwinkle{0%,100%{opacity:.35;transform:scale(.8)}50%{opacity:1;transform:scale(1.3)}}
@keyframes confettiFall{0%{opacity:0;transform:translateY(-30px) rotate(0deg)}12%{opacity:1}86%{opacity:1}100%{opacity:0;transform:translateY(560px) rotate(560deg)}}
@keyframes jorbit{0%{transform:translate(0,0)}12.5%{transform:translate(150px,-138px)}25%{transform:translate(139px,-315px)}37.5%{transform:translate(68px,-400px)}50%{transform:translate(0,-420px)}62.5%{transform:translate(-68px,-400px)}75%{transform:translate(-139px,-315px)}87.5%{transform:translate(-150px,-138px)}100%{transform:translate(0,0)}}
@keyframes pawtapA{0%,100%{transform:translateY(0)}50%{transform:translateY(-8px)}}
@keyframes pawtapB{0%,100%{transform:translateY(-8px)}50%{transform:translateY(0)}}
@keyframes jpawbob{0%,100%{transform:translateY(0)}50%{transform:translateY(-10px)}}
@keyframes eyescan{0%,100%{transform:translateX(-9px)}50%{transform:translateX(9px)}}
.td{transform-box:fill-box;transform-origin:center;animation:dotpulse 1.5s ease-in-out infinite}
.zz{transform-box:fill-box;transform-origin:center;animation:zfloat 2.7s ease-in infinite}
.bk{transform-box:fill-box;transform-origin:center;animation:bktwinkle 1.6s ease-in-out infinite}
.cf{transform-box:fill-box;transform-origin:center;animation:confettiFall 2.2s linear infinite}
.jb{transform-box:fill-box;transform-origin:center;animation:jorbit 1.3s linear infinite}
.pawA{transform-box:fill-box;transform-origin:center;animation:pawtapA .42s ease-in-out infinite}
.pawB{transform-box:fill-box;transform-origin:center;animation:pawtapB .42s ease-in-out infinite}
.jpaw{transform-box:fill-box;transform-origin:center;animation:jpawbob .65s ease-in-out infinite}
.eye{transform-box:fill-box;transform-origin:center;animation:eyescan 2.8s ease-in-out infinite}
#body-js{transform-origin:496.5px 1000px;animation:breathe 3.6s ease-in-out infinite;}#motion-js{transform-origin:496.5px 1000px;animation:none;}</style>
<g transform="translate(63.5,40.0)"><g id="body-js"><g id="motion-js">

<path d="M293.623 0.348894C310.801 -0.246015 328.568 0.0453173 345.752 0.304115L345.968 15.9768C354.691 16.0094 367.73 17.3669 376.655 18.1563C376.206 22.7162 374.018 35.1238 375.4 37.6898C379.081 39.4273 386.079 38.6428 390.54 38.537C390.664 45.2006 391.06 52.2036 391.374 58.877L404.521 58.606C404.357 66.3317 404.558 74.6661 404.597 82.4406L419.096 82.2787L419.113 97.0782L433.745 97.1669L433.742 135.948C439.831 137.371 442.941 137.337 449.187 137.53C449.136 144.238 448.567 179.072 449.493 182.909C450.696 183.322 451.558 183.655 452.727 184.157C453.586 187.128 453.169 195.426 453.108 198.89L463.944 199.072L463.923 183.25L487.398 183.366L487.504 199.597L501.29 199.749L501.323 216.253C510.088 216.43 518.861 216.057 527.585 215.136L527.927 202.714C538.499 202.774 549.078 202.756 559.65 202.656L559.813 188.318L572.614 188.212C572.24 182.959 572.46 176.742 572.533 171.39L586.018 171.364C585.652 160.545 585.937 148.307 585.961 137.379C594.091 137.083 598.071 136.996 606.136 135.644L606.217 117.073L619.19 116.958L619.271 86.2722L633.212 85.7961L633.253 66.9486L647.755 66.9079L647.828 50.6704L660.842 50.6541L660.809 34.6485C671.511 34.9659 682.31 34.756 693.028 34.655L693.232 17.1349C709.134 16.9404 725.044 16.9689 740.947 17.2187C740.686 28.3519 740.93 39.5169 741.085 50.6549L754.464 50.7892C755.311 90.3885 754.139 130.658 754.823 170.263C762.342 170.709 766.078 172.235 774.582 172.187L774.501 189.738C767.974 189.87 762.359 190.881 755.116 190.92C753.765 201.746 754.546 221.043 754.391 232.994L741.647 232.96C741.988 243.045 741.785 254.163 741.785 264.337L759.201 264.793C759.095 270.648 759.225 276.828 759.266 282.712C752.747 283.588 748.54 284.165 742.021 284.209C742.062 292.301 741.671 294.893 739.693 302.389C749.687 302.424 759.958 303.443 770.326 303.519L770.367 323.129C763.604 323.245 745.927 321.112 741.492 324.494C739.677 329.422 740.703 335.764 740.971 341.329L754.497 341.426L754.473 359.855L741.541 359.845L741.459 373.442L737.602 373.516C727.714 373.766 726.973 368.782 714.09 369.721C714.587 375.67 714.489 383.361 714.579 389.452L728.568 389.69L728.275 414.122C721.39 414.246 697.773 412.407 695.47 417.891L696.251 419.272C698.652 419.432 699.311 419.357 701.623 420.108C702.973 423.569 702.493 431.755 702.469 435.852L715.189 436.487L715.14 459.532C707.287 459.582 688.439 456.92 683.328 462.011C682.058 464.911 682.205 464.822 682.742 467.79C683.897 468.406 684.548 468.725 685.777 469.24L686.811 469.659C688.105 473.283 687.665 484.516 687.641 488.729L700.784 488.8L700.874 509.339L688.349 508.964C688.471 513.025 688.911 516.387 687.714 520.22C683.368 524.199 681.684 518.853 671.649 519.349L670.428 519.414C670.331 528.928 671.096 539.776 671.291 549.501C665.016 549.729 656.398 547.035 653.118 552.797C653.004 555.638 652.597 557.672 653.835 560.179C664.667 561.766 672.976 564.728 682.929 564.435L682.782 593.367C677.761 593.09 672.642 593.285 667.613 593.383L666.709 614.86C673.895 614.681 681.073 615.08 688.259 615.381L688.292 648.723L702.298 648.601C702.176 658.172 702.265 667.913 702.249 677.5C697.179 677.5 691.865 677.761 686.778 677.932C686.705 689.146 686.998 700.312 686.884 711.632C688.642 711.657 696.292 711.714 696.992 712.267C705.057 718.656 704.113 718.102 714.514 717.85L714.717 730.904L763.351 731.14L763.465 747.49C775.461 747.4 784.072 747.058 795.954 749.06L796.092 762.716C820.018 763.091 844.075 762.659 868.067 762.944L868.197 778.586C877.515 778.521 887.322 779.123 896.673 779.53L896.689 792.983C914.284 793.251 932.099 793.186 949.718 793.227L949.751 810.545L964.416 810.749L964.571 823.916L976.55 823.981L976.632 837.776L993.038 837.808C992.843 854.842 992.827 871.875 992.973 888.917L979.659 888.949C979.594 894.223 981.205 899.692 976.827 902.931C973.059 903.598 960.64 901.596 956.091 900.88L956.115 917.938C931.114 918.028 906.113 917.889 881.113 917.523L880.82 901.238C871.436 901.067 859.986 902.036 849.691 901.971L849.731 888.787C837.044 888.282 830.81 886.06 816.674 886.402L816.503 873.682C806.867 873.698 797.231 873.658 787.604 873.56L787.579 858.138C776.763 857.991 765.63 858.138 754.782 858.146L755.018 842.919C737.447 842.325 717.411 842.651 699.702 842.586C699.393 837.491 699.531 832.291 699.572 827.188L670.274 827.131C667.743 827.025 667.434 826.862 664.976 827.66C662.917 830.834 663.592 835.269 663.657 839.338C675.32 839.233 684.483 839.42 696.113 840.144L696.438 853.32C709.5 852.824 712.609 854.435 724.45 855.167L724.564 869.328C735.38 869.035 742.745 868.994 753.423 870.508L753.561 884.457L777.138 884.775C777.089 893.605 775.128 897.601 782.599 902.744C784.234 903.875 783.656 911.444 783.583 913.82C788.662 913.983 793.195 914.333 798.248 914.756C798.248 920.046 798.2 924.587 798.72 929.861L811.416 930.015C811.726 943.053 812.474 955.757 812.311 968.827L799.461 968.819L799.339 983.663C791.681 982.817 785.821 982.239 778.106 982.003L777.878 999.052C752.267 999.598 725.525 999.175 699.84 999.101V982.589L668.052 982.516L668.028 966.41L646.949 966.361L647.023 952.949C637.696 952.77 627.304 953.063 617.904 953.136C617.79 947.513 617.847 941.678 617.831 936.03C610.213 935.997 599.951 937.039 592.708 936.469C583.267 935.728 578.93 934.41 568.977 934.557L569.147 920.518C555.898 920.835 543.121 918.451 530.417 918.288C520.643 918.158 514.206 920.209 502.926 919.655L502.853 904.046L421.623 903.859L421.528 888.006C410.631 888.168 399.734 888.225 388.837 888.176L388.758 869.645C372.18 869.629 354.268 868.929 337.546 868.661L337.622 853.361C331.767 853.19 326.415 853.06 320.562 853.45C312.418 853.987 302.504 856.095 294.446 855.347C293.608 854.679 291.321 852.685 290.391 852.734C277.81 853.336 270.872 856.12 257.737 855.81L257.672 870.158L137.299 870.166C137.14 864.64 137.352 858.944 137.478 853.393C130.288 852.913 120.052 854.842 116.809 852.938C114.929 850.187 115.567 846.28 115.655 842.773C99.4329 842.569 83.2092 842.496 66.9855 842.545C66.9285 837.54 67.1076 832.16 67.1824 827.123L53.7005 827.058C53.5524 820.661 52.3431 814.004 55.3835 808.437C50.9937 805.027 8.9741 808.812 0 809.088L0.196131 789.337L14.6164 789.386L14.5903 773.093C19.9291 772.84 25.6226 772.816 30.9955 772.694L30.8677 760.34L44.5409 760.185L44.8217 748.889L56.6751 748.662C56.7337 744.592 57.5345 731.229 55.4535 728.69C52.5807 725.191 53.4352 719.82 53.5833 714.741C44.0851 714.53 35.7939 714.033 26.0841 714.074C26.0613 707.197 26.2818 700.043 26.3941 693.142L39.8939 693.061L40.1397 681.098C43.9623 681.049 52.7378 681.464 55.539 679.763C57.0901 678.811 58.2189 677.305 58.6942 675.555C59.3843 673.057 59.9247 664.447 58.6079 661.997C56.422 662.086 56.0216 662.322 54.0554 661.509C53.0055 657.635 53.4979 648.992 53.5785 644.557C64.9281 644.158 76.2818 643.914 87.638 643.816L87.2645 628.467L73.7972 628.264L73.8241 611.515L87.5387 611.597C87.533 599.788 89.8207 593.961 89.8695 583.902L105.716 583.951L105.646 568.993L119.136 569.009L119.206 550.266L135.156 550.12L135.382 540.785C141.579 540.696 160.894 542.014 163.854 539.654C164.098 538.531 163.054 523.036 163.019 520.098L191.839 520.285C191.806 524.598 190.731 529.961 195.134 531.947L196.721 530.8C198.628 527.43 198.151 524.159 198.163 520.155L246.397 519.878L246.472 504.081L291.396 504.138L291.369 490.27C300.975 490.422 311.065 489.743 320.75 489.446L320.628 469.268C316.309 469.211 312.912 469.579 308.638 469.971L309.065 458.682L294.627 458.493L295.111 436.516L307.672 436.487C307.633 430.089 307.825 424.358 308.122 417.96L320.414 417.9C320.531 413.982 321.055 407.419 320.14 403.858C316.573 403.091 306.682 404.9 301.837 404.859C295.431 404.804 289.508 404.546 283.099 404.217L283.155 383.085L295.383 383.187C295.483 377.148 297.985 369.654 294.819 365.193C292.358 363.698 271.545 365.565 265.925 365.571L265.955 344.381C273.312 344.307 275.391 343.817 282.203 341.826L282.439 330.72L295.532 330.633C295.322 321.965 295.076 317.896 297.224 309.507C279.169 309.159 264.803 313.811 246.454 313.501L246.545 296.797L261.181 296.584C261.146 288.813 261.523 282.359 262.025 274.642C268.005 274.844 273.179 275.898 277.687 272.093L277.758 270.775C273.204 266.696 268.401 267.632 262.156 267.665L261.984 253.229L246.597 253.29L246.623 232.987C257.253 233.272 266.127 231.17 277.464 231.378L277.39 215.413L262.73 215.228C262.354 188.875 262.639 161.846 262.734 135.448L277.727 135.343C278.712 112.71 277.36 88.2115 277.956 65.386C278.21 55.6803 279.665 47.9669 279.805 38.5842C284.145 38.6689 292.013 39.5616 294.97 36.9037C290.95 28.2347 293.12 10.5006 293.623 0.348894Z" fill="#1B1A1B"/>
<path d="M492.143 217.19C496.912 220.041 495.171 228.635 494.902 234.048C499.704 233.752 509.559 231.852 512.155 236.136C516.045 237.424 525.502 236.964 529.978 236.832L547.012 236.678L546.776 222.297C554.23 222.154 568.887 223.31 575.357 221.987C576.171 220.086 576.757 218.969 577.945 217.277C580.232 220.896 579.386 229.956 579.223 234.52C590.592 234.297 600.505 234.938 611.841 235.512C611.898 241.194 612.085 247.359 611.931 252.995L628.997 253.174C628.932 258.215 628.94 263.453 628.761 268.471C634.726 268.529 640.805 268.654 646.771 268.627L646.95 282.159C651.996 282.186 658.474 281.443 662.405 284.244C665.391 285.15 675.385 284.734 679.104 284.689C679.129 294.443 678.25 303.818 678.274 313.408C672.537 313.432 666.579 313.372 660.858 313.51L660.687 330.017C665.513 329.923 672.293 329.605 676.964 329.911C677.078 339.364 677.062 350.487 676.712 359.868C681.253 359.705 686.079 359.192 690.4 360.282C690.693 360.752 691.491 361.973 691.67 362.426L691.434 374.648C693.737 377.478 700.036 376.746 703.682 376.753C703.649 381.874 703.023 387.379 704.602 392.003C706.132 393.384 706.294 393.232 708.337 393.784C712.886 392.903 716.418 393.063 721 393.07L720.74 406.061L708.638 406.15C705.847 406.224 695.503 406.727 693.542 405.288C689.114 402.029 681.066 398.11 677.973 405.411C679.137 410.576 678.811 416.443 678.787 421.788C682.815 421.874 687.186 421.89 691.182 422.062C691.165 427.861 691.043 433.787 691.458 439.556L704.569 439.631V451.534L677.175 450.857L677.127 438.681L663.357 438.701C663.715 448.192 665.009 463.385 664.732 472.036L675.816 472.122L675.93 473.145C677.094 484.311 671.397 491.435 684.752 492.256L687.991 492.473C690.84 495.985 689.529 500.374 689.546 505.11C685.664 505.273 679.446 505.867 675.898 504.947C672.488 503.198 664.138 503.792 659.963 503.873C659.931 508.805 660.126 513.9 659.247 518.717C658.986 515.112 659.174 509.895 659.19 506.168C654.6 506.168 650.018 506.014 645.444 505.704C642.059 508.878 642.213 517.448 644.199 521.468C638.519 521.086 630.665 518.872 629.013 525.252C629.103 528.174 629.664 537.134 628.46 539.291C628.093 549.13 628.142 557.675 628.329 567.515C623.064 567.254 617.636 567.124 612.444 566.294C612.313 571.34 612.069 576.743 612.216 581.749C606.869 581.895 601.221 582.188 595.898 581.871C595.434 586.851 595.654 591.636 595.76 596.633C589.591 595.665 585.872 595.567 579.589 595.413C573.062 595.551 570.816 595.103 565.355 598.709L565.331 605.154L565.575 613.447C561.05 612.861 551.048 613.113 546.108 613.097L545.962 597.911L528.408 598.001L527.488 597.846C529.083 592.149 528.937 586.99 529.197 581.122C508.143 581.049 482.822 580.202 461.947 581.317C459.469 582.505 451.397 581.716 448.072 581.569L448.258 595.893L448.459 596.495C448.704 602.167 448.708 607.002 448.603 612.682C443.512 614.22 436.414 613.773 430.925 613.748L430.518 614.18L430.447 630.684L422.461 629.789C418.59 631.465 416.529 632.531 412.24 631.539C410.716 630.302 400.875 630.179 397.835 629.943L397.786 615.36C400.327 610.013 399.088 604.886 398.459 599.01C402.071 598.888 409.719 599.034 411.984 596.755C411.735 594.306 411.818 592.133 411.848 589.683C411.851 585.972 412.394 586.379 410.828 583.555C407.199 581.879 401.451 582.652 397.176 582.603C397.691 577.313 397.697 575.596 397.412 570.371L396.54 569.134C394.537 568.158 385.877 569.183 382.34 569.289C382.883 564.837 383.112 555.918 381.614 551.735L380.401 551.295C379.072 552.915 378.328 560.565 377.279 563.625C373.365 564.56 368.726 566.188 364.828 567.433C364.659 559.865 364.011 544.801 365.438 538.201C364.946 531.413 366.08 526.335 365.985 520.467C365.15 515.763 365.275 509.961 365.189 505.094L348.253 505.314C347.498 510.042 347.939 515.861 348.087 520.744L333.563 520.964C333.896 509.684 336.598 502.962 336.497 491.522L349.03 491.697C349.052 485.104 348.67 478.436 348.365 471.843L358.543 471.543L358.941 454.654L357.169 453.474C353.006 453.082 352.269 453.522 348.114 454.689C341.821 455.338 327.331 454.501 320.189 454.222L320.132 439.578C326.16 439.584 329.976 439.589 335.926 438.851C335.467 433.661 335.493 429.177 335.488 423.975L348.45 423.782C348.282 416.994 348.203 412.107 348.707 405.374C348.894 401.348 348.485 395.303 348.31 391.091C343.365 391.742 316.066 394.661 313.43 391.027C316.333 389.23 317.92 389.399 321.443 389.05L321.707 375.763L335.568 375.054C335.607 370.817 334.359 360.997 337.701 358.756C340.871 359.068 346.214 358.784 349.56 358.707C349.462 349.954 350.837 339.517 350.967 329.798L366.036 329.434C365.623 322.353 365.857 305.278 367.194 298.629C361.903 298.952 356.504 298.852 351.198 298.844C350.567 293.633 350.694 288.499 350.69 283.251C355.809 282.51 360.992 282.628 366.171 282.587C366.115 278.309 365.226 275.122 366.292 271.058C368.385 268.498 367.756 269.311 371.944 268.53C375.077 268.794 382.209 268.588 385.626 268.579L385.589 253.909L413.584 253.696C413.401 248.023 413.486 242.028 413.477 236.325C417.622 236.385 426.169 237.271 428.816 234.458C432.635 232.964 441.452 233.587 445.867 233.695L445.876 218.137C455.237 217.932 476.152 221.952 481.021 218.248C482.889 217.21 489.14 217.446 492.143 217.19Z" fill="#585858"/>
<path d="M454.693 471.643L455.381 469.332C461.316 467.48 510.36 468.401 518.351 468.853L518.962 486.066C522.852 486.098 531.015 485.949 534.522 486.392C547.234 486.049 559.434 487.138 571.535 486.765L571.836 503.992L589.09 503.943L589.13 521.864L604.878 521.945L604.788 536.724C609.15 536.586 617.077 535.626 620.308 537.929C619.942 547.768 619.991 556.313 620.178 566.152C614.912 565.892 609.484 565.762 604.292 564.932C604.162 569.977 603.918 575.381 604.064 580.386C598.717 580.533 593.069 580.826 587.747 580.508C587.283 585.489 587.503 590.274 587.608 595.271C581.44 594.303 577.72 594.205 571.438 594.05C564.911 594.189 562.665 593.741 557.204 597.346L557.179 603.792L557.423 612.085C552.899 611.499 542.897 611.751 537.957 611.735L537.81 596.549L520.256 596.638L519.336 596.484C520.931 590.787 520.785 585.627 521.045 579.76C499.992 579.686 474.67 578.84 453.795 579.955C451.317 581.143 443.245 580.354 439.92 580.207L440.107 594.531L440.308 595.133C440.552 600.805 440.556 605.639 440.451 611.32C435.36 612.858 428.262 612.41 422.773 612.386L422.366 612.817L422.295 629.322L414.309 628.427C410.439 630.103 408.377 631.169 404.088 630.176C402.565 628.939 392.723 628.817 389.684 628.581L389.635 613.997C392.175 608.65 390.936 603.523 390.307 597.648C393.919 597.525 401.567 597.672 403.832 595.393C403.583 592.944 403.666 590.771 403.696 588.321C403.699 584.61 404.242 585.017 402.676 582.193C399.047 580.516 393.299 581.29 389.024 581.241C389.539 575.951 389.545 574.234 389.26 569.009L388.388 567.772C386.386 566.795 377.725 567.821 374.188 567.926C374.732 563.475 374.961 554.555 373.462 550.372L372.25 549.933C370.92 551.552 370.177 559.202 369.127 562.262C365.213 563.198 360.574 564.826 356.676 566.071C356.508 558.502 355.859 543.438 357.287 536.838C358.31 532.085 358.07 527.023 358.097 522.116L373.432 522.246C373.299 516.281 373.387 510.031 373.384 504.041L389.664 503.805L389.675 489.398C394.103 489.49 400.927 490.08 404.782 488.725L405.857 486.311L414.512 486.281C422.298 487.32 430.743 486.774 438.597 486.293C440.799 484.789 451.74 485.341 455.049 485.373C455.112 480.402 454.991 476.598 454.693 471.643Z" fill="#B2ACA9"/>
<path d="M534.527 486.391C547.239 486.048 559.438 487.137 571.54 486.764L571.841 503.991L589.094 503.942L589.135 521.863L604.882 521.944L604.793 536.723C609.155 536.585 617.082 535.625 620.313 537.928C619.946 547.767 619.995 556.312 620.182 566.151C614.917 565.891 609.489 565.761 604.296 564.931C604.166 569.976 603.922 575.38 604.069 580.385C598.722 580.532 593.074 580.825 587.751 580.507C587.287 585.488 587.507 590.273 587.613 595.27C581.444 594.302 577.725 594.204 571.442 594.049C564.915 594.188 562.669 593.74 557.208 597.345L557.184 603.791L557.428 612.084C552.903 611.498 542.901 611.75 537.961 611.734L537.815 596.548L520.26 596.637L519.341 596.483C520.936 590.786 520.789 585.626 521.05 579.759C523.06 577.285 522.36 568.992 522.327 565.419C518.861 561.049 515.296 561.504 509.908 561.586C504.269 561.659 498.718 561.757 493.07 561.749L493.217 537.309C501.941 536.585 509.168 536.593 517.876 536.601C517.729 530.978 517.729 525.183 517.664 519.543L533.827 519.576C533.77 508.711 534.73 498.286 534.527 486.391Z" fill="#968E89"/>
<path d="M535.327 565.085L538.355 565.452L552.458 565.492C552.369 569.049 551.783 577.789 552.955 580.548L556.064 582.241C557.138 589.809 555.405 596.198 557.187 603.791L557.431 612.084C552.906 611.498 542.904 611.75 537.964 611.734L537.818 596.548L520.263 596.638L519.344 596.483C520.939 590.786 520.792 585.626 521.053 579.759C523.063 577.285 522.363 568.992 522.33 565.419C525.602 564.963 531.803 565.118 535.327 565.085Z" fill="#B3ACA7"/>
<path d="M553.606 564.28C553.639 554.318 550.131 537.521 552.117 530.343C553.891 531.336 554.2 533.688 555.161 536.162C557.773 537.741 567.71 537.651 571.274 537.797C571.266 542.534 571.087 546.864 570.868 551.584C569.598 556.898 571.315 562.383 569.069 565.346L553.606 564.28Z" fill="#B3ACA7"/>
<path d="M569.07 565.347C571.316 562.384 569.599 556.899 570.869 551.585C571.089 556.297 571.235 561.025 571.316 565.746C577.371 565.599 581.522 565.404 587.512 566.315C588.073 571.516 588.439 575.194 587.748 580.508C587.284 585.489 587.504 590.274 587.609 595.271C581.441 594.303 577.721 594.205 571.439 594.051C571.349 589.778 571.219 586.091 570.901 581.811C569.274 576.936 571.935 568.936 569.07 565.347Z" fill="#B3ACA7"/>
<path d="M570.867 551.583C576.67 551.851 581.903 551.298 587.543 551.355L587.51 566.313C581.52 565.401 577.37 565.597 571.315 565.743C571.233 561.023 571.087 556.295 570.867 551.583Z" fill="#B3ACA7"/>
<path d="M556.989 581.833C561.726 581.662 566.177 581.736 570.906 581.809C571.223 586.09 571.353 589.776 571.443 594.049C564.916 594.187 562.67 593.74 557.209 597.345C556.875 592.885 557.022 586.448 556.989 581.833Z" fill="#3C3735"/>
<path d="M535.32 565.086C535.336 560.52 535.002 556.419 536.427 552.13C538.494 554.457 538.266 562.026 538.347 565.452L535.32 565.086Z" fill="#B3ACA7"/>
<path d="M421.464 551.942L438.582 551.169C438.455 556.068 438.172 560.243 439.883 564.833C440.222 570.196 440.342 574.265 440.272 579.637C443.685 579.677 450.711 579.588 453.802 579.954C451.324 581.142 443.252 580.353 439.927 580.206L440.114 594.53L440.315 595.132C440.559 600.804 440.563 605.638 440.458 611.319C435.367 612.857 428.269 612.41 422.78 612.385L422.373 612.817L422.302 629.321L414.316 628.426C410.446 630.102 408.384 631.168 404.095 630.175C402.572 628.938 392.73 628.816 389.69 628.58L389.642 613.997C392.182 608.65 390.943 603.523 390.314 597.647C393.926 597.525 401.574 597.671 403.839 595.392C403.59 592.943 403.673 590.77 403.703 588.32C403.706 584.609 404.249 585.016 402.683 582.192C399.054 580.516 393.306 581.289 389.031 581.24C389.546 575.95 389.552 574.233 389.267 569.008C390.474 566.591 389.614 567.494 391.879 566.151C396.261 565.972 399.717 565.769 404.12 566.07L404.407 566.542C420.972 566.998 421.693 568.634 421.464 551.942Z" fill="#B3ACA7"/>
<path d="M403.83 595.393C404.937 598.168 404.46 607.812 404.415 611.401L421.67 611.482L421.732 602.741C423.222 604.923 422.765 609.496 422.771 612.385L422.364 612.817L422.293 629.321L414.307 628.426C410.437 630.102 408.375 631.169 404.086 630.176C402.563 628.939 392.721 628.817 389.682 628.581L389.633 613.997C392.174 608.65 390.934 603.523 390.305 597.647C393.918 597.525 401.565 597.671 403.83 595.393Z" fill="#3C3735"/>
<path d="M404.46 612.304C409.93 612.304 417.113 612.085 422.373 612.817L422.302 629.321L414.316 628.426C411.107 628.451 407.381 628.768 404.133 628.955L404.46 612.304Z" fill="#1B1A1B"/>
<path d="M421.586 594.619L440.315 595.132C440.559 600.804 440.563 605.638 440.458 611.319C435.367 612.857 428.269 612.409 422.78 612.385C422.774 609.496 423.231 604.922 421.741 602.741L421.586 594.619Z" fill="#3C3735"/>
<path d="M422.279 581.339L439.284 580.175C439.261 584.716 438.897 590.307 440.118 594.531L440.319 595.133L421.59 594.62C421.491 590.934 422.034 585.172 422.279 581.339Z" fill="#968E89"/>
<path d="M391.879 566.152C396.261 565.973 399.717 565.77 404.12 566.071L404.407 566.543C404.441 571.922 404.859 583.764 403.703 588.321C403.706 584.61 404.249 585.017 402.683 582.193C399.054 580.516 393.306 581.289 389.031 581.241C389.546 575.951 389.552 574.233 389.267 569.009C390.474 566.592 389.614 567.495 391.879 566.152Z" fill="#968E89"/>
<path d="M404.416 521.236L420.695 521.228C421.506 532.051 419.799 541.72 420.121 552.129L404.84 552.357L404.112 566.07C399.709 565.768 396.253 565.972 391.871 566.151L390.209 565.305C388.599 559.543 389.412 544.739 389.109 537.415L403.707 537.089C404.158 531.36 404.409 526.973 404.416 521.236Z" fill="#B3ACA7"/>
<path d="M566.023 307.788C572.629 307.342 579.58 306.445 586.188 305.705C587.912 319.261 587.612 313.17 582.586 324.948C582.285 325.651 583.332 334.017 583.559 335.738L619.046 331.587C619.557 335.323 619.559 345.156 620.412 346.757C622.778 347.66 633.07 345.869 636.458 345.484C638.238 356.542 635.852 363.449 637.502 376.471C640.913 376.069 650.727 374.472 653.198 375.98L653.574 377.183L654.81 389.486C648.156 390.698 632.719 391.625 625.132 392.318L623.411 377.129L607.236 378.718C606.006 373.41 605.496 368.79 604.821 363.392C591.796 365.197 580.899 363.747 567.028 365.147C551.984 366.667 552.721 370.142 539.287 371.12C536.996 361.995 538.025 352.685 536.526 342.262L551.63 340.689L549.29 324.614L568.511 322.581C567.242 317.748 566.699 312.745 566.023 307.788Z" fill="#939393"/>
<path d="M650.578 375.111L652.491 372.776C655.567 371.131 677.809 372.963 683.286 373.285C685.589 376.115 691.888 375.383 695.534 375.39C695.501 380.51 694.875 386.016 696.454 390.64C697.984 392.02 698.146 391.869 700.189 392.421C704.738 391.539 708.27 391.7 712.852 391.707L712.592 404.698L700.49 404.787C697.699 404.861 687.355 405.364 685.394 403.925C680.966 400.666 672.918 396.747 669.825 404.048L668.295 403.268C665.732 403.208 663.673 403.419 661.378 402.345C659.669 399.89 658.781 394.398 656.519 390.335L655.909 389.244C651.351 385.656 656.364 381.685 650.822 376.348L650.578 375.111Z" fill="#3C3735"/>
<path d="M700.195 392.42C704.745 391.539 708.277 391.699 712.859 391.706L712.598 404.698L700.496 404.786C700.472 400.663 700.374 396.54 700.195 392.42Z" fill="#3C3735"/>
<path d="M655.906 389.243C659.821 388.348 664.704 388.612 668.724 388.97C668.854 392.828 669.489 399.951 668.293 403.268C665.729 403.208 663.67 403.419 661.375 402.344C659.666 399.89 658.779 394.398 656.517 390.335L655.906 389.243Z" fill="#3C3735"/>
<path d="M622.283 471.53C621.038 469.892 620.2 468.733 619.093 467.003C618.962 463.15 618.311 456.572 620.574 453.684C622.731 452.644 631.731 453.485 635.296 453.504C635.296 469.19 633.807 470.789 650.393 471.479C650.246 479.682 650.091 481.513 652.289 489.122C657.774 488.721 661.998 488.819 667.491 488.94C667.45 482.766 667.442 476.926 667.67 470.758L667.784 471.781C668.948 482.948 663.251 490.072 676.606 490.893L679.845 491.11C682.693 494.622 681.383 499.011 681.4 503.747C677.518 503.91 671.3 504.504 667.752 503.584C664.342 501.834 655.992 502.429 651.817 502.51C651.784 507.442 651.98 512.536 651.101 517.354C650.84 513.749 651.027 508.532 651.044 504.805C646.454 504.805 641.872 504.65 637.298 504.341L636.395 503.316C636.696 493.927 636.395 481.34 635.54 472.11C631.496 471.564 626.442 471.619 622.283 471.53Z" fill="#3C3735"/>
<path d="M676.607 490.893L679.846 491.11C682.695 494.622 681.384 499.011 681.401 503.748C677.519 503.91 671.301 504.504 667.753 503.585C667.631 500.614 666.499 494.611 667.712 492.341C670.088 490.541 673.466 490.943 676.607 490.893Z" fill="#585858"/>
<path d="M430.79 471.406L454.697 471.641C454.995 476.596 455.116 480.4 455.053 485.372C451.743 485.339 440.803 484.787 438.601 486.291C430.747 486.772 422.302 487.318 414.516 486.279C417.489 486.228 417.854 486.609 420.273 485.304C421.701 481.6 419.504 475.71 418.457 471.501C422.865 471.64 426.403 471.563 430.79 471.406Z" fill="#726A68"/>
<path d="M358.226 421.296C362.706 421.527 367.189 421.695 371.675 421.802C371.764 428.595 371.751 430.718 373.885 437.389C368.556 437.376 362.979 436.635 358.312 438.297C356.63 440.37 357.136 440.04 356.604 443.054C356.412 439.82 357.061 440.924 355.52 438.74C351.611 437.498 345.71 438.158 340.688 437.863C346.225 437.193 351.504 437.301 357.074 437.287C357.343 431.987 357.483 426.533 358.226 421.296Z" fill="#3C3735"/>
<path d="M340.693 437.864C345.715 438.16 351.616 437.5 355.525 438.742C357.066 440.925 356.418 439.822 356.609 443.056C356.521 446.491 357.007 450.665 355.437 453.223C353.237 453.866 353.119 453.646 350.795 453.291L349.023 452.111C344.861 451.72 344.123 452.16 339.969 453.326C340.033 449.082 339.926 441.789 340.693 437.864Z" fill="#3C3735"/>
<path d="M636.398 503.316L637.301 504.342C633.916 507.516 634.07 516.085 636.056 520.106C630.376 519.723 622.522 517.51 620.87 523.89C620.756 522.979 621.204 506.71 621.171 504.122C626.347 504.138 631.385 504.456 636.398 503.316Z" fill="#524B49"/>
<path d="M341.725 490.533C347.881 489.837 351.199 489.548 357.36 489.62C357.425 498.831 358.416 510.509 357.833 519.103C356.998 514.4 357.124 508.597 357.037 503.73L340.102 503.95C344.306 501.069 342.345 495.362 341.725 490.533Z" fill="#3C3735"/>
<path d="M406.832 470.168C413.483 470.298 424.61 470.163 430.789 471.407C426.402 471.564 422.864 471.641 418.456 471.502C419.503 475.711 421.7 481.601 420.272 485.305C417.853 486.611 417.487 486.229 414.514 486.28L405.859 486.31C405.926 481.662 406.565 475.021 406.832 470.168Z" fill="#585858"/>
<path d="M504.007 234.773C507.897 236.062 517.354 235.602 521.83 235.47C519.429 238.937 520.007 243.923 519.942 248.346C515.189 247.966 508.377 248.53 503.445 248.794C503.543 244.117 503.73 239.443 504.007 234.773Z" fill="#3C3735"/>
<path d="M340.172 389.728C344.742 388.879 351.158 389.022 355.853 389.359C354.646 403.565 354.945 403.968 340.568 404.011C340.755 399.985 340.346 393.94 340.172 389.728Z" fill="#3C3735"/>
<path d="M426.612 314.804C430.128 314.699 435.829 315.023 439.494 315.123L438.869 329.489C444.43 329.931 450.225 329.989 455.821 330.13L455.464 345.542C461.57 345.615 467.676 345.738 473.781 345.911C473.441 353.143 474.963 369.609 472.26 373.635C467.281 377.176 460.328 375.775 453.949 375.398L454.28 360.835C437.993 361.021 419.542 360.014 403.056 359.596C403.077 364.671 402.833 369.798 402.653 374.875C394.891 374.65 387.126 374.498 379.361 374.417C377 374.293 375.444 373.923 373.427 375.072C368.524 384.499 380.678 390.854 355.854 390.386C356.013 385.076 356.471 379.405 356.811 374.075L371.969 374.331L372.277 358.821L389.25 359.781L389.609 344.071L400.621 344.626L400.974 328.79C406.24 329.063 398.689 328.977 402.955 329.9L404.069 331.997C407.842 334.628 418.071 335.175 421.286 331.441L420.872 329.892C419.624 329.516 418.383 329.122 417.148 328.706C415.914 325.322 416.315 319.19 416.321 315.336L426.612 314.804Z" fill="#939393"/>
<path d="M372.735 453.696L389.845 453.629C389.782 459.257 389.626 465.127 389.663 470.732L373.765 470.736L372.853 470.265C372.563 464.214 372.543 459.753 372.735 453.696Z" fill="#3C3735"/>
<path d="M372.867 470.267L373.779 470.737C373.282 474.954 373.379 484.515 373.289 489.134L357.762 489.457C357.636 483.272 357.968 476.942 358.207 470.747C363.508 471.063 367.73 471.67 372.867 470.267Z" fill="#3C3735"/>
<path d="M600.898 485.528C609.541 488.25 611.934 487.639 620.935 487.072C620.398 493.749 619.69 496.732 620.699 503.455C615.905 503.78 610.323 503.821 605.456 503.975C605.366 499.125 605.488 494.546 604.601 489.785C603.503 488.864 602.453 488.312 601.159 487.701L600.898 485.528Z" fill="#3C3735"/>
<path d="M302.628 524.393C302.518 518.427 301.68 513.365 305.382 508.653L306.375 508.458C309.722 512.633 308.988 516.328 308.881 521.609L322.851 521.593L322.829 536.682L338.246 536.625C337.98 544.608 337.625 552.364 338.043 560.364C338.429 567.737 340.224 572.718 340.015 580.116C344.864 580.295 352.232 581.174 356.301 579.334C356.942 580.392 359.186 609.169 359.164 612.205C371.139 612.319 375.552 614.565 389.64 613.995L389.689 628.579C392.728 628.815 402.57 628.937 404.093 630.174C404.278 635.489 404.471 638.907 405.185 644.172C410.428 644.457 415.891 644.831 421.116 645.01L421.465 661.442C428.251 661.214 432.679 661.002 439.384 661.702C439.494 667.073 439.735 672.933 439.454 678.247C448.953 678.548 457.688 678.296 467.273 677.808C468.554 677.743 470.045 678.833 471.064 679.647C474.263 685.564 471.973 690.471 471.07 697.315L487.806 697.226C488.302 704.021 486.088 708.888 486.243 712.314C490.857 710.214 491.028 712.2 495.879 711.785C506.817 710.849 503.936 722.479 503.667 729.356C505.002 735.126 503.374 769.51 503.529 778.56C508.688 777.876 512.131 777.071 517.185 778.34C518.072 779.536 518.324 779.96 519.081 781.221L519.594 776.859C524.908 776.452 546.678 777.209 551.764 778.145L552.09 793.135C557.559 793.144 564.737 792.948 569.986 793.64C563.874 794.267 558.21 794.128 552.074 794.096C552.074 799.548 552.236 804.92 551.455 810.307C555.475 811.129 579.492 811.854 584.716 811.837C584.757 815.581 584.586 823.288 585.514 826.486L586.596 827.422C587.223 831.638 586.873 836.626 586.751 840.956L569.97 841.135L570.32 855.678L551.008 855.727C550.91 866.697 552.814 873.11 552.188 884.927L533.673 884.919L533.803 899.853C530.385 898.624 519.74 898.478 515.541 898.266C515.834 892.854 516.29 888.752 517.014 883.365C490.076 883.283 462.045 882.844 435.189 883.381L435.03 869.692C424.808 869.302 414.576 869.212 404.347 869.424C404.634 859.259 404.402 848.744 404.316 838.555L390.485 838.417C390.385 829.88 390.675 817.217 389.533 809.152C374.159 808.159 374.878 811.113 374.949 792.875C370.485 793.209 363.234 793.062 358.556 793.111C358.596 797.88 358.414 805.831 359.256 810.218C363.742 811.129 367.268 811.023 371.799 811.072C371.545 815.898 371.307 820.244 370.785 825.046C370.688 834.942 373.358 841.697 373.255 850.608L351.628 849.892L351.773 837.074C342.5 837.473 335.488 837.571 326.186 837.294C325.414 831.54 324.349 828.724 325.495 822.987C320.037 823.044 297.823 822.564 294.308 824.411C294.27 828.993 295.17 833.078 294.012 837.221C286.885 837.058 281.409 836.789 274.285 837.701C274.271 832.468 274.179 827.992 273.855 822.775C270.027 823.28 262.109 823.174 257.932 823.223L257.865 810.031C242.983 810.177 243.122 806.026 228.461 806.735L228.245 793.974L242.893 793.843L243.292 776.737L258.717 776.655C258.694 772.594 257.746 768.932 259.892 765.823C267.569 761.087 265.182 753.168 264.711 744.965L250.415 745.006L249.924 729.388L263.285 728.851L262.834 713.925L280.507 714.137C280.378 703.883 281.222 690.91 281.545 680.412C275.544 679.85 269.086 680.363 263.033 680.664C262.998 683.228 262.967 699.692 260.13 700.4C255.211 701.629 246.178 701.303 241.346 699.732C240.988 698.634 242.827 685.856 242.626 681.755L242.543 680.249C247.872 679.924 253.835 680.111 259.226 680.168C258.665 660.791 257.176 660.148 277.199 660.221C277.012 648.656 279.849 641.47 279.838 630.614C273.965 630.85 267.831 630.825 261.93 630.874L261.468 643.79L241.457 644.107C241.498 641.088 241.31 636.766 241.188 633.796C240.808 624.559 242.29 628.18 245.954 624.347C247.438 619.969 246.757 615.599 246.501 610.887C244.375 610.781 236.408 610.341 234.883 610.821C225.181 613.881 225.228 615.346 214.769 614.785L214.743 628.929L226.153 629.076C226.441 637.678 226.562 644.498 226.255 653.149L244.72 652.962L245.135 664.257C239.193 665.34 236.294 665.267 230.263 665.283C230.048 677.824 226.601 678.565 227.05 694.231C224.918 696.143 224.194 696.233 224.235 700.066C224.283 704.713 224.275 708.839 224.137 713.478C231.099 714.218 238.255 713.649 245.329 714.031C244.169 719.28 243.263 723 242.858 728.371L229.961 728.517C229.872 734.434 229.897 740.749 229.682 746.625C234.496 746.177 237.636 745.828 242.53 746.072C242.771 750.938 242.967 755.813 243.116 760.68L226.825 760.371L226.974 776.777C221.962 777.046 217.068 777.347 212.045 777.347C211.987 782.604 211.817 788.309 212.071 793.518C202.068 793.567 192.064 793.526 182.061 793.404C182.445 800.818 182.454 806.572 182.258 814.01C195.877 813.701 211.729 813.245 225.32 813.481L225.326 826.291L240.717 826.413C242.858 827.886 243.297 827.862 245.889 828.065C248.331 833.046 241.738 837.603 240.721 843.577C240.679 847.117 241.289 847.76 239.681 850.185C232.489 851.08 217.679 850.527 209.975 850.494C190.108 850.274 170.239 850.356 150.375 850.746C150.357 844.944 150.688 841.786 151.386 836.008C143.88 835.91 137.559 836.097 130.054 836.48C129.612 831.752 129.643 826.169 129.55 821.343C113.338 821.343 96.7232 822.018 80.4466 822.303C80.436 816.191 81.5583 813.204 76.598 809.705C72.7168 806.962 73.9262 797.294 74.08 792.647L86.8254 792.289C86.5886 785.607 86.591 783.011 88.1487 776.639C82.451 776.712 76.7526 776.688 71.0566 776.566C71.0599 780.44 71.2999 784.712 71.4326 788.619C62.946 788.489 60.4736 785.03 54.8126 792.851C47.8519 792.598 40.4599 792.753 33.461 792.786L33.3438 780.952C36.8229 781.026 40.5657 781.424 43.5866 779.813C48.7976 777.022 49.3876 776.582 55.3245 777.266L55.0706 762.894C61.7505 762.869 68.0129 763.284 74.6627 763.691C74.4877 752.257 74.4373 740.814 74.5113 729.38L87.8719 729.518C87.8508 723.83 87.9615 718.035 88.0152 712.33L71.5937 712.347L71.7362 701.791C66.653 701.669 50.0248 703.891 48.6877 698.65C50.5294 697.25 54.0142 697.478 56.5346 697.364C58.8532 694.654 56.4573 694.678 57.897 690.153C60.6315 689.307 69.0212 689.511 72.3945 689.478L72.458 679.704C77.8749 679.5 83.5098 679.085 88.9413 678.776C89.8837 665.153 88.82 664.672 87.0874 651.301C92.3757 651.358 98.0155 652.099 102.519 649.82C106.336 645.613 105.017 638.728 104.835 632.697L119.383 632.917C119.417 628.473 119.296 623.81 119.246 619.342C113.682 619.342 99.0776 621.059 95.4056 618.61C95.0939 616.445 94.9433 616.494 95.6717 614.476C98.311 613.011 102.002 613.532 105.162 613.613C105.207 609.161 105.431 604.465 105.578 599.998C110.576 599.957 115.792 599.631 120.808 599.395C120.572 594.887 120.467 590.191 120.307 585.666C125.835 585.878 131.3 585.837 136.83 585.829C136.602 580.441 136.123 574.753 135.758 569.341C140.875 569.178 145.929 569.568 151.041 569.861L150.704 557.288C156.045 557.215 164.455 558.533 169.178 556.246C170.252 555.733 170.349 553.748 170.717 552.242C171.201 548.336 171.503 544.446 171.84 540.523C174.799 540.311 177.662 539.839 180.427 540.791C181.829 542.68 181.29 547.888 182.414 551.436C185.765 551.656 195.029 551.388 197.18 552.283C197.505 553.715 197.813 554.96 198.208 556.376C202.634 558.761 211.642 558.093 214.391 553.308C214.65 547.904 210.395 546.643 212.781 539.017C226.336 538.464 246.014 539.221 260.471 539.107C260.156 534.281 259.727 529.146 259.519 524.336C273.888 524.499 288.259 524.515 302.628 524.393Z" fill="#585858"/>
<path d="M206.511 814.218C202.762 813.96 198.828 814.064 195.034 814.094C191.982 814.091 177.395 814.323 176.063 814.212L174.141 814.588L173.393 815.42C168.756 816.061 166.339 814.893 161.702 814.627C159.538 814.503 156.958 814.487 154.766 814.483C154.625 816.231 154.771 820.572 153.113 821.606L151.815 822.16C151.225 824.575 151.764 826.667 151.663 829.07C147.577 829.086 142.838 829.04 138.808 829.161C138.51 832.117 138.595 842.478 137.853 844.167C137.42 846.618 137.341 847.81 137.459 850.272C144.142 850.02 150.651 849.725 157.11 850.962L157.076 855.863L175.248 855.849C178.34 856.036 184.034 855.738 187.547 855.735C197.4 855.725 210.418 856.268 220.069 855.637L220.693 855.578C220.94 854.871 220.963 853.84 221.036 853.093C221.283 852.232 221.3 852.016 221.834 851.211C224.56 850.203 227.989 850.599 231.322 850.707C234.464 849.699 242.839 849.984 246.852 849.974C246.869 847.898 246.864 845.826 246.83 843.754C247.156 840.654 246.954 831.24 246.071 828.192C244.7 827.649 244.081 827.832 242.12 827.773C241.417 822.349 240.737 820.117 230.749 820.549L230.097 820.67L229.754 816.785C227.039 816.474 224.065 816.343 221.204 816.041C219.557 812.85 210.884 816.005 206.511 814.218Z" fill="#F7F7F7"/>
<path d="M276.181 807.565C284.826 806.996 299.325 806.239 307.284 809.738C309.075 813.083 306.973 817.868 308.436 822.011C313.929 822.06 320.217 821.848 325.492 822.987C320.034 823.044 297.82 822.564 294.305 824.412C294.266 828.993 295.167 833.079 294.008 837.221C286.882 837.058 281.406 836.79 274.282 837.701C274.267 832.468 274.176 827.992 273.852 822.776L275.5 821.913C276.997 819.065 276.314 811.26 276.181 807.565Z" fill="#3C3735"/>
<path d="M276.664 808.551C282.21 808.323 291.62 806.557 294.672 811.904C294.11 816.502 293.562 816.746 296.041 820.002C299.703 821.841 304.215 821.719 308.438 822.012C313.93 822.06 320.219 821.849 325.494 822.988C320.035 823.045 297.821 822.565 294.306 824.413C294.268 828.994 295.168 833.08 294.01 837.222C292.954 832.201 292.812 829.336 292.482 824.225C287.735 823.916 282.992 823.542 278.255 823.086C278.325 817.218 278.441 814.166 276.664 808.551Z" fill="#3C3735"/>
<path d="M519.078 781.222L519.591 776.86C524.905 776.453 546.675 777.21 551.762 778.146L552.087 793.136C557.556 793.144 564.734 792.949 569.983 793.641C563.871 794.268 558.207 794.129 552.071 794.097C552.071 799.549 552.234 804.921 551.452 810.308C548.173 808.591 540.84 809.25 536.86 809.323C536.966 804.139 536.502 799.037 536.144 793.869C530.529 793.771 524.913 793.625 519.306 793.429C519.412 789.425 519.2 785.242 519.078 781.222Z" fill="#3C3735"/>
<path d="M359.416 779.098C369.269 778.146 379.845 777.812 389.737 777.657C389.802 783.028 389.853 786.911 389.358 792.274C385.196 792.241 378.764 791.867 374.947 792.876C370.483 793.21 363.233 793.063 358.555 793.112C359.244 787.537 359.431 784.705 359.416 779.098Z" fill="#3C3735"/>
<path d="M486.25 712.316C490.864 710.216 491.035 712.202 495.886 711.787C506.824 710.851 503.943 722.481 503.674 729.357L487.218 729.52C487.121 723.164 486.909 718.615 486.25 712.316Z" fill="#3C3735"/>
<path d="M374.947 792.876C378.763 791.867 385.196 792.242 389.358 792.274C387.816 797.377 387.726 804.14 389.531 809.153C374.157 808.16 374.876 811.114 374.947 792.876Z" fill="#3C3735"/>
<path d="M359.25 810.22C363.737 811.131 367.262 811.025 371.794 811.074C371.54 815.9 371.301 820.246 370.78 825.048C367.096 824.291 363.426 824.657 359.637 824.787C359.689 819.929 359.56 815.07 359.25 810.22Z" fill="#3C3735"/>
<path d="M171.834 540.524C174.794 540.312 177.656 539.841 180.422 540.793C181.823 542.681 181.284 547.889 182.408 551.438C179.627 551.356 172.619 550.664 170.711 552.243C171.195 548.337 171.498 544.447 171.834 540.524Z" fill="#3C3735"/>
<path d="M240.703 826.413C242.843 827.886 243.283 827.862 245.875 828.065C248.317 833.046 241.724 837.603 240.707 843.577L240.703 826.413Z" fill="#3C3735"/>
<path d="M436.942 744.454C442.602 744.698 448.265 744.869 453.931 744.967C455.063 762.887 448.873 778.261 454.174 795.636C455.183 798.948 454.866 805.206 454.679 808.844L471.035 808.299C471.138 798.264 472.829 787.734 472.368 778.212L486.533 778.122C486.231 787.929 487.534 799.396 488.372 809.341L473.521 809.162L472.885 823.501L454.121 823.884L454.348 809.113C449.213 809.406 441.454 810.789 437.723 807.713C435.587 803.855 436.482 798.346 436.659 793.626C431.492 793.544 425.823 793.748 420.614 793.837L420.924 778.415C415.487 778.261 409.707 778.383 404.242 778.407L404.445 759.095C404.996 753.74 405.319 749.85 405.417 744.47C412.292 745.146 414.552 745.113 421.395 744.755C420.348 749.549 419.108 756.344 420.918 760.958C421.731 763.481 421.564 774.118 421.574 777.26C426.54 777.699 432.755 777.561 437.861 777.569C438.021 766.655 437.386 755.392 436.942 744.454Z" fill="#3C3735"/>
<path d="M405.418 744.469C412.292 745.144 414.552 745.112 421.396 744.754C420.348 749.547 419.108 756.342 420.919 760.957C414.726 760.517 410.556 760.102 404.445 759.093C404.996 753.738 405.319 749.848 405.418 744.469Z" fill="#3C3735"/>
<path d="M371.796 696.902C378.172 696.699 384.029 696.821 390.414 696.968C390.225 705.285 390.744 714.294 390.154 722.538C389.522 731.36 388.259 735.803 388.779 744.821L373.391 744.747L373.408 761.333C368.515 761.081 363.741 761.309 358.848 761.455C358.571 766.623 358.402 771.88 358.188 777.065L358.222 777.423C356.403 779.075 344.82 778.538 341.422 778.578C341.817 773.183 341.711 766.485 341.762 760.967C346.899 761.341 352.08 761.195 357.234 761.146C357.176 751.079 358.643 740.646 358.972 730.286L370.88 730.131C371.111 719.055 371.416 707.979 371.796 696.902Z" fill="#3C3735"/>
<path d="M118.611 760.6C124.86 760.763 131.113 760.722 137.361 760.494C136.891 766.728 137.167 771.823 137.413 778.081C130.997 779.098 125.288 779.171 118.832 779.383C118.838 783.892 118.869 788.4 118.926 792.917C116.204 793.625 105.961 793.145 102.896 792.022C102.526 791.029 102.237 789.808 102.84 788.937C105.848 784.592 101.594 780.824 104.099 777.462C106.875 776.404 115.336 776.73 118.703 776.73C118.794 771.497 118.025 765.548 118.611 760.6Z" fill="#3C3735"/>
<path d="M308.621 728.615C314.271 728.786 320.53 728.64 326.233 728.615C325.65 734.524 325.55 739 325.497 744.957C330.926 745.087 336.836 744.867 342.306 744.77C341.756 750.003 341.675 755.219 341.511 760.485C336.517 761.193 330.392 761.266 325.26 761.461L325.139 745.698L308.586 745.006L308.621 728.615Z" fill="#3C3735"/>
<path d="M435.91 825.837C436.537 826.171 437.558 826.952 438.176 827.391C439.277 830.826 438.61 833.715 438.233 837.361C433.585 833.755 434.4 831.078 435.91 825.837Z" fill="#585858"/>
<path d="M486.145 858.227C490.588 860.945 489.302 864.729 488.334 869.14L486.267 867.545C484.965 864.225 485.673 861.816 486.145 858.227Z" fill="#585858"/>
<path d="M634.507 567.462L636.606 564.394C639.764 568.853 645.51 564.906 649.359 567.478L650.059 570.693C652.745 572.247 660.15 570.855 663.984 570.709L663.87 581.761C655.308 582.151 646.747 582.477 638.177 582.745L637.77 596.361L650.922 596.092C650.824 600.788 650.401 606.867 651.329 611.327C653.485 614.623 652.631 624.747 652.533 629.215C658.93 628.727 662.625 628.548 668.997 628.816C668.826 636.727 668.46 645.011 668.989 652.881L681.977 653.044L682.075 664.356C669.298 666.033 669.542 660.726 660.769 660.865L654.136 660.979L653.86 680.413L667.052 680.047C666.832 691.359 666.881 702.679 667.198 713.992H681.969C682.181 720.738 682.458 727.485 682.791 734.223C688.358 734.313 696.171 734.183 701.534 734.549C701.257 739.7 701.021 742.533 700.142 747.619C702.917 747.424 709.525 746.699 711.886 747.627C707.768 748.278 705.668 748.238 701.558 748.262C701.566 753.08 701.493 758.109 701.591 762.911C695.585 762.943 689.277 762.878 683.312 763.188C682.474 773.629 686.022 781.116 685.778 792.599L685.754 793.397L667.239 793.495L667.109 806.833C651.996 806.947 635.101 808.469 620.908 808.347C620.68 799.427 621.404 787.366 621.713 778.203C625.742 777.682 631.235 777.454 635.41 777.177C634.547 771.44 634.035 768.046 635.768 762.52C635.963 761.405 635.483 747.302 635.443 745.568C630.82 744.754 624.326 744.95 619.54 745.194C619.605 750.329 619.972 758.256 619.052 763.017C608.961 763.594 607.056 762.414 597.315 759.973C596.053 759.656 587.638 759.713 585.823 759.713L585.734 775.802C592.041 776.16 596.908 777.267 602.596 777.706L602.36 793.722C592.448 793.674 579.663 793.234 569.986 793.641C564.737 792.949 557.559 793.145 552.09 793.136L551.765 778.146C546.678 777.21 524.908 776.453 519.594 776.86L519.081 781.222C518.324 779.961 518.072 779.537 517.185 778.341C512.131 777.072 508.689 777.877 503.529 778.561C503.374 769.511 505.002 735.127 503.667 729.357C503.936 722.48 506.817 710.85 495.879 711.786C491.029 712.201 490.858 710.215 486.243 712.315C486.089 708.889 488.302 704.022 487.806 697.227L471.07 697.316C471.973 690.472 474.263 685.565 471.065 679.648C470.045 678.834 468.555 677.744 467.273 677.809C457.688 678.297 448.953 678.549 439.455 678.248C439.735 672.934 439.494 667.074 439.385 661.703C432.679 661.003 428.251 661.215 421.465 661.443L421.117 645.011C415.891 644.832 410.429 644.458 405.185 644.173C404.471 638.908 404.278 635.49 404.094 630.175C408.383 631.168 410.444 630.102 414.315 628.426L422.301 629.321L422.372 612.816L422.778 612.385C428.268 612.409 435.366 612.857 440.456 611.319C440.561 605.638 440.557 600.804 440.313 595.132L440.112 594.53L439.926 580.206C443.25 580.353 451.323 581.142 453.801 579.954C474.675 578.839 499.997 579.685 521.051 579.759C520.79 585.626 520.937 590.786 519.342 596.483L520.261 596.637L537.816 596.548L537.962 611.734C542.902 611.75 552.904 611.498 557.429 612.084C552.017 612.955 543.26 612.637 537.515 612.613C537.759 618.855 537.865 622.2 537.262 628.385C540.566 628.426 548.257 628.238 551.667 629.337C554.076 630.11 550.796 631.095 554.385 632.218C554.987 630.314 554.882 630.403 556.257 628.971C560.513 628.133 566.088 629.077 570.564 629.541L570.304 612.507C580.542 611.758 592.285 614.184 604.322 613.915L604.582 595.921C610.043 595.669 615.626 595.889 621.103 596.003L621.079 581.403L633.839 581.443L634.507 567.462Z" fill="#3C3735"/>
<path d="M552.634 661.085C563.67 661.191 575.023 661.598 586.083 661.866L586.327 678.818C597.403 678.664 609.342 679.803 620.931 679.836L620.939 697.048L603.596 697.081C603.678 713.024 603.922 728.966 604.329 744.909L618.433 745.048C618.457 749.931 618.229 758.549 619.043 763.017C608.952 763.595 607.047 762.415 597.306 759.973C596.044 759.656 587.629 759.713 585.814 759.713L585.725 775.802C592.032 776.16 596.899 777.267 602.587 777.707L602.351 793.723C592.439 793.674 579.654 793.235 569.977 793.641C564.728 792.95 557.55 793.145 552.081 793.137L551.756 778.146L552.065 761.186L536.268 761.015C536.114 755.676 536.163 750.134 536.146 744.771L521.676 744.763C521.286 730.309 521.53 711.64 521.514 696.845L536.96 696.796L537.033 679.795H553.074C552.797 673.683 552.765 667.229 552.634 661.085Z" fill="#F5F5F5"/>
<path d="M453.805 579.955C474.679 578.84 500.001 579.686 521.055 579.759C520.794 585.627 520.941 590.787 519.346 596.483L520.265 596.638C521.893 607.918 518.971 616.797 519.354 628.467L505.144 628.508L505.185 645.11L487.72 645.028C487.679 640.585 487.834 632.682 487.403 628.532C482.829 628.288 476.96 628.475 472.261 628.508C470.409 631.177 471.146 640.487 471.198 644.174L455.182 644.092C455.605 634.603 454.772 621.159 454.764 611.018C450.038 610.921 445.194 611.157 440.46 611.319C440.565 605.639 440.561 600.805 440.317 595.132L440.116 594.53L439.93 580.207C443.254 580.353 451.327 581.143 453.805 579.955Z" fill="#F5F5F5"/>
<path d="M473.221 614.663L486.805 614.712C486.854 619.204 486.732 624.128 487.399 628.531C482.825 628.287 476.956 628.474 472.258 628.506C473.537 623.998 473.247 619.351 473.221 614.663Z" fill="#585858"/>
<path d="M618.211 728.657L634.422 729.365C634.243 733.776 633.893 741.052 635.505 745.015L635.44 745.569C630.817 744.755 624.323 744.95 619.537 745.194C619.603 750.329 619.969 758.256 619.049 763.017C618.235 758.549 618.463 749.931 618.439 745.048C618.61 740.075 618.317 733.736 618.211 728.657Z" fill="#3C3735"/>
<path d="M635.51 745.016C641.655 746.098 645.464 745.96 651.698 745.943C651.681 749.524 652.34 759.095 651.128 761.211C648.8 761.951 642.534 760.934 635.771 762.521C635.966 761.406 635.486 747.303 635.445 745.569L635.51 745.016Z" fill="#3C3735"/>
<path d="M637.766 596.36L650.917 596.092C650.819 600.788 650.396 606.867 651.324 611.327C646.864 611.384 642.437 611.742 637.993 612.059L637.766 596.36Z" fill="#3C3735"/>
<path d="M310.949 19.0412C316.794 18.8166 322.832 18.9476 328.693 18.9981C328.706 24.6689 328.468 29.6568 328.142 35.3251C328.771 35.2332 329.401 35.1494 330.032 35.0745C334.746 34.53 356.165 34.294 359.864 37.1937C360.833 41.5892 360.026 46.9124 359.652 51.5236L372.378 51.5684L372.656 68.7459C377.962 68.6466 381.019 68.6881 386.309 69.1715C386.364 75.8172 386.427 79.9091 387.293 86.4434L402.272 86.9073C401.16 97.3381 400.785 101.161 401.064 111.909L415.736 111.709C416.051 124.497 416.292 137.287 416.459 150.078C421.228 149.396 424.66 149.368 429.425 149.272C429.291 161.404 429.358 173.537 429.625 185.667C431.468 190.041 430.998 189.142 435.996 190.206C438.316 193.694 437.569 196.638 437.459 201.23L437.728 216.772L437.718 232.33C433.304 232.223 424.487 231.6 420.668 233.094C418.021 235.906 409.473 235.02 405.329 234.961C405.338 240.663 405.253 246.659 405.435 252.331L377.441 252.544L377.478 267.214C374.061 267.223 366.929 267.429 363.796 267.166C359.608 267.947 360.237 267.134 358.144 269.693C357.078 273.758 357.967 276.945 358.023 281.223C352.844 281.264 347.661 281.146 342.542 281.886C342.546 287.134 342.419 292.269 343.05 297.479C348.356 297.488 353.755 297.587 359.045 297.264C357.708 303.913 357.475 320.989 357.888 328.069L342.818 328.434C342.688 338.153 341.314 348.589 341.411 357.343C338.066 357.419 332.723 357.703 329.552 357.392C326.099 348.168 312.387 356.558 305.734 357.243C301.874 357.639 298.263 357.67 294.393 357.648L294.501 342.8L310.953 343.309C310.418 336.556 308.085 334.673 313.636 329.59L314.034 313.593L326.897 313.43C327.961 312.379 327.495 312.862 327.945 311.071L326.808 309.936C322.66 308.966 316.084 309.328 311.576 309.378L310.727 296.104C300.169 295.14 290.96 297.555 279.166 297.167L278.979 282.877C283.772 281.915 293.89 282.758 296.677 278.609C287.982 263.922 304.555 268.482 308.962 266.745L309.216 265.337L307.349 262.878C303.115 262.031 299.12 263.325 294.79 264.24C294.491 260.63 294.411 256.779 294.264 253.141C289.606 252.172 284.533 253.73 280.098 251.897C277.749 243.18 272.516 248.561 267.324 245.033L266.969 242.716C271.295 238.432 289.294 243.266 294.977 236.866C295.321 236.522 297.102 234.448 297.116 234.165C297.605 223.968 296.862 212.501 296.796 202.276L282.306 202.195C283.109 185.945 282.195 166.094 282.392 149.325C287.002 149.174 292.277 149.313 296.948 149.338C298.367 133.54 297.993 117.379 298.188 101.546C298.397 84.6098 298.629 67.9727 298.423 51.0166L310.717 50.8717C310.53 40.7021 310.897 29.3435 310.949 19.0412Z" fill="#3C3735"/>
<path d="M327.924 102.566C334.955 102.168 335.298 101.795 341.983 100.188L343.228 102.349C345.556 103.063 354.411 102.898 357.401 102.924L357.289 117.411C361.793 118.12 367.313 118.295 371.933 118.58C372.015 122.843 372.003 127.407 372.444 131.645C372.758 134.666 373.47 134.236 376.303 136.233C377.233 141.583 376.785 158.537 376.757 164.983L390.608 165.57C390.299 177.211 390.429 189.494 390.368 201.186C395.305 201.362 400.262 200.83 405.193 200.433L404.974 217.431C409.448 217.491 415.144 217.146 419.716 216.984C419.609 221.887 419.38 228.451 420.666 233.094C418.02 235.907 409.472 235.02 405.327 234.961C405.336 240.664 405.252 246.659 405.434 252.331L377.44 252.545L377.476 267.215C374.059 267.224 366.928 267.43 363.794 267.166C351.359 266.955 339.079 266.36 327.052 266.224C327.163 258.575 326.301 250.616 326.417 243.22C326.565 233.84 327.597 226.827 327.018 217.221C325.108 215.454 324.499 216.063 321.12 215.871C320.306 214.894 319.424 137.794 321.712 135.439C323.917 135.45 325.506 135.754 327.27 134.543C328.333 127.057 327.113 112.554 327.924 102.566Z" fill="#1B1A1B"/>
<path d="M340.956 135.382C345.579 135.832 352.064 135.764 356.838 135.842C356.515 147.345 359.08 158.102 358.888 171.644C363.187 171.758 367.487 171.831 371.787 171.865C371.809 177.194 371.604 182.048 372.744 187.261L372.536 193.143C372.58 200.527 372.392 207.913 372.435 215.262C377.774 215.111 383.593 214.695 388.824 215.538C388.88 221.64 388.905 227.743 388.897 233.845C385.296 233.908 372.679 233.145 371.079 233.621C368.163 237.357 369.092 242.584 369.207 247.633C360.472 247.721 351.658 248.788 343.315 248.605L343.454 232.773C342.827 222.899 343.193 212.476 343.335 202.548L340.973 200.55C337.192 190.408 341.03 147.17 340.956 135.382Z" fill="#585858"/>
<path d="M343.33 202.548C344.689 204.595 343.87 213.008 343.754 215.952L357.232 215.959L357.684 215.554C366.33 217.086 379.63 215.669 388.819 215.538C388.875 221.64 388.899 227.742 388.892 233.844C385.291 233.908 372.674 233.145 371.073 233.621C368.158 237.357 369.086 242.584 369.201 247.632C360.466 247.721 351.653 248.788 343.309 248.605L343.448 232.773C342.822 222.899 343.187 212.476 343.33 202.548Z" fill="#585858"/>
<path d="M343.33 202.548C344.689 204.595 343.87 213.008 343.754 215.952L357.232 215.959L357.282 233.013L343.448 232.773C342.822 222.899 343.187 212.476 343.33 202.548Z" fill="#3C3735"/>
<path d="M372.534 193.142C372.578 200.526 372.39 207.912 372.433 215.261C377.772 215.11 383.591 214.694 388.822 215.537C379.633 215.668 366.334 217.085 357.688 215.554C358.242 211.122 358.068 204.774 358.078 200.127C362.785 199.927 366.499 201.029 370.638 199.409C372.808 196.852 372.114 197.211 372.534 193.142Z" fill="#524B49"/>
<path d="M358.892 171.644C363.191 171.757 367.491 171.831 371.791 171.865C371.814 177.194 371.609 182.048 372.748 187.261C369.841 181.615 363.748 184.313 358.477 185.452L358.892 171.644Z" fill="#524B49"/>
<path d="M314.031 313.594L326.893 313.432C325.785 318.15 325.953 322.166 325.926 326.972C321.185 327.176 317.533 326.795 313.633 329.591L314.031 313.594Z" fill="#3C3735"/>
<path d="M294.266 253.142C299.297 255.043 304.255 253.424 307.143 255.512C307.962 258.44 307.618 259.879 307.35 262.878C303.117 262.032 299.122 263.326 294.792 264.241C294.493 260.631 294.413 256.78 294.266 253.142Z" fill="#3C3735"/>
<path d="M429.625 185.668C431.468 190.042 430.999 189.143 435.996 190.207C438.317 193.695 437.569 196.639 437.46 201.231C436.241 200.831 435.662 200.488 434.512 199.922C433.123 195.126 429.632 188.27 429.625 185.668Z" fill="#3C3735"/>
<path d="M308.422 137.968C309.454 138.389 309.514 138.545 310.429 139.209C311.318 143.119 310.685 145.684 310.179 149.658L308.367 147.904C307.363 144.295 307.99 141.711 308.422 137.968Z" fill="#3C3735"/>
<path d="M308.682 153.696L309.956 154.775C310.849 158.412 310.093 162.937 309.746 166.793L308.086 165.377C307.346 161.251 308.115 157.873 308.682 153.696Z" fill="#3C3735"/>
<path d="M309.306 218.682L310.991 219.661C311.988 222.927 311.45 226.127 311.22 229.601C310.771 229.51 309.87 229.038 309.405 228.821C308.288 225.619 308.991 222.173 309.306 218.682Z" fill="#3C3735"/>
<path d="M706.447 36.1719C711.566 36.3176 717.385 36.329 722.382 36.9597C722.382 46.5856 722.536 56.6039 722.129 66.1916L735.395 66.0882C734.443 78.5626 734.825 96.7183 735.094 109.324C735.379 122.795 732.823 160.595 736.843 171.636C740.359 174.341 747.008 173.401 751.777 173.247L751.94 184.937C747.326 185.01 742.524 185.16 737.926 185.153C738.219 195.635 736.274 197.437 734.434 207.272C733.914 210.052 734.573 219.311 734.793 222.491C730.569 222.326 725.938 222.246 721.755 221.915C721.633 231.27 721.609 239.6 721.958 248.971C721.902 253.953 721.983 259.809 721.69 264.705L722.439 266.656C725.661 267.915 731.847 267.423 735.59 267.409C735.818 283.408 726.817 280.144 713.926 280.628C713.926 284.741 713.56 293.199 714.781 296.716C719.029 298.523 719.143 295.834 721.674 298.499C721.779 302.113 721.137 301.918 723.008 303.788C725.019 303.643 727.037 303.539 729.055 303.477C732.115 307.535 728.933 308.173 731.96 311.797C736.485 312.41 737.226 310.646 739.513 312.235C739.667 315.145 740.148 314.033 738.862 316.061C734.215 317.382 733.433 315.544 730.707 317.27C730.3 318.49 729.755 321.176 728.892 321.3C721.942 322.301 709.344 318.881 702.89 321.626C701.979 324.473 702.069 324.501 702.052 327.353C704.795 329.495 708.441 325.905 709.556 334.249C709.8 336.056 709.556 340.988 709.523 343.01C716.807 342.339 736.428 340.256 729.983 353.421C725.645 355.286 706.878 356.935 701.938 356.732C697.682 356.558 690.056 349.456 683.977 355.706C683.293 358.219 683.432 358.522 683.521 361.064C683.342 360.611 682.545 359.39 682.252 358.92C677.93 357.83 673.104 358.342 668.563 358.506C668.913 349.125 668.929 338.002 668.815 328.548C664.144 328.243 657.365 328.56 652.539 328.655L652.71 312.147C658.431 312.01 664.388 312.07 670.126 312.045C670.101 302.456 670.98 293.081 670.956 283.327C667.237 283.372 657.243 283.788 654.256 282.882C650.325 280.081 643.847 280.824 638.801 280.797L638.622 267.264C632.657 267.291 626.578 267.167 620.612 267.109C620.791 262.09 620.783 256.852 620.848 251.811L603.782 251.632C603.937 245.997 603.75 239.831 603.693 234.15C592.356 233.576 582.444 232.935 571.075 233.158C571.237 228.594 572.084 219.533 569.797 215.914C571.075 213.378 570.993 206.053 571.018 202.904C576.413 202.633 582.2 202.213 587.563 202.357C586.749 194.49 585.984 191.936 588.962 184.544L603.888 184.169C604.661 170.009 605.76 165.812 605.312 150.858C610.537 150.902 616.413 150.826 621.581 151.103C621.711 145.867 621.711 140.169 622.289 135.018L635.571 134.479C634.545 123.191 636.327 122.15 638.565 111.358C638.875 109.861 638.818 100.862 638.801 98.7757L650.879 98.6626C650.138 89.5428 651.839 88.9861 654.386 80.4287C654.842 78.889 654.614 71.7175 654.557 69.6789C661.035 69.6854 668.466 70.8874 672.746 66.8939C674.366 62.8248 673.812 57.9207 673.731 53.3876C681.536 52.1018 697.56 53.1207 706.349 53.0637L706.447 36.1719Z" fill="#3C3735"/>
<path d="M680.464 103.557C689.733 103.109 696.789 103.487 706.042 103.947C705.961 112.022 706.848 119.901 707.231 127.977C708.679 158.971 706.335 189.57 706.97 220.601L691.906 220.989C691.719 228.298 692.419 262.811 690.254 266.283C682.971 269.701 684.712 273.899 685.013 281.198C674.767 281.866 664.521 282.426 654.259 282.881C650.328 280.079 643.85 280.822 638.804 280.796L638.625 267.263C632.66 267.29 626.58 267.166 620.615 267.108C620.794 262.089 620.786 256.851 620.851 251.81L603.785 251.631C603.94 245.995 603.752 239.83 603.695 234.149C603.297 220.626 606.853 212.43 605.779 200.426L620.078 200.632C619.858 188.925 621.714 181.191 621.657 171.355C626.32 171.41 632.31 171.63 636.826 171.39C636.973 164.573 637.022 157.576 637.559 150.794C642.434 150.901 647.829 150.848 652.623 151.506C652.533 148.738 652.281 140.821 652.883 138.542C655.439 128.741 656.619 129.114 656.692 118.429C666.971 118.786 670.967 116.966 679.976 116.616L680.464 103.557Z" fill="#1B1A1B"/>
<path d="M670.094 134.971C676.239 135.062 682.383 135.06 688.528 134.965C688.462 140.238 688.186 146.072 688.405 151.284C689.325 173.238 685.891 193.694 686.135 215.75L673.35 215.947C672.747 231.769 673.423 247.847 672.983 263.989C665.903 263.942 658.815 263.952 651.726 264.018L651.62 247.792C652.516 242.656 652.06 238.187 651.791 232.991L635.401 232.877C634.969 225.993 634.799 222.748 635.433 215.956L636.337 210.618C635.857 204.803 636.337 191.126 636.369 184.794C641.578 184.827 646.859 184.969 652.076 185.062C652.581 181.127 652.337 170.838 652.353 166.42L668.711 166.117C669.012 155.85 670.078 144.991 670.094 134.971Z" fill="#585858"/>
<path d="M652.507 185.228C658.31 183.868 662.688 184.584 668.849 182.986C668.76 188.509 668.393 193.735 669.468 199.138C668.027 208.301 669.158 222.7 669.15 232.646C663.73 233.231 657.325 233.021 651.791 232.991L635.401 232.876C634.969 225.993 634.799 222.748 635.433 215.955L636.337 210.617C635.857 204.803 636.337 191.126 636.369 184.794C641.578 184.827 646.859 184.969 652.076 185.062L652.507 185.228Z" fill="#524B49"/>
<path d="M636.37 184.793C641.578 184.826 646.86 184.968 652.077 185.061L652.508 185.227C652.581 189.714 653.281 212.89 651.971 215.152L651.474 215.465C642.937 219.271 641.139 218.192 636.337 210.617C635.857 204.802 636.337 191.125 636.37 184.793Z" fill="#585858"/>
<path d="M636.337 210.617C641.138 218.193 642.937 219.271 651.474 215.466C647.511 220.36 649.407 226.204 650.44 232.096C655.535 232.099 664.487 231.845 669.15 232.646C663.73 233.231 657.325 233.021 651.791 232.991L635.401 232.876C634.969 225.993 634.799 222.747 635.433 215.955L636.337 210.617Z" fill="#585858"/>
<path d="M668.705 166.118C667.891 168.075 669.787 193.535 669.462 199.139C668.388 193.735 668.754 188.51 668.843 182.987C662.683 184.585 658.304 183.869 652.502 185.228L652.07 185.062C652.575 181.128 652.331 170.839 652.347 166.421L668.705 166.118Z" fill="#585858"/>
<path d="M635.399 232.875L651.79 232.99C652.058 238.185 652.514 242.654 651.619 247.79C645.898 247.634 639.183 249.228 634.87 246.657C633.495 243.487 634.064 243.854 634.536 239.851C634.781 237.402 635.017 235.306 635.399 232.875Z" fill="#726A68"/>
<path d="M622.348 216.071L635.434 215.955C634.799 222.747 634.97 225.993 635.402 232.876C635.019 235.307 634.783 237.404 634.539 239.852C634.433 237.648 634.612 236.816 633.587 234.882C630.828 233.02 625.88 233.994 622.25 234.216L622.348 216.071Z" fill="#585858"/>
<path d="M708.552 264.084C708.381 250.304 708.031 249.709 721.956 248.97C721.899 253.951 721.98 259.807 721.687 264.703C718.245 263.487 712.369 263.981 708.552 264.084Z" fill="#3C3735"/>
<path d="M701.559 748.263C705.669 748.238 707.768 748.279 711.886 747.628C713.538 749.858 713.693 750.94 716.802 751.233C728.008 752.283 739.809 751.249 751.088 751.461L750.934 766.199C763.573 766.069 774.714 767.233 787.825 766.916L787.76 784.006L854.998 783.908L854.892 798.574H891.271C891.165 803.766 891.205 808.966 890.449 814.101L943.763 814.142V827.269L959.347 827.123L959.266 837.882C959.551 841.609 958.916 841.332 960.853 843.635L972.955 843.489L973.06 883.139L944.731 883.13L944.755 897.657C931.107 897.193 906.074 896.835 892.963 897.91C892.947 893.23 893.224 887.891 893.37 883.155C883.287 883.098 874.904 882.675 864.642 883.082C864.382 878.166 864.626 873.43 864.789 868.522C851.556 868.416 838.323 868.449 825.09 868.604C825.139 863.501 825 858.195 824.943 853.084C816.813 852.905 806.274 853.385 798.055 853.588L798.095 838.931C795.296 838.76 793.18 838.345 790.437 837.865C781.998 837.507 771.931 837.686 763.369 837.629L763.402 822.313C746.954 821.93 729.058 822.215 712.513 822.191L712.228 810.692C707.272 810.871 704.822 811.619 701.437 808.95C696.749 805.263 673.482 806.769 667.109 806.834L667.24 793.495L685.754 793.398L685.779 792.6C686.023 781.117 682.474 773.63 683.313 763.188C689.278 762.879 695.585 762.944 701.591 762.912C701.494 758.11 701.567 753.081 701.559 748.263Z" fill="#F5F5F5"/>
<path d="M939.016 836.84C945.486 837.89 952.647 837.784 959.256 837.881C959.54 841.609 958.906 841.332 960.843 843.635C961.184 846.41 961.217 852.473 961.323 855.509C952.159 855.232 948.269 855.542 939.138 853.784L939.016 836.84Z" fill="#585858"/>
<path d="M586.587 827.423C596.166 827.187 605.411 827.545 614.819 827.357L614.941 844.22L650.115 844.09L649.968 859.528C661.753 858.747 673.838 858.934 685.671 858.942L685.378 873.07C694.298 873.16 706.399 874.291 714.643 873.965L714.757 888.94L746.13 888.964L746.187 903.499L763.172 903.581C763.18 909.05 763.05 915.308 763.27 920.695L778.57 920.728L778.659 933.619L792.266 933.831C791.933 943.759 792.258 953.167 792.014 962.827C787.343 962.868 782.24 962.771 777.626 963.186C775.379 964.61 767.485 964.007 764.238 964.007C764.222 967.043 764.352 976.182 763.839 978.616C747.001 978.412 730.155 978.38 713.309 978.534L713.512 963.072L681.594 963.08L681.773 947.894C676.686 947.943 671.6 947.918 666.522 947.837C663.144 947.584 663.454 948.13 661.126 946.453C659.637 943.125 660.605 937.053 660.605 933.09C649.342 932.708 640.097 932.146 628.695 932.162L628.353 919.76C611.572 919.174 601.554 915.625 582.828 916.008C582.6 911.768 582.803 907.08 582.876 902.799C576.431 902.832 568.219 901.326 561.253 900.944C553.074 900.496 541.518 900.903 533.794 899.853L533.664 884.92L552.179 884.928C552.805 873.111 550.901 866.698 550.999 855.728L570.311 855.679L569.961 841.136L586.742 840.957C586.864 836.627 587.214 831.638 586.587 827.423Z" fill="#F5F5F5"/>
<path d="M745.37 946.071C751.783 946.234 758.432 946.193 764.87 946.242C764.381 952.785 764.113 956.789 764.447 963.284L777.631 963.186C775.384 964.61 767.49 964.008 764.243 964.008C764.227 967.044 764.357 976.183 763.844 978.616C763.177 974.344 763.503 969.127 763.592 964.724L745.289 964.7L745.37 946.071Z" fill="#585858"/>
<path d="M637.298 504.341C641.872 504.65 646.454 504.805 651.044 504.805C651.028 508.532 650.841 513.749 651.101 517.354L651.166 519.446C654.478 522.115 658.312 530.131 653.892 533.289C649.294 536.577 643.37 536.137 637.998 536.015C638.088 531.816 638.527 525.216 637.665 521.317L636.053 520.105C634.068 516.084 633.913 507.515 637.298 504.341Z" fill="#585858"/>
<path d="M374.19 567.925C377.727 567.82 386.388 566.794 388.39 567.771L389.262 569.008C389.547 574.233 389.542 575.95 389.026 581.24L388.819 595.213L373.008 595.246C373.196 585.911 374.163 577.838 374.19 567.925Z" fill="#B3ACA7"/>
<path d="M472.547 202.565L483.519 203.024C483.413 206.846 482.917 212.363 483.991 215.828C480.988 216.084 474.737 215.848 472.868 216.886C472.976 212.431 472.688 207.103 472.547 202.565Z" fill="#3C3735"/>
<path d="M267.258 299.004C270.63 298.671 272.16 298.319 275.434 298.937C278.02 300.866 276.971 299.62 278.056 303.271C274.984 303.439 273.029 303.526 269.969 303.375C267.151 301.603 268.222 302.855 267.258 299.004Z" fill="#3C3735"/>
<path d="M313.43 504.349C317.267 503.877 322.13 502.493 325.076 505.236L324.964 507.791C320.657 507.368 318.618 507.173 314.375 506.034L313.43 504.349Z" fill="#1B1A1B"/>
<path d="M634.498 567.463C633.944 562.572 633.074 559.715 635.45 555.386L636.492 555.549C637.826 558.918 637.159 560.643 636.597 564.395L634.498 567.463Z" fill="#3C3735"/>
<path d="M619.402 811.301L620.273 811.976C621.559 814.401 621.005 817.396 620.826 820.261L619.63 819.333C618.458 816.607 619.076 814.32 619.402 811.301Z" fill="#3C3735"/>
<rect x="546.297" y="281.546" width="41.8259" height="43.8151" fill="#585858"/>
<rect x="607.93" y="291.524" width="41.8259" height="43.8151" fill="#585858"/>
<rect x="648.094" y="362.385" width="41.8259" height="43.8151" fill="#585858"/>
<rect x="402.883" y="276.69" width="41.8259" height="43.8151" fill="#585858"/>
<rect x="424.234" y="279.118" width="41.8259" height="43.8151" fill="#585858"/>
<path d="M532.717 471.761L532.028 469.45C526.094 467.598 477.05 468.519 469.058 468.972L468.448 486.184C464.558 486.217 456.395 486.068 452.887 486.51C452.684 498.405 453.644 508.83 453.587 519.695L469.75 519.663C469.685 525.302 469.685 531.097 469.538 536.72C478.246 536.712 485.473 536.704 494.197 537.428L494.344 547.247C488.696 547.255 483.145 547.158 477.506 547.085C472.118 547.003 468.554 546.547 465.087 550.918C465.054 554.49 464.354 562.783 466.364 565.257C487.418 565.184 504.765 564.338 525.64 565.453C528.73 565.086 535.757 565.176 539.169 565.135C539.099 559.764 539.22 555.695 539.559 550.332C539.359 549.876 538.757 549.168 538.423 548.728C526.98 548.362 524.862 547.207 512.963 547.06L512.944 536.997L531.732 536.81L531.856 519.768L548.247 519.744C548.506 508.635 548.695 497.526 548.812 486.411C546.61 484.907 535.67 485.459 532.36 485.491C532.297 480.52 532.419 476.716 532.717 471.761Z" fill="#1B1A1B"/>
<path d="M421.841 389.562C433.576 389.146 435.877 387.757 444.211 396.316C444.513 400.781 445.585 412.268 443.171 415.559L440.382 415.913C437.953 418.812 440.731 418.828 438.322 422.67L436.343 423.035C415.418 423.491 411.128 424.366 413.976 399.607C414.456 395.434 418.977 393.586 421.841 389.562Z" fill="#1D1C1D"/>
<path d="M563.565 395.453C566.691 395.385 578.738 394.777 580.721 396.067C585.642 399.277 588.519 414.678 584.822 419.166L581.689 418.938C580.499 420.6 581.487 424.676 580.829 428.248L579.719 428.892C573.514 428.838 566.052 429.195 560.136 429.302C552.251 429.443 555.915 406.063 557.441 401.511C559.437 399.864 559.034 400.462 562.462 400.479C563.955 398.526 563.437 398.493 563.565 395.453Z" fill="#1D1C1D"/>
<rect x="459.18" y="544.565" width="14.4433" height="15.1303" fill="#1B1A1B"/>
<rect x="459.18" y="559.695" width="14.4433" height="15.1303" fill="#B2ACA9"/>
<rect x="526.211" y="544.565" width="14.4433" height="15.1303" fill="#1B1A1B"/>
<rect x="526.211" y="559.695" width="14.4433" height="15.1303" fill="#B2ACA9"/>

</g></g></g>

</svg>