<svg xmlns="http://www.w3.org/2000/svg" viewBox="0 0 1120 1080">
<style>
@keyframes breathe{0%,100%{transform:scale(1)}50%{transform:scale(1.018,.985)}}
@keyframes breatheSlow{0%,100%{transform:scale(1)}50%{transform:scale(1.03,.965)}}
@keyframes bob{0%,100%{transform:translateY(0)}50%{transform:translateY(-13px)}}
@keyframes typebob{0%,100%{transform:translateY(0)}50%{transform:translateY(-4px)}}
@keyframes sway{0%,100%{transform:rotate(-1.2deg)}50%{transform:rotate(1.2deg)}}
@keyframes jbob{0%,100%{transform:translateY(0)}50%{transform:translateY(-7px)}}
@keyframes stretchk{0%{transform:scaleY(1)}30%{transform:scaleY(1.06) scaleX(.97)}100%{transform:scaleY(1)}}
@keyframes shake{0%,100%{transform:translateX(0)}25%{transform:translateX(-15px)}75%{transform:translateX(15px)}}
@keyframes dotpulse{0%,70%,100%{opacity:.18;transform:translateY(0)}30%{opacity:1;transform:translateY(-15px)}}
@keyframes zfloat{0%{opacity:0;transform:translate(0,0) scale(.6)}20%{opacity:.9}100%{opacity:0;transform:translate(40px,-130px) scale(1.15)}}
@keyframes badgePop{0%,100%{transform:translateY(0)}40%{transform:translateY(-16px)}}
@keyframes bktwinkle{0%,100%{opacity:.35;transform:scale(.8)}50%{opacity:1;transform:scale(1.3)}}
@keyframes confettiFall{0%{opacity:0;transform:translateY(-30px) rotate(0deg)}12%{opacity:1}86%{opacity:1}100%{opacity:0;transform:translateY(560px) rotate(560deg)}}
@keyframes jorbit{0%{transform:translate(0,0)}12.5%{transform:translate(150px,-138px)}25%{transform:translate(139px,-315px)}37.5%{transform:translate(68px,-400px)}50%{transform:translate(0,-420px)}62.5%{transform:translate(-68px,-400px)}75%{transform:translate(-139px,-315px)}87.5%{transform:translate(-150px,-138px)}100%{transform:translate(0,0)}}
@keyframes pawtapA{0%,100%{transform:translateY(0)}50%{transform:translateY(-8px)}}
@keyframes pawtapB{0%,100%{transform:translateY(-8px)}50%{transform:translateY(0)}}
@keyframes jpawbob{0%,100%{transform:translateY(0)}50%{transform:translateY(-10px)}}
@keyframes eyescan{0%,100%{transform:translateX(-9px)}50%{transform:translateX(9px)}}
.td{transform-box:fill-box;transform-origin:center;animation:dotpulse 1.5s ease-in-out infinite}
.zz{transform-box:fill-box;transform-origin:center;animation:zfloat 2.7s ease-in infinite}
.bk{transform-box:fill-box;transform-origin:center;animation:bktwinkle 1.6s ease-in-out infinite}
.cf{transform-box:fill-box;transform-origin:center;animation:confettiFall 2.2s linear infinite}
.jb{transform-box:fill-box;transform-origin:center;animation:jorbit 1.3s linear infinite}
.pawA{transform-box:fill-box;transform-origin:center;animation:pawtapA .42s ease-in-out infinite}
.pawB{transform-box:fill-box;transform-origin:center;animation:pawtapB .42s ease-in-out infinite}
.jpaw{transform-box:fill-box;transform-origin:center;animation:jpawbob .65s ease-in-out infinite}
.eye{transform-box:fill-box;transform-origin:center;animation:eyescan 2.8s ease-in-out infinite}
#body-js{transform-origin:547.0px 992px;animation:breathe 3.2s ease-in-out infinite;}#motion-js{transform-origin:547.0px 992px;animation:typebob 1.8s ease-in-out infinite;}</style>
<g transform="translate(13.0,48.0)"><g id="body-js"><g id="motion-js">

<path d="M297.282 0.113638L354.867 0C354.993 5.37213 354.941 10.921 354.962 16.309L382.66 16.6991L382.593 32.4503C388.166 32.6492 390.575 32.8751 396.06 31.9708C395.878 39.7924 395.946 45.3835 396.382 53.23C400.739 53.0637 405.213 53.3693 409.58 53.5667L409.657 77.8047L425.415 77.7576L425.549 100.046C430.101 99.56 435.053 99.4235 439.658 99.2114C439.826 109.753 438.877 122.623 438.086 133.253L453.012 133.334C453.016 144.792 452.531 157.359 451.854 168.781C450.813 186.319 458.46 176.429 463.145 181.354C463.439 183.222 462.513 184.365 461.596 186.15L461.156 186.995L461.824 187.902C467.641 188.431 470.583 188.281 476.476 187.935L476.884 175.74L492.572 175.508L492.643 193.381C497.057 193.102 501.464 193.187 505.888 193.208L505.83 205.268C515.111 205.245 524.391 205.146 533.673 204.971C533.181 200.872 533.021 196.844 532.799 192.726C537.657 192.735 542.369 192.55 547.219 192.369C547.094 186.888 547.274 181.052 547.351 175.542L566.038 175.684C565.789 180.122 564.258 186.168 567.778 188.916C570.944 189.416 574.887 187.701 578.31 187.031C578.199 178.987 578.275 170.756 578.261 162.695C584.394 162.629 589.687 164.088 594.857 160.845C595.48 160.016 596.589 158.549 596.547 157.522C596.256 149.445 596.125 141.314 596.228 133.231L611.791 133.35C611.902 125.56 611.847 117.619 611.86 109.815L625.247 109.85C624.873 100.093 624.665 90.3297 624.624 80.566L640.103 80.2749C640.249 74.1725 640.221 67.912 640.27 61.7943L654.745 61.732L654.897 46.251L668.852 45.9655C668.838 40.8948 669.074 35.82 669.275 30.752L686.196 30.6917C685.454 25.6931 685.385 21.8592 685.24 16.7892L700.678 16.3922L700.664 0.0284201L741.878 0.0381261C741.913 10.7228 741.746 20.8469 742.606 31.517L753.526 31.49L753.276 49.8174L762.236 49.5985C761.363 87.3939 761.945 129.291 762.25 167.234C770.648 169.068 773.849 169.373 782.469 169.292C782.496 174.757 781.845 179.759 781.249 185.169C774.569 185.371 769.158 185.911 762.187 185.891L762.118 220.062C759.138 219.932 757.392 219.62 754.593 220.466C751.953 225.222 753.353 244.181 752.584 252.004L752.459 253.193L768.59 253.027L768.562 272.455C763.739 272.345 758.736 272.383 753.893 272.354C753.942 277.489 753.63 280.458 753.041 285.583C762.457 285.507 771.874 285.541 781.291 285.685C781.367 291.429 781.381 297.175 781.346 302.919L767.675 302.895L767.793 314.769L751.142 314.519C751.606 321.211 751.53 323.993 751.052 330.796C754.537 331.269 758.605 331.34 762.159 331.504C762.215 339.133 762.208 346.764 762.145 354.393L752.376 354.226L752.486 363.686C742.703 363.523 731.845 355.855 730.438 356.018C729.378 358.898 730.715 372.877 730.798 377.272C734.298 377.686 738.601 377.767 742.183 377.931L742.273 401.664C737.097 400.63 721.59 397.058 717.481 399.695C714.917 402.948 715.409 415.16 715.139 420.293L727.278 420.592C727.424 430.938 727.459 441.286 727.382 451.633C718.485 451.587 709.491 451.377 700.615 451.739C700.428 459.979 700.539 468.637 700.532 476.912L713.102 476.91L713.192 504.594L700.581 504.538C700.636 510.303 700.165 511.218 699.375 516.651L701.488 517.6C702.659 519.679 701.953 530.516 701.876 533.689L688.06 533.696C688.025 538.969 687.207 539.787 689.21 544.519C692.099 551.338 691.088 574.169 690.623 581.805L701.925 581.514C702.181 591.381 700.567 600.978 700.504 611.191L713.302 611.094C713.081 624.093 713.067 637.099 713.261 650.098L727.583 650.271L727.514 677.669C724.444 677.641 720.294 677.177 717.806 678.798L718.409 679.775C721.971 681.327 725.013 681.279 728.907 681.598L729.094 695.601L737.194 695.553C737.367 690.204 737.298 684.626 737.298 679.249L752.964 678.978C752.819 673.394 752.895 668.903 753.138 663.312L907.927 663.402L908.003 650.278C957.317 649.703 1007.84 650.153 1057.21 650.23C1056.99 659.348 1058.36 666.887 1058.65 675.708C1058.95 685.263 1058.81 695.497 1058.79 705.101L1047.83 705.406C1047.65 715.751 1047.76 726.415 1047.74 736.795L1036.74 736.85L1036.39 772.14L1024.97 772.098C1025.98 781.293 1025.39 799.441 1025.29 809.349L1014.23 809.356C1014.5 821.08 1014.31 833.525 1014.32 845.304C1010.55 845.325 1006.53 845.027 1002.75 844.819L1002.76 883.948C998.192 883.892 995.323 883.92 990.806 883.2C990.916 896.725 990.91 910.251 990.799 923.783C986.496 923.776 982.193 924.095 977.897 924.351L977.543 940.365C961.606 940.413 945.663 940.385 929.726 940.275C929.629 944.411 930.973 949.719 928.88 952.885L926.649 953.052L871.591 952.941L871.722 965.573L812.624 965.462C812.582 969.259 812.368 973.368 812.236 977.193C805.286 977.186 757.247 976.479 754.406 977.816C753.609 981.461 753.872 987.323 753.9 991.238L664.147 991.169L663.856 981.315C648.46 981.239 633.063 981.267 617.667 981.385L617.702 968.816C603.462 968.746 588.863 969.266 574.506 969.321L574.471 966.446C574.45 964.187 574.132 957.583 570.722 958.096C556.324 960.251 543.269 960.383 528.716 960.334L528.422 947.543C511.983 947.162 494.17 947.502 477.627 947.502L477.444 939.796L452.857 939.769L452.742 923.97L444.423 924.248L444.192 893.275C447.371 893.275 453.804 893.829 456.149 892.637C456.673 890.046 456.832 891.224 455.93 888.958C444.304 887.121 408.88 889.637 393.748 889.263L393.742 877.566C377.884 877.469 362.024 877.545 346.167 877.802L346.013 869.106L325.396 869.134L324.93 852.511C320.814 852.365 315.473 851.437 312.249 854.527C306.716 859.828 298.876 859.128 294.211 853.432C274.73 857.229 277.399 855.802 258.757 856.121L258.517 870.471C248.657 870.589 238.862 869.757 228.976 869.688C198.236 869.695 167.496 869.515 136.757 869.147C136.816 865.267 136.696 861.04 136.656 857.132L116.885 857.056C116.23 853.19 115.638 849.316 115.108 845.429L66.5546 845.159L66.4812 827.33L52.7235 827.074C52.6334 823.838 52.5745 820.602 52.5468 817.366C52.5475 813.098 53.4864 813.271 56.7022 810.111C54.9276 808.906 4.41175 810.998 0.0096954 811.587L0 791.805L14.6897 791.486L14.8615 774.101C19.7819 773.678 25.6688 773.72 30.6876 773.63L30.6571 760.437H45.01L45.0952 748.172C49.6151 748.172 54.1855 748.082 58.7102 748.034C57.6487 733.185 53.821 726.775 53.7746 712.792C44.4841 712.668 37.2508 711.649 27.1856 711.795L27.1059 693.038L43.02 693.086L42.9611 679.235C60.1854 679.131 59.9318 680.233 60.8229 664.628C60.8007 665.016 63.2668 662.293 63.65 661.621C61.3959 660.318 58.1559 660.138 55.493 659.764L55.5589 640.667C62.7527 640.473 83.0729 643.55 87.5207 640.418C88.3681 636.441 88.1388 630.891 88.1353 626.685C83.1082 627.066 79.2557 626.872 74.2009 626.678L74.1143 611.226L88.718 611.032C88.0168 599.335 91.3532 593.681 91.0504 581.438L107.537 581.451L107.669 566.782C112.688 566.838 117.865 566.713 122.896 566.658L123.138 547.672L138.62 547.568L138.825 535.221C148.001 535.186 157.178 535.2 166.354 535.255L166.368 518.521C175.398 518.411 184.429 518.528 193.453 518.868C196.03 522.665 195.24 524.771 198.573 529.255L199.403 529.144C200.457 524.335 200.269 520.261 200.281 515.348C216.538 515.528 232.798 515.431 249.052 515.057L249.411 501.213C264.226 501.102 278.096 500.887 292.862 502.002C293.063 497.201 292.801 491.455 292.698 486.575C300.802 486.129 309.093 486.076 317.221 485.928L317.077 476.869L324.85 476.633L325.06 466.625L311.109 466.425C311.079 461.87 310.723 456.85 310.486 452.265C307.08 452.484 301.075 452.194 297.474 452.125C297.404 444.144 297.526 435.971 297.561 427.973L310.784 427.835L310.752 408.893C314.322 408.826 318.025 408.646 321.605 408.518C321.511 405.535 321.554 402.476 321.554 399.486C308.362 400.021 298.012 400.61 284.64 400.87C284.257 392.904 284.502 385.896 284.737 377.938C302.382 378.049 298.513 375.378 299.342 359.305C295.123 358.842 294.405 358.716 290.482 357.138C281.754 359.402 278.753 359.686 269.742 359.24C269.581 352.202 269.7 344.91 269.721 337.853L284.096 337.611C283.913 332.905 284.098 327.54 284.159 322.775C288.706 322.65 293.419 322.675 297.982 322.639C296.425 314.768 295.71 312.44 295.863 304.359C279.759 304.837 263.653 303.708 247.588 303.706C247.418 298.072 247.459 292.144 247.408 286.482L261.124 286.327C260.984 282.266 261.163 277.39 261.223 273.254C263.035 273.026 265.041 273.078 266.844 272.753C269.899 272.202 268.705 268.441 271.007 268.048C273.961 267.543 275.359 268.658 278.079 266.961C278.509 263.837 278.711 262.713 276.695 260.333C273.694 259.146 268.236 259.676 264.681 259.596L264.715 245.318C258.427 245.489 250.695 244.867 243.859 244.915C243.61 239.561 243.804 234.226 243.929 228.868C256.103 227.786 264.69 227.484 276.782 227.538C276.998 221.725 278.59 216.188 276.323 211.7C273.538 210.033 273.464 210.629 269.669 210.556C269.535 184.82 269.609 159.084 269.89 133.35L281.551 133.226L281.826 30.7174H298.139C298.361 21.0361 297.266 10.3389 297.282 0.113638Z" fill="#1D1C1D"/>
<path d="M715.768 19.1963L727.672 19.5116C727.582 21.8016 726.792 30.3736 728.926 31.5634C731.594 33.0524 732.529 30.7651 732.869 36.4075C733.347 44.4037 732.536 52.65 732.689 60.7002C736.188 60.7584 740.401 60.7147 743.831 60.9988C744.163 81.5692 744.26 102.143 744.122 122.716C744.115 133.506 743.713 144.946 744.51 155.643C745.237 165.385 745.133 169.97 755.679 169.876C756.795 169.877 757.91 169.869 759.019 169.851C759.061 173.305 759.158 176.72 758.943 180.167L746.353 179.804C746.277 192.538 745.105 204.655 745.071 217.795L731.878 217.791C731.913 225.564 731.074 248.872 734.102 254.869C736.167 256.526 742.59 256.142 745.632 256.169C745.694 260.088 745.653 262.873 746.276 266.775C744.073 268.34 741.572 270.011 739.507 271.713L728.884 271.839C729.21 276.498 729.633 281.415 729.806 286.058C733.596 286.585 738.433 286.588 741.246 288.348C743.027 291.095 742.41 290.695 742.41 294.623C745.854 294.701 749.97 294.43 752.991 295.763C754.633 298.5 753.386 299.421 751.515 301.734C743.172 305.803 730.471 299.456 726.917 303.868C725.711 310.798 728.58 310.75 722.302 314.875L721.879 316.148C723.896 317.504 726.536 318.044 726.688 319.171C727.152 322.723 727.028 327.497 727.041 331.136C731.608 331.187 739.832 330.475 742.937 333.21C743.519 334.536 744.205 335.95 743.429 337.384C737.137 349.052 720.57 343.876 712.566 338.473C713.155 348.989 713.744 366.815 712.92 377.492L713.343 379.391C716.634 381.237 721.56 380.711 725.455 380.639L725.351 388.669C716.197 387.139 710.55 386.949 701.307 386.671C698.549 390.872 698.14 395.583 699.616 400.417C701.404 402.859 700.752 416.775 700.711 420.681L711.936 420.715L712.185 430.435L696.359 430.227L696.339 419.006C692.119 418.919 687.92 418.801 683.7 418.863L683.437 440.75C690.109 440.77 704.75 440.588 710.619 441.831C711.853 443.704 711.34 444.876 711.326 447.612C707.986 449.451 689.396 448.657 683.457 449.33C683.388 456.645 682.529 471.782 683.09 478.048C687.012 478.218 690.934 478.432 694.863 478.423L694.974 497.756L684.892 497.61L684.317 500.396C681.455 502.121 675.946 500.95 672.094 501.075C672.135 507.068 672.232 513.159 672.184 519.146L683.665 519.305L683.838 531.029C679.923 530.911 674.553 530.149 671.338 531.549C667.68 535.353 667.576 541.547 672.011 545.012C672.17 549.066 672.26 552.641 672.205 556.694L672.17 580.212L660.418 580.323L660.21 596.135L647.967 596.156C647.96 606.092 647.807 616.451 647.987 626.346C643.456 626.339 636.693 626.651 632.591 625.39C628.953 624.821 621.989 625.736 618.068 626.131C618.074 629.685 618.275 637.224 617.679 640.37L603.412 640.239L603.205 626.955C598.95 626.976 594.522 626.935 590.289 627.032C590.386 631.203 590.774 636.857 589.831 640.8C589.547 636.906 589.617 631.445 589.547 627.427L579.41 627.184C577.615 624.53 579.909 606.146 578.669 601.268C561.685 602.751 537.406 600.353 518.801 601.677C514.935 599.217 516.201 602.087 516.284 597.826C512.819 597.964 509.353 598.068 505.886 598.158C505.994 593.329 506.138 588.506 506.319 583.683C501.411 583.773 496.501 583.801 491.594 583.759L490.376 582.776C489.98 585.325 489.212 592.31 489.617 594.839C486.383 596.509 479.933 596.169 476.041 596.183C476.04 599.315 476.229 609.425 475.753 611.975C475.859 613.742 476.162 616.104 475.84 617.74C471.565 624.814 468.274 622.05 460.794 622.348C460.532 628.355 460.529 633.822 460.577 639.844C454.717 639.795 448.38 639.864 442.57 639.49C442.76 633.386 443.14 622.223 442.463 616.326L443.377 612.64C440.783 611.233 435.052 611.413 431.887 611.303C431.509 613.25 431.5 616.943 431.43 619.042C426.472 618.994 421.515 618.883 416.56 618.717C416.311 611.469 416.433 603.646 416.411 596.357C413.047 596.357 407.774 596.946 405.249 595.49C403.614 592.844 404.194 592.636 404.092 588.984L404.121 582.332C400.874 582.526 398.25 582.914 395.085 582.207L393.931 580.648C389.838 579.955 385.614 580.572 381.426 580.905C381.678 569.562 381.262 557.055 381.343 545.469C378.608 545.483 375.791 545.386 373.051 545.324C370.657 545.379 369.686 545.338 367.297 545.123C365.792 542.213 366.422 520.746 367.448 516.7C367.26 512.113 367.381 506.604 367.359 501.941C361.67 501.047 356.674 501.525 351.038 500.707C346.957 501.289 337.689 506.646 333.215 504.539C330.308 501.296 331.15 493.935 331.2 489.285C335.433 489.242 340.507 490.508 343.646 489.066C345.085 486.566 344.539 486.695 344.423 483.256C344.269 479.268 344.691 472.124 344.77 467.842L353.108 467.31L354.085 466.563C354.079 461.3 354.095 456.655 354.427 451.41C354.143 449.827 354.271 450.319 353.556 448.865C351.076 447.797 348.063 448.346 345.28 448.542C335.318 449.218 326.034 448.533 316.078 448.037L316.003 438.195C315.92 436.188 315.974 435.111 316.088 433.14C318.919 429.543 322.634 431.568 328.968 430.112L329.845 429.902L329.674 418.845L339.613 418.804C339.685 414.15 338.563 407.468 340.172 403.277C340.564 402.257 341.491 402.423 343.057 402.041C343.213 397.787 342.344 388.875 342.031 384.312C336.794 385.918 308.936 388.92 305.938 384.505C307.138 382.446 313.157 380.229 315.66 379.156C315.828 376.125 315.565 373.202 315.385 370.172C319.769 369.953 323.952 370.544 327.897 368.908C329.884 366.789 329.258 367.243 329.742 363.72L339.909 363.915C339.923 360.777 340.079 357.419 340.166 354.262L353.762 354.277C353.796 345.98 353.739 337.682 353.592 329.386L367.977 329.655L368.008 292.046C361.978 292.248 356.7 292.152 350.659 291.984L350.514 274.332C355.232 273.779 361.663 273.822 366.557 273.721C366.606 269.237 366.582 265.999 366.247 261.528L382.403 261.234C383.46 254.448 382.582 252.531 381.045 245.804C390.002 246.186 399.244 246.317 408.229 246.551C408.246 241.535 408.609 237.976 409.143 232.971L416.495 233.148L417.328 232.261C417.901 230.913 418.063 230.695 418.814 229.436C422.227 228.036 428.02 228.624 431.889 228.767L432.104 217.786L448.445 217.75C452.97 217.842 457.996 217.68 462.562 217.63C462.59 213.516 462.285 210.036 461.951 205.943L461.525 203.758C461.069 199.944 460.849 198.151 460.957 194.258L477.537 194.218C477.477 196.799 477.205 201.909 477.426 204.278L476.838 206.062L481.029 206.107L489.215 206.103C492.544 210.349 498.229 209.602 498.528 213.932C496.868 215.818 494.069 216.39 491.578 217.207C490.751 219.902 491.038 225.419 491.052 228.469C498.46 227.446 504.942 226.574 512.427 226.317C513.562 232.587 513.631 235.66 513.763 242.107C521.264 243.655 525.783 243.332 533.332 243.277C532.944 234.917 533.054 226.109 533.02 217.71L551.084 217.668C551.001 212.693 550.862 210.328 550.107 205.429C554.036 205.425 557.958 205.446 561.886 205.491C564.201 205.496 569.474 205.276 571.393 205.981C570.354 210.667 570.492 212.914 570.603 217.713C577.144 217.785 583.685 217.791 590.226 217.729C590.656 209.786 590.407 202.007 590.261 194.06L601.528 193.543C600.8 188.942 602.172 173.567 602.255 167.266C606.919 167.113 609.933 167.021 614.603 167.374C616.682 159.451 616.1 153.856 615.864 145.577L630.152 145.121L630.588 130.615L642.111 130.498C642.056 117.287 645.029 106.709 644.426 94.9944L658.291 94.9874C658.367 87.5282 658.319 81.0627 659.372 73.6243C663.148 73.6943 667.77 73.6209 671.435 74.162L671.525 61.4395L685.404 61.2781L685.349 47.9791C690.795 47.8079 696.352 47.6936 701.778 47.3229C701.473 42.0568 701.189 38.0774 701.501 32.8321L715.449 32.5085C715.588 28.078 715.775 23.6268 715.768 19.1963Z" fill="#585858"/>
<path d="M715.765 19.1963L727.67 19.5116C727.579 21.8016 726.79 30.3736 728.924 31.5633C731.591 33.0524 732.527 30.7651 732.866 36.4075C733.344 44.4037 732.534 52.65 732.686 60.7002C736.185 60.7584 740.398 60.7147 743.828 60.9988C744.161 81.5692 744.258 102.143 744.119 122.716C744.112 133.506 743.71 144.946 744.507 155.643C745.235 165.385 745.131 169.97 755.677 169.876C756.793 169.877 757.908 169.869 759.017 169.851C759.058 173.305 759.155 176.72 758.941 180.167L746.35 179.804C746.274 192.538 745.103 204.655 745.069 217.795L731.876 217.791C731.91 225.564 731.072 248.872 734.1 254.869C736.165 256.526 742.588 256.142 745.63 256.169C745.692 260.088 745.651 262.873 746.274 266.775C744.071 268.339 741.569 270.011 739.505 271.713L728.882 271.839C729.208 276.498 729.631 281.415 729.804 286.058C733.594 286.585 738.431 286.588 741.244 288.348C743.024 291.095 742.408 290.695 742.408 294.623C745.852 294.701 749.967 294.43 752.988 295.763C754.631 298.5 753.383 299.421 751.513 301.734C743.17 305.803 730.469 299.456 726.914 303.868C725.709 310.798 728.577 310.75 722.3 314.875L721.877 316.148C723.893 317.504 726.533 318.044 726.686 319.171C727.15 322.723 727.025 327.497 727.039 331.136C731.605 331.187 739.83 330.475 742.934 333.21C743.516 334.536 744.202 335.95 743.426 337.384C737.135 349.052 720.567 343.876 712.564 338.473C713.153 348.989 713.742 366.815 712.918 377.492C712.259 373.226 712.536 368.686 712.62 364.335L698.457 364.163L698.45 354.329L684.591 354.214C684.598 344.596 684.515 334.978 684.349 325.361L672.23 325.296C672.285 322.777 672.611 320.027 671.648 317.787C669.735 316.32 666.846 316.583 664.289 316.488L664.4 302.153C670.65 302.406 676.9 302.609 683.15 302.764C683.289 292.63 683.254 282.495 683.032 272.362L648.532 272.455C648.449 266.331 648.435 260.207 648.47 254.084C643.426 253.776 638.139 253.971 633.074 254.066L632.769 243.744L617.22 243.555C616.458 241.145 616.659 232.055 616.645 228.971L589.836 228.884C589.829 225.126 590.044 221.479 590.224 217.729C590.654 209.786 590.404 202.007 590.259 194.06L601.525 193.543C600.798 188.942 602.17 173.567 602.253 167.266C606.916 167.113 609.93 167.021 614.601 167.374C616.679 159.451 616.097 153.856 615.862 145.577L630.15 145.121L630.586 130.615L642.109 130.498C642.054 117.287 645.026 106.709 644.423 94.9943L658.289 94.9874C658.365 87.5282 658.316 81.0627 659.37 73.6243C663.146 73.6943 667.768 73.6209 671.433 74.162L671.523 61.4395L685.402 61.2781L685.347 47.979C690.793 47.8079 696.35 47.6936 701.776 47.3229C701.471 42.0568 701.187 38.0774 701.498 32.8321L715.447 32.5085C715.585 28.078 715.772 23.6268 715.765 19.1963Z" fill="#3C3735"/>
<path d="M686.066 115.92C685.935 111.583 685.138 106.229 686.974 102.654C690.439 99.4291 709.293 99.1638 713.693 101.066C718.619 108.42 716.118 136.838 715.993 146.388C715.827 170.161 715.813 193.934 715.951 217.708L701.858 217.775C701.941 229.508 702.925 250.085 700.264 260.924L689.579 260.646C689.586 264.05 690.175 268.69 688.512 271.215C686.669 272.328 685.193 272.207 683.031 272.361L648.531 272.454C648.448 266.33 648.434 260.206 648.469 254.082C643.425 253.775 638.138 253.97 633.073 254.065L632.768 243.743L617.219 243.554C618.217 233.687 616.914 210.703 617.489 197.95L631.742 197.601C632.726 192.014 632.601 186.248 632.657 180.564L646.134 180.394C645.628 172.814 646.723 170.379 647.603 162.99C648.123 158.657 648.081 152.221 648.088 147.748C652.308 147.875 656.14 147.963 660.339 148.403C660.297 146.356 660.207 139.239 660.623 137.703C663.47 127.234 664.344 127.856 663.983 116.405L686.066 115.92Z" fill="#1D1C1D"/>
<path d="M678.441 133.954L697.745 133.791C697.33 137.752 697.281 142.562 697.143 146.621C698.584 168.879 696.297 189.414 696.332 211.338C692.188 211.171 687.899 210.936 683.776 210.846C683.88 224.74 683.735 238.636 683.326 252.525C675.96 252.564 667.999 252.744 660.689 252.588C660.786 248.846 661.451 243.203 659.899 240.114L655.235 240.122C652.803 240.403 652.672 240.57 650.267 239.823C647.828 235.715 657.231 231.933 659.836 228.864C652.249 228.287 641.855 228.296 633.838 227.899C633.908 222.021 633.776 215.911 633.734 210.014C647.108 210.674 651.057 209.705 650.544 195.128L650.122 184.845L664.312 184.734C664.021 178.7 663.502 168.412 664.396 162.58C668.56 162.545 673.653 163.488 677.311 161.748C678.857 159.548 678.33 159.508 678.489 156.288C678.205 149.563 678.434 140.83 678.441 133.954Z" fill="#585858"/>
<path d="M664.399 162.581C664.946 168.602 664.752 175.419 664.725 181.526L678.25 180.769C679.421 190.995 678.077 196.924 677.855 207.118C677.71 213.752 679.04 220.853 679.061 227.797C672.908 227.967 666.762 228.06 660.609 228.078C660.491 222.062 660.131 218.353 659.355 212.357C661.184 209.982 662.251 208.563 664.357 206.46C664.184 202.721 663.955 198.84 663.851 195.113C659.465 195.124 654.913 195.203 650.548 195.129L650.125 184.846L664.316 184.735C664.025 178.701 663.505 168.413 664.399 162.581Z" fill="#585858"/>
<path d="M678.437 133.954L697.742 133.791C697.326 137.752 697.278 142.562 697.139 146.621C691.471 146.535 684.667 146.259 679.123 144.95C679.047 148.472 679.137 152.908 678.486 156.288C678.202 149.563 678.43 140.83 678.437 133.954Z" fill="#585858"/>
<path d="M659.836 228.864L659.656 231.199C659.649 233.805 659.511 237.644 659.899 240.114L655.235 240.122C652.803 240.403 652.672 240.57 650.267 239.823C647.828 235.714 657.231 231.933 659.836 228.864Z" fill="#3C3735"/>
<path d="M655.234 240.122C655.269 235.289 655.532 233.934 659.655 231.199C659.648 233.806 659.51 237.645 659.898 240.114L655.234 240.122Z" fill="#3C3735"/>
<path d="M602.252 167.265C606.915 167.112 609.929 167.02 614.6 167.373C614.586 171.519 614.655 175.665 614.794 179.809C609.631 180.129 607.414 180.266 602.294 179.771C602.273 183.033 602.529 190.926 601.524 193.541C600.797 188.941 602.169 173.565 602.252 167.265Z" fill="#3C3735"/>
<path d="M519.67 509.444C519.677 506.991 519.373 505.079 520.357 502.965C533.36 501.988 576.59 500.949 589.333 502.861C590.095 505.238 589.846 506.922 589.756 509.409C593.033 507.802 612.268 508.772 617.313 508.758L617.472 518.688C622.551 518.785 628.406 518.757 633.402 519.089L633.444 531.86C642.029 532.082 650.697 532.359 659.275 532.476C658.915 536.925 658.638 540.493 659.359 544.99C664.306 545.358 667.043 545.254 672.004 545.011C672.163 549.065 672.254 552.64 672.198 556.694L672.163 580.211L660.412 580.322L660.204 596.134L647.96 596.155C647.953 606.091 647.801 616.45 647.981 626.345C643.449 626.338 636.687 626.65 632.584 625.389C628.947 624.82 621.983 625.735 618.061 626.13C618.068 629.685 618.269 637.224 617.673 640.369L603.406 640.238L603.198 626.955C598.944 626.975 594.516 626.934 590.282 627.031C590.379 631.202 590.767 636.856 589.825 640.799C589.541 636.905 589.61 631.445 589.541 627.426L579.404 627.183C577.609 624.529 579.903 606.145 578.662 601.267C561.679 602.75 537.4 600.353 518.794 601.676C514.928 599.216 516.194 602.086 516.278 597.825C520.254 596.113 538.889 595.677 544.543 595.33L544.71 569.997L532.452 569.963L532.598 558.419L519.293 558.35L519.359 545.378L506.665 545.448C506.482 536.53 506.599 527.3 506.604 518.355H519.678L519.67 509.444Z" fill="#B2ACA9"/>
<path d="M590.001 584.201L602.944 584.181L603.208 597.228L615.195 597.492C615.084 601.24 614.682 607.601 615.327 611.003C615.694 611.28 616.089 611.523 616.435 611.821C618.147 613.304 617.184 636.087 617.683 640.369L603.416 640.237L603.208 626.954C598.953 626.975 594.526 626.933 590.292 627.03C590.389 631.202 590.777 636.856 589.835 640.798C589.551 636.904 589.62 631.444 589.551 627.425L579.413 627.183C577.619 624.529 579.912 617.461 578.672 612.583C580.529 608.557 580.536 601.282 580.03 596.944C583.896 595.995 585.92 596.147 589.862 596.126L590.001 584.201Z" fill="#C4BFBD"/>
<path d="M616.132 558.17C620.955 558.794 627.371 558.683 632.367 558.731C632.436 566.748 633.6 572.97 633.42 581.639C648.11 581.237 648.117 581.216 647.964 596.155C647.957 606.091 647.805 616.451 647.985 626.345C643.453 626.338 636.691 626.65 632.589 625.389C632.824 621.53 632.699 616.014 632.734 612.03L632.582 596.03L618.148 596.037C618.128 580.807 615.266 574.758 616.132 558.17Z" fill="#C4BFBD"/>
<path d="M617.953 611.704C622.706 611.94 627.938 611.94 632.74 612.03C632.705 616.014 632.83 621.53 632.594 625.389C628.957 624.821 621.993 625.735 618.071 626.13L617.953 611.704Z" fill="#3C3735"/>
<path d="M659.367 544.99C664.315 545.357 667.052 545.254 672.013 545.011C672.172 549.065 672.262 552.64 672.207 556.693L660.365 556.534C660.434 552.834 660.677 548.385 659.367 544.99Z" fill="#B2ACA9"/>
<path d="M453.743 508.958C462.449 508.716 513.577 506.609 518.746 508.702L519.675 509.443L519.683 518.354H506.609C506.604 527.3 506.487 536.529 506.67 545.447L519.364 545.378L519.298 558.349L532.602 558.418L532.457 569.962L544.714 569.997L544.548 595.33C538.894 595.676 520.258 596.113 516.282 597.824C512.817 597.963 509.351 598.067 505.885 598.157C505.993 593.327 506.137 588.504 506.317 583.682C501.409 583.772 496.5 583.8 491.592 583.758L490.374 582.774C489.979 585.324 489.21 592.308 489.615 594.838C486.381 596.507 479.932 596.168 476.04 596.182C476.038 599.314 476.227 609.423 475.751 611.973C475.857 613.74 476.16 616.103 475.839 617.738C471.563 624.813 468.273 622.048 460.792 622.346C460.53 628.354 460.527 633.821 460.575 639.842C454.715 639.794 448.378 639.863 442.568 639.489C442.758 633.384 443.139 622.221 442.461 616.325L443.375 612.638C440.782 611.232 435.051 611.412 431.885 611.301C431.507 613.248 431.499 616.941 431.428 619.041C426.47 618.992 421.514 618.882 416.559 618.715C416.309 611.467 416.431 603.644 416.409 596.355C413.046 596.355 407.772 596.944 405.247 595.489C403.613 592.842 404.193 592.634 404.091 588.982L404.12 582.331C404.076 578.374 404.148 574.286 404.165 570.322L405.562 569.803C407.582 567.35 406.864 562.105 406.739 558.661C410.93 558.543 415.12 558.397 419.309 558.231L419.326 545.426C424.509 545.44 427.184 545.454 432.272 544.699C432.533 541.317 432.642 537.513 432.808 534.097C437.569 534 442.44 535.427 445.257 531.443C446.432 530.958 446.989 530.695 448.1 530.078C449.902 524.992 453.257 513.864 453.743 508.958Z" fill="#B2ACA9"/>
<path d="M476.629 556.583L491.345 556.465C491.25 563.775 491.326 575.714 490.374 582.775C489.979 585.325 489.21 592.309 489.615 594.838C486.381 596.508 479.931 596.169 476.039 596.182C476.038 599.314 476.227 609.424 475.751 611.974C475.857 613.741 476.16 616.104 475.838 617.739C471.563 624.813 468.273 622.049 460.792 622.347C460.53 628.354 460.527 633.821 460.575 639.843C454.715 639.794 448.378 639.863 442.568 639.489C442.758 633.385 443.139 622.222 442.461 616.325L443.375 612.639L444.488 610.422C445.321 608.53 445.992 587.05 445.614 583.662L447.214 582.809C446.838 580.502 446.941 573.386 446.94 570.753C451.474 570.081 456.293 570.254 460.896 570.254C466.124 570.309 471.351 570.261 476.577 570.115C476.568 565.791 476.452 560.858 476.629 556.583Z" fill="#C4BFBD"/>
<path d="M446.942 570.752C451.476 570.08 456.296 570.253 460.899 570.253L460.962 583.266C456.449 583.114 451.709 582.871 447.216 582.809C446.84 580.502 446.943 573.385 446.942 570.752Z" fill="#B2ACA9"/>
<path d="M460.85 612.112L475.756 611.974C475.862 613.741 476.165 616.103 475.843 617.739C471.568 624.813 468.278 622.049 460.797 622.346L460.85 612.112Z" fill="#B2ACA9"/>
<path d="M453.752 508.958C462.457 508.716 513.585 506.609 518.755 508.702L476.762 508.751L476.773 519.082L460.838 519.11L460.767 531.679C455.902 531.623 450.044 531.72 445.266 531.443C446.441 530.958 446.997 530.695 448.109 530.078C449.911 524.992 453.266 513.864 453.752 508.958Z" fill="#585858"/>
<path d="M446.341 558.668L460.834 558.509L460.897 570.254C456.294 570.254 451.474 570.08 446.94 570.752L445.875 569.997C446.717 565.84 446.45 562.881 446.341 558.668Z" fill="#C4BFBD"/>
<path d="M445.259 531.443C444.776 536.127 444.803 539.502 444.826 544.193C440.701 544.214 436.316 544.068 432.273 544.699C432.535 541.317 432.643 537.513 432.809 534.097C437.57 534 442.441 535.428 445.259 531.443Z" fill="#585858"/>
<path d="M431.883 611.302C432.275 609.015 432.472 604.83 434.607 604.227C439.966 602.71 444.149 605.19 444.485 610.422L443.373 612.639C440.779 611.232 435.048 611.412 431.883 611.302Z" fill="#585858"/>
<path d="M445.874 569.997L446.939 570.752C446.94 573.385 446.837 580.502 447.213 582.809L445.613 583.661C444.768 580.786 444.066 572.395 445.874 569.997Z" fill="#C4BFBD"/>
<path d="M616.518 345.924C622.083 345.883 627.827 345.762 633.377 345.807L633.37 358.021C631.042 358.624 629.517 358.716 627.965 360.501C626.767 363.271 627.231 360.718 627.335 363.847L672.415 363.464C672.374 373.182 672.381 382.9 672.443 392.618C674.848 392.701 682.421 392.808 684.417 393.354L684.514 394.421C683.523 401.375 683.682 411.484 683.654 418.679L661.225 418.273L661.052 405.565L648.378 405.493L648.087 392.388L603.61 392.435L603.596 405.305L579.926 405.531C579.836 398.745 579.96 391.878 579.891 385.059C579.884 382.652 579.94 381.284 580.148 378.885L581.215 378.047C584.624 378.013 586.467 378.438 589.045 376.623C590.583 373.669 589.862 367.929 589.779 364.174C594.124 364.263 598.524 364.306 602.868 364.554L602.979 354.249L616.602 359.643C616.484 355.072 616.29 350.489 616.518 345.924Z" fill="#939393"/>
<path d="M381.173 465.26C388.583 465.325 395.906 465.429 403.317 465.215L403.109 478.938L391.141 479.144L390.777 491.471L379.742 491.879L379.927 503.311L367.948 503.332C368.056 507.988 368.357 512.132 367.444 516.698C367.257 512.111 367.377 506.602 367.356 501.939C367.368 498.987 367.722 493.664 366.531 491.263C367.495 488.416 367.37 481.637 367.443 478.282C372.52 478.163 376.021 478.158 381.032 477.31L381.173 465.26Z" fill="#3C3735"/>
<path d="M647.088 490.63C650.823 490.776 654.509 491.09 658.237 490.521C662.928 489.806 664.065 486.805 667.931 486.757L668.014 487.398C665.256 489.154 662.298 490.799 660.053 493.127C660.233 496.029 660.351 498.939 660.399 501.849C662.9 501.939 682.531 500.498 683.598 499.528C683.771 496.659 683.993 494.585 683.667 491.717C680.438 489.872 672.934 491.724 671.707 488.957C674.874 489.474 681.637 489.825 683.93 490.689C685.219 492.519 684.886 495.233 684.893 497.608L684.318 500.394C681.457 502.119 675.948 500.948 672.095 501.073C672.137 507.067 672.234 513.157 672.185 519.144L683.667 519.303L683.84 531.027C679.925 530.91 674.555 530.148 671.34 531.547C667.682 535.351 667.578 541.546 672.012 545.01C667.051 545.253 664.314 545.357 659.367 544.99C658.646 540.493 658.923 536.924 659.283 532.476C660.371 529.489 660.281 521.251 660.33 517.869L671.402 519.2C671.534 513.927 671.361 508.66 671.229 503.387C663.247 503.387 655.265 503.318 647.282 503.2C646.846 498.592 646.97 495.247 647.088 490.63Z" fill="#585858"/>
<path d="M363.806 430.351C367.79 430.402 373.978 430.313 377.768 430.771L378.758 433.445L378.028 434.665C371.084 436.31 371.001 435.624 366.251 440.736L366.684 451.825C362.119 451.866 358.972 451.776 354.426 451.41C354.141 449.826 354.27 450.318 353.555 448.864C351.075 447.796 348.062 448.345 345.279 448.541C344.721 434.665 347.398 435.971 360.36 436.037C361.53 433.979 362.507 432.328 363.806 430.351Z" fill="#3C3735"/>
<path d="M684.422 393.355C685.399 377.507 681.11 375.191 700.04 377.839C700.31 381.002 700.366 383.636 701.308 386.67C698.55 390.871 698.141 395.582 699.617 400.416C694.026 400.039 690.263 401.764 685.794 400.071C684.138 397.982 684.706 397.731 684.519 394.421L684.422 393.355Z" fill="#3C3735"/>
<path d="M373.047 545.323C374.978 544.007 379.314 544.45 382.057 544.471C382.035 552.925 381.871 561.891 382.077 570.296L404.163 570.324C404.146 574.287 404.074 578.375 404.118 582.332C400.871 582.526 398.247 582.914 395.081 582.207L393.928 580.648C389.835 579.955 385.61 580.572 381.422 580.904C381.674 569.561 381.258 557.054 381.339 545.469C378.604 545.483 375.787 545.386 373.047 545.323Z" fill="#3C3735"/>
<path d="M579.895 385.06C579.583 388.346 580.103 390.085 577.061 391.567L575.766 390.981C572.876 386.222 570.077 368.449 573.521 364.14L576.147 363.857C579.348 363.89 582.411 363.941 585.619 363.81C585.12 370.84 585.757 372.91 581.219 378.047L580.152 378.886C579.944 381.285 579.888 382.653 579.895 385.06Z" fill="#3C3735"/>
<path d="M343.301 383.82C347.989 384.216 352.574 384.402 357.091 385.695C358.108 408.522 350.381 394.741 343.05 402.04C343.206 397.787 342.337 388.874 342.023 384.311L343.301 383.82Z" fill="#3C3735"/>
<path d="M460.957 194.257L477.537 194.217C477.476 196.799 477.204 201.908 477.426 204.277L476.838 206.061C472.673 205.547 466.045 205.003 461.95 205.942L461.525 203.757C461.069 199.944 460.849 198.15 460.957 194.257Z" fill="#3C3735"/>
<path d="M461.523 203.758C465.901 203.829 473.234 203.76 477.424 204.277L476.836 206.062C472.671 205.548 466.043 205.004 461.949 205.943L461.523 203.758Z" fill="#3C3735"/>
<path d="M354.428 451.41C358.975 451.777 362.122 451.867 366.687 451.825C366.736 456.369 366.757 460.914 366.75 465.458C362.95 465.154 356.479 463.693 354.087 466.563C354.081 461.3 354.097 456.655 354.428 451.41Z" fill="#585858"/>
<path d="M576.141 363.857C579.48 363.137 579.681 363.728 581.199 361.681C581.289 358.663 580.762 356.119 582.072 353.977C584.504 352.844 587.068 353.245 589.798 353.357L589.777 364.175C589.86 367.929 590.581 373.67 589.043 376.623C586.465 378.439 584.622 378.013 581.213 378.047C585.751 372.909 585.114 370.839 585.613 363.809C582.404 363.941 579.342 363.89 576.141 363.857Z" fill="#585858"/>
<path d="M351.336 491.478L366.536 491.264C367.726 493.665 367.373 498.988 367.361 501.939C361.672 501.045 356.675 501.524 351.039 500.706C351.461 498.558 351.323 493.877 351.336 491.478Z" fill="#3C3735"/>
<path d="M343.309 383.821C344.733 382.835 345.786 382.282 346.752 380.839C345.002 380.578 345.21 380.66 343.404 380.783L343.016 379.902C345.5 376.598 362.868 372.852 366.922 378.829L366.185 380.654C363.075 381.194 359.523 380.698 357.627 382.269C357.469 383.239 357.166 384.769 357.099 385.696C352.583 384.402 347.997 384.216 343.309 383.821Z" fill="#3C3735"/>
<path d="M364.165 419.305L377.143 418.947C377.099 422.292 376.79 427.738 377.774 430.771C373.984 430.314 367.796 430.402 363.812 430.351C364.539 426.487 364.266 423.227 364.165 419.305Z" fill="#3C3735"/>
<path d="M344.771 467.842L353.109 467.31C353.071 470.99 353.173 474.67 353.417 478.341C350.851 478.24 347.698 477.74 345.603 478.965C344.556 480.828 344.669 481.161 344.424 483.255C344.27 479.268 344.692 472.124 344.771 467.842Z" fill="#3C3735"/>
<path d="M316.001 438.195C315.918 436.188 315.972 435.111 316.086 433.139C318.917 429.543 322.632 431.568 328.966 430.112L329.843 429.901C323.576 433.157 328.139 434.285 323.931 437.643C320.742 438.261 319.302 438.183 316.001 438.195Z" fill="#3C3735"/>
<path d="M457.391 340.007C463.554 339.708 470.599 339.89 476.833 339.91L476.717 354.32L491.119 354.305L491.337 375.383C496.19 375.638 501.521 375.659 506.419 375.778C506.599 389.781 506.379 398.992 505.164 412.948L491.598 413.252L491.229 405.455L476.973 405.23L476.836 392.507C461.289 392.204 448.153 391.623 432.394 391.732L432.523 405.323L423.326 405.311C417.227 405.386 410.577 406.234 403.943 406.369L403.69 418.606L390.259 418.681C390.543 410.147 390.28 401.377 390.148 392.824L403.29 392.57L403.358 378.283C411.846 378.099 416.951 377.865 425.463 376.846L425.431 364.676L416.302 364.518C416.15 361.24 416.151 357.54 416.085 354.227L444.559 354.207C453.247 364.045 444.997 363.939 462.24 363.464C462.445 356.075 463.688 355.674 457.363 352.025C457.352 348.019 457.362 344.013 457.391 340.007Z" fill="#939393"/>
<path d="M463.32 432.631C473.988 432.252 476.08 430.99 483.657 438.77C483.93 442.829 484.906 453.273 482.711 456.264L480.175 456.586C477.967 459.221 480.493 459.236 478.302 462.729L476.504 463.061C457.481 463.475 453.581 464.27 456.17 441.762C456.607 437.969 460.716 436.288 463.32 432.631Z" fill="#1D1C1D"/>
<path d="M604.496 432.503C607.338 432.442 618.29 431.888 620.093 433.061C624.567 435.979 627.182 449.98 623.821 454.06L620.973 453.853C619.891 455.364 620.79 459.069 620.191 462.317L619.182 462.902C613.541 462.853 606.758 463.178 601.38 463.274C594.211 463.403 597.542 442.148 598.929 438.01C600.744 436.513 600.377 437.057 603.494 437.072C604.851 435.296 604.38 435.267 604.496 432.503Z" fill="#1D1C1D"/>
<path d="M575.647 251.778C578.793 251.777 581.176 251.542 584.163 252.51C587.447 256.347 582.32 257.881 582.126 267.052L582.112 268.18C576.527 268.938 573.381 270.129 566.916 270.728C567.415 274.888 569.757 283.753 564.949 285.17L553.931 285.105C553.758 277.585 553.536 273.543 552.289 266.147C555.442 266.537 558.775 266.751 561.962 267.009L561.997 254.972C568.032 254.717 570.429 255.031 575.647 251.778Z" fill="#3C3735"/>
<path d="M473.141 251.488C480.846 255.818 482.566 255.609 491.334 255.613L491.38 268.339L505.452 268.276C505.758 273.794 505.535 280.069 505.465 285.649L491.078 285.676C491.065 280.177 490.902 275.838 490.507 270.353C484.838 270.304 481.929 270.41 476.403 271.522C475.535 266.353 472.123 255.745 473.141 251.488Z" fill="#3C3735"/>
<path d="M506.451 352.896L507.526 353.618C508.386 356.055 507.898 359.627 507.749 362.323C512.857 362.377 515.735 362.434 520.767 363.146C520.636 370.676 522.235 383.766 519.808 391.225C519.534 392.068 517.394 392.377 516.231 392.71C513.702 389.468 514.163 382.858 514.038 378.542C509.966 376.184 508.836 376.204 508.487 371.338L508.354 369.929C508.04 366.406 491.163 356.464 506.451 352.896Z" fill="#585858"/>
<path d="M302.139 505.876L312.531 505.516L312.505 519.208C321.384 519.18 330.263 519.208 339.142 519.291C331.695 534.95 336.854 533.308 351.283 533.066C351.264 539.586 350.965 552.017 351.705 558.094C356.579 558.849 360.972 558.842 365.891 558.96C365.993 562.313 366.006 566.672 366.245 569.942C366.94 578.077 366.509 587.709 366.622 595.996L380.504 596.19L380.505 612.168L393.592 612.307C393.593 615.231 393.315 626.033 394.105 628.133C398.584 628.999 403.478 628.784 408.064 628.708L408.299 642.372C414.601 641.936 418.834 641.915 425.169 642.088C425.411 648.303 425.523 654.526 425.507 660.741C431.673 660.866 437.833 660.45 443.717 660.582C443.643 666.686 443.51 672.839 443.667 678.944C449.465 679.048 471.947 678.785 475.517 681.071C477.081 685.471 476.2 691.68 475.861 696.468L491.372 696.627C491.277 699.731 490.765 709.654 491.081 712.224C495.059 712.19 503.578 711.331 506.47 714.421C509.529 717.691 508.108 725.653 506.752 729.443C510.369 734.113 507.221 744.029 506.011 749.357C505.1 753.376 505.241 756.016 505.319 760.084C499.439 760.084 437.982 759.626 436.062 760.783C430.479 760.991 426.332 761.054 420.771 760.783L421.035 777.732L434.71 777.58C445.388 778.065 456.542 777.718 467.286 777.878C475.462 777.995 484.007 778.598 492.066 778.536C491.727 782.721 491.314 786.844 491.356 791.043C499.06 790.96 509.378 790.586 516.817 791.168C517.291 791.971 517.778 792.713 518.339 793.468C523.194 794.258 527.874 793.78 532.743 793.932L532.688 807.735C538.016 807.714 543.996 807.562 549.255 807.867C549.2 812.613 549.075 817.54 549.131 822.272L563.751 822.362L563.793 837.274L575.593 837.267C575.697 851.575 575.683 865.884 575.551 880.186L563.467 880.255C559.303 880.442 555.131 880.497 550.96 880.407L550.925 890.538C544.682 890.524 537.462 890.69 531.295 890.448C527.065 889.588 520.908 889.914 516.602 890.261C512.749 891.078 494.024 890.635 489.296 890.579L489.224 880.664C479.964 880.795 470.703 880.705 461.447 880.4L461.26 869.522C447.052 871.005 412.345 869.66 397.01 869.688L397.042 860.41C388.629 860.659 380.892 860.867 372.47 860.659C367.439 860.874 360.934 860.632 355.799 860.583C356.322 853.945 355.13 853.169 354.133 846.884C353.808 844.826 353.962 839.824 354.038 837.537C349.006 837.53 343.975 837.419 338.948 837.218C338.37 831.315 338.387 815.177 339.221 809.197C334.72 808.657 331.028 808.837 326.509 808.941C326.484 812.225 326.675 814.92 325.8 818.087C325.76 820.914 326.244 821.309 324.95 823.235L323.768 823.443C318.029 823.942 297.068 823.263 295.31 825.328L295.768 837.343L276.438 837.329C276.199 833.012 276.253 828.654 276.246 824.33C272.38 823.88 263.31 824.032 259.067 823.991L258.956 810.888C248.688 810.922 242.63 807.756 230.051 807.998C229.981 803.418 230.031 798.727 230.026 794.14C234.798 794.078 239.568 793.96 244.337 793.78L244.617 777.864L260.005 777.656L260.199 767.941C268.756 759.945 267.624 756.799 266.48 745.678L252.298 745.588C251.573 740.433 251.689 735.028 251.662 729.803L265.205 729.242L265.466 713.839L282.103 713.742C282.034 702.385 283.513 691.07 283.317 679.089C277.247 679.006 271.026 679.083 264.941 679.083C264.826 683.677 264.658 694.846 262.186 698.29C257.689 699.315 248.074 699.08 243.815 697.216C243.352 694.368 244.612 683.739 244.706 679.27L260.616 679.11L260.863 665.564C262.268 663.845 263.876 662.072 265.352 660.388L279.311 660.152C279.161 647.257 281.515 641.963 282.227 630.128C275.831 630.371 269.779 630.357 263.393 630.329L262.624 642.268C256.597 642.123 249.991 642.344 243.92 642.421L243.989 628.015C250.65 623.539 249.068 618.924 248.896 611.482C236.68 609.133 230.989 614.067 217.473 614.697L217.366 628.368L228.702 628.542C228.692 636.517 228.691 643.46 228.09 651.435C234.113 651.463 240.383 651.234 246.423 651.103L246.493 663.388L232.244 663.658C232.059 671.661 229.697 685.963 229.025 695.567C225.182 698.629 226.245 708.746 227.24 713.291C234.443 713.659 239.059 713.749 246.28 713.388L244.491 728.612L231.62 728.653L231.457 747.105L244.573 746.433L244.512 761.49L228.9 761.421L228.704 776.741C223.361 777.815 219.638 777.69 214.168 777.732L214.03 793.87L183.412 794.064L183.312 813.763L226.55 813.77L226.65 827.178C231.702 827.24 237.646 827.157 242.618 827.455C245.724 828.696 245.25 827.954 246.604 830.282C246.845 833.851 244.661 836.373 242.586 839.304C241.43 843.448 241.599 847.418 241.511 851.728C211.596 851.34 181.677 851.312 151.761 851.645C151.691 846.656 153.76 840.745 150.34 837.052C148.395 836.498 134.596 837.156 131.058 837.177L131.06 823.429L81.2131 823.45L81.0932 813.507C79.056 811.768 76.7771 810.015 74.6727 808.331C74.4891 803.744 74.6089 798.762 74.6374 794.14L88.1172 793.801C87.8893 787.031 87.7035 784.162 89.5204 777.683L72.7215 777.642L72.6459 790.114C67.8323 789.733 65.9808 789.511 61.2788 788.389L55.4493 793.891C48.7821 794.216 40.7936 793.974 34.0273 793.939L33.9844 781.072C42.9229 781.03 49.2526 777.032 56.242 777.677L56.048 763.86C62.7387 763.992 69.4315 764.026 76.1237 763.978C76.0696 752.697 75.5714 741.451 75.5603 729.984L88.7977 729.894C88.7658 724.704 89.3298 717.962 89.5051 712.529L72.7714 712.398L72.7423 700.604C67.6327 700.812 54.1078 702.032 50.9988 697.881C52.7844 696.592 55.635 696.537 58.0491 696.177C59.2957 694.735 59.1321 691.278 59.3234 688.943C66.1222 689.199 67.7464 689.157 74.1551 687.785L74.1662 679.221C77.4949 679.228 83.3133 679.186 86.4522 679.069C95.0533 678.736 89.7851 656.05 87.8789 650.777C92.5997 650.521 97.6711 650.479 102.426 650.354C107.724 643.363 106.829 640.377 106.635 631.563L120.978 631.39L121.308 617.441C115.731 617.85 105.354 618.682 99.3687 617.94C98.6889 617.379 98.0092 616.818 97.3295 616.256L97.2165 615.078C99.2578 613.194 103.853 612.48 107.078 611.33C107.982 609.161 107.588 601.477 107.549 598.629C112.195 598.22 117.748 598.241 122.488 598.144C122.665 593.474 122.619 588.401 122.665 583.69L139.191 583.523L139.265 568.432L153.79 568.286L153.817 555.537C170.947 555.966 173.553 557.692 173.611 539.253L184.589 539.461C184.498 542.413 184.357 543.238 185.014 546.051C191.349 553.832 197.448 542.115 201.469 555.377C205.683 555.461 210.121 555.377 214.356 555.364C214.809 554.955 215.253 554.539 215.689 554.116C220.65 549.245 214.988 543.466 215.376 535.38C231.168 534.916 248.462 535.207 264.365 535.131C263.38 529.442 262.78 526.331 262.721 520.614C277.369 520.531 288.275 519.734 302.615 519.221L302.139 505.876Z" fill="#585858"/>
<path class="pawA" d="M434.708 777.579C445.385 778.064 456.54 777.718 467.283 777.877C475.46 777.995 484.005 778.598 492.064 778.535C491.725 782.72 491.312 786.843 491.354 791.042C499.058 790.959 509.376 790.585 516.815 791.167C517.288 791.971 517.776 792.712 518.337 793.467C523.191 794.257 527.871 793.779 532.741 793.932L532.686 807.734C538.014 807.714 543.994 807.561 549.253 807.866C549.198 812.613 549.073 817.539 549.128 822.272L563.749 822.362L563.79 837.273L575.591 837.266C575.694 851.575 575.681 865.883 575.549 880.185L563.465 880.254C559.3 880.441 555.129 880.497 550.958 880.407L550.923 890.537C544.68 890.523 537.46 890.69 531.293 890.447C527.063 889.588 520.905 889.914 516.6 890.26C512.746 891.078 494.022 890.634 489.294 890.579L489.221 880.663C479.962 880.795 470.701 880.705 461.445 880.4L461.258 869.521C457.899 868.738 424.646 869.092 418.66 869.05L418.647 852.025L403.306 852.15L403.24 837.876L391.014 837.717L391.008 807.984L403.264 807.748L403.253 792.539C413.114 792.31 422.429 791.472 432.359 791.444C432.309 787.446 431.828 782.201 432.808 778.605L434.708 777.579Z" fill="#FAFAFA"/>
<path d="M516.601 890.259C516.656 886.421 516.161 869.216 516.872 867.421C520.973 865.148 525.639 868.821 530.719 869.34C530.892 875.895 531.516 884.141 531.294 890.446C527.064 889.587 520.906 889.913 516.601 890.259Z" fill="#585858"/>
<path d="M550.625 866.992C554.117 865.475 558.94 866.618 562.598 867.387C563.825 869.147 563.451 877.462 563.458 880.254C559.293 880.441 555.122 880.497 550.951 880.407C551.006 875.674 550.874 871.718 550.625 866.992Z" fill="#585858"/>
<path d="M547.973 857.298C552.525 857.499 557.008 857.762 561.568 857.63C561.595 862.114 561.713 863.07 562.607 867.387C558.948 866.618 554.126 865.474 550.633 866.992L549.151 866.375C547.474 863.867 547.98 860.617 547.973 857.298Z" fill="#585858"/>
<path d="M547.977 857.299L548.323 854.943C551.039 852.996 558.807 852.871 561.343 855.2L561.571 857.632C557.012 857.763 552.529 857.5 547.977 857.299Z" fill="#C4BFBD"/>
<path d="M373.504 729.795C373.478 724.453 373.316 699.959 375.622 696.986C379.91 695.136 388.639 695.607 393.696 695.614C393.813 712.563 392.482 730.481 392.732 746.301C387.545 746.349 382.291 746.453 377.11 746.432L376.96 761.863L362.298 762.189C362.199 767.538 362.161 772.991 361.994 778.327C359.415 778.382 356.741 778.632 354.269 778.14C351.384 776.047 344.225 777.26 339.838 777.391C341.474 774.939 341.374 765.744 341.468 762.279L326.612 762.39L326.506 747.139C320.511 747.125 316.35 746.841 310.359 746.266L310.518 729.068L328.584 729.075C328.465 734.535 328.223 740.404 328.469 745.815L344.593 745.899C344.5 750.971 344.338 756.133 344.525 761.198L360.387 761.26C360.026 749.987 361.521 740.598 361.685 729.851L373.504 729.795Z" fill="#3C3735"/>
<path d="M205.222 813.843C201.473 813.585 197.539 813.689 193.745 813.719C190.692 813.716 176.106 813.948 174.774 813.837L172.852 814.213L172.104 815.045C167.467 815.686 165.05 814.518 160.413 814.252C158.249 814.128 155.669 814.112 153.477 814.108C153.336 815.856 153.482 820.197 151.824 821.231L150.526 821.785C149.936 824.2 150.475 826.292 150.374 828.695C146.288 828.711 141.549 828.665 137.519 828.786C137.221 831.742 137.306 842.103 136.564 843.792C136.131 846.243 136.052 847.435 136.17 849.897C142.853 849.645 149.362 849.35 155.821 850.587L155.787 855.488L173.959 855.474C177.051 855.661 182.745 855.363 186.258 855.36C196.111 855.35 209.129 855.893 218.78 855.262L219.404 855.203C219.651 854.496 219.674 853.465 219.747 852.718C219.994 851.857 220.011 851.641 220.545 850.836C223.271 849.828 226.7 850.224 230.033 850.332C233.175 849.324 241.55 849.609 245.563 849.599C245.58 847.523 245.575 845.451 245.541 843.379C245.867 840.279 245.664 830.865 244.782 827.817C243.411 827.274 242.792 827.457 240.831 827.398C240.128 821.974 239.448 819.742 229.46 820.174L228.808 820.295L228.465 816.41C225.75 816.099 222.776 815.968 219.915 815.666C218.268 812.475 209.595 815.63 205.222 813.843Z" fill="#F7F7F7"/>
<path d="M277.531 808.767C283.526 808.421 286.902 808.268 292.84 808.698C299.291 815.37 292.667 817.027 300.532 823.277L310.411 823.249C314.139 823.263 320.245 823.11 323.765 823.443C318.026 823.942 297.064 823.263 295.307 825.328L295.765 837.343L276.434 837.329C276.196 833.012 276.249 828.654 276.243 824.33L279.311 823.713C279.363 817.913 278.749 814.345 277.531 808.767Z" fill="#3C3735"/>
<path d="M279.311 823.714C284.063 824.871 290.461 826.07 295.307 825.328L295.765 837.343L276.434 837.33C276.196 833.013 276.249 828.654 276.243 824.331L279.311 823.714Z" fill="#3C3735"/>
<path d="M339.837 777.392C344.224 777.261 351.383 776.048 354.268 778.141L353.651 793.745L341.414 793.87C341.304 797.403 341.8 807.167 339.216 809.197C334.715 808.656 331.023 808.836 326.504 808.94C326.478 812.225 326.669 814.92 325.795 818.087C325.643 812.315 324.37 797.452 327.61 792.99C329.512 790.377 332.396 793.004 336.119 792.498C341.016 788.777 336.877 782.34 339.837 777.392Z" fill="#3C3735"/>
<path d="M491.078 712.224C495.056 712.19 503.575 711.33 506.468 714.421C509.527 717.691 508.106 725.653 506.75 729.443C502.255 730.136 496.156 729.907 491.471 729.88C491.537 723.99 491.406 718.1 491.078 712.224Z" fill="#3C3735"/>
<path d="M215.365 713.193C215.29 702.322 213.412 689.08 229.023 695.566C225.179 698.628 226.243 708.745 227.238 713.29L215.365 713.193Z" fill="#3C3735"/>
<path d="M292.844 808.698C298.571 808.941 304.727 809.169 310.329 810.486L310.415 823.249L300.536 823.277C292.671 817.027 299.295 815.371 292.844 808.698Z" fill="#3C3735"/>
<path d="M351.711 558.094C356.585 558.849 360.978 558.842 365.897 558.96C365.999 562.314 366.013 566.672 366.251 569.942L352.791 569.839C352.799 565.619 352.984 562.099 351.711 558.094Z" fill="#3C3735"/>
<path d="M372.469 860.658C379.006 859.571 384.854 860.756 390.615 859.668C391.134 857.048 391.385 854.54 392.851 852.337L394.1 852.136C397.819 855.829 397.989 863.901 397.736 868.842C403.7 868.89 412.928 868.71 418.662 869.05C424.648 869.091 457.9 868.738 461.259 869.521C447.051 871.004 412.344 869.659 397.009 869.687L397.041 860.409C388.627 860.658 380.89 860.866 372.469 860.658Z" fill="#3C3735"/>
<path d="M242.618 827.455C245.723 828.695 245.25 827.954 246.604 830.282C246.845 833.851 244.661 836.373 242.586 839.304L242.618 827.455Z" fill="#3C3735"/>
<path d="M174.16 659.972L184.532 659.812C183.907 666.561 183.616 671.869 183.492 678.646L168.395 679.547L168.505 695.671C150.687 694.209 152.796 697.077 153.024 713.083C136.194 713.118 138.176 713.915 138.593 730.15C132.717 730.475 126.583 730.358 120.679 730.337C120.56 735 121.979 743.869 119.873 746.495L116.637 746.683L103.648 746.821C104.338 740.737 104.217 735.748 104.164 729.665C109.054 729.72 113.738 729.443 118.617 729.194C118.552 724.17 118.678 718.987 118.741 713.95C127.767 703.279 119.591 696.419 137.344 695.941C137.721 690.439 137.771 684.501 137.92 678.965L151.797 678.195L152.368 663.145C161.439 662.681 165.176 662.009 174.16 659.972Z" fill="#3C3735"/>
<path d="M168.751 611.953C174.83 612.133 180.045 612.078 186.129 611.884C201.662 611.912 199.89 614.309 199.957 628.583L213.33 628.645C213.271 633.44 213.117 638.242 212.871 643.037C202.395 643.986 193.898 644.832 183.322 644.118C184.567 638.415 184.477 634.743 184.332 628.929C180.492 627.322 172.557 625.79 168.587 627.537C168.243 624.633 168.818 615.875 168.751 611.953Z" fill="#3C3735"/>
<path d="M168.751 611.953C174.83 612.133 180.045 612.078 186.129 611.884C184.486 618.834 184.066 621.682 184.332 628.929C180.492 627.322 172.557 625.79 168.587 627.537C168.243 624.633 168.818 615.875 168.751 611.953Z" fill="#3C3735"/>
<path d="M138.013 761.352L138.329 761.407C139.894 763.306 139.824 777.767 138.1 778.681C134.804 780.427 125.375 779.769 121.261 779.721L121.132 794.189C114.464 794.327 110.751 794.293 104.207 793.253C103.852 792.096 105.23 782.596 104.936 778.134C111.487 776.838 114.23 776.935 120.595 777.58C120.171 771.794 120.026 767.269 120.043 761.469C125.923 761.615 132.11 761.435 138.013 761.352Z" fill="#3C3735"/>
<path d="M121.357 660.623C125.57 659.999 128.269 661.732 132.005 663.512C129.177 671.709 126.818 677.883 117.322 678.708C113.659 678.95 110.635 679.131 106.932 679.103C106.019 678.452 105.514 678.438 105.464 677.287C104.823 662.618 111.514 662.903 121.357 660.623Z" fill="#3C3735"/>
<path d="M152.279 612.078C157.612 612.015 163.517 611.357 168.744 611.953C168.811 615.875 168.236 624.633 168.58 627.536C165.112 632.11 160.31 630.994 154.881 631.077C154.875 635.144 155.854 640.674 152.521 643.168L150.593 642.85C148.611 639.87 152.299 619.776 152.279 612.078Z" fill="#3C3735"/>
<path d="M153.557 729.374C158.968 729.914 163.597 729.776 169.04 729.707C169.126 735.07 170.951 743.579 170.413 747.916C165.35 747.771 159.036 749.032 155.111 746.919C152.203 743.662 151.837 732.354 153.557 729.374Z" fill="#3C3735"/>
<path d="M281.344 530.183L282.269 531.222C280.608 538.74 280.624 542.53 282.695 549.626L266.65 549.536L265.405 549.411C263.116 546.528 264.467 539.301 264.809 535.289C271.819 533.703 274.711 532.927 281.344 530.183Z" fill="#3C3735"/>
<path d="M301.752 661.593L311.047 661.108C311.798 666.7 313.333 672.68 311.501 677.745C309.479 679.29 309.695 678.757 306.493 678.805C303.371 678.812 300.104 678.694 296.968 678.639C296.201 673.089 294.729 667.816 296.59 662.744C298.651 661.192 298.576 661.725 301.752 661.593Z" fill="#3C3735"/>
<path d="M296.005 611.226C301.239 612.21 305.855 612.036 311.167 612.05C311.041 617.025 312.267 624.744 311.623 628.444C306.492 628.576 301.202 629.082 296.07 629.498C295.667 624.294 295.958 616.616 296.005 611.226Z" fill="#3C3735"/>
<path d="M909.754 670.233L1041.78 670.303C1042.16 672.943 1041.12 695.649 1041.21 701.068L1029.61 700.818L1029.68 734.009L1019.14 733.926L1018.77 769.354L1007.57 769.707L1007.5 806.73L996.465 806.785L996.416 842.816L986.043 842.927C985.489 855.448 985.253 867.99 985.343 880.524L974.271 880.566L974.194 900.092C974.285 906.612 974.153 913.057 974.187 919.549C971.506 919.307 968.499 918.96 965.831 918.912C963.683 920.658 961.383 922.452 959.332 924.296C951.432 924.226 937.186 923.471 930.084 925.723L929.218 926.811C930.666 929.617 932.731 929.527 935.592 929.936L936.687 931.516C935.26 934.169 927.652 934.315 924.582 934.551C919.406 934.8 914.223 934.959 909.047 935.036C898.099 935.992 882.432 935.638 871.18 935.68L871.048 948.048C851.813 948.215 831.226 947.792 812.241 948.312L812.074 959.925L753.905 960.507L753.919 972.314C734.198 972.058 713.106 972.64 693.739 972.086L693.531 959.322C692.409 948.714 693.282 920.727 693.462 909.093L703.343 909.252L703.315 869.175H716.522C715.227 859.903 715.815 831.065 715.732 819.867L727.893 822.673C729.507 805.365 729.14 789.351 729.154 771.994L741.682 771.842C741.73 756.958 741.703 742.067 741.585 727.184C745.327 727.204 750.031 727.62 753.849 727.863C753.939 721.897 753.004 701.303 754.542 697.028L756.718 696.46C757.66 693.148 757.044 687.279 756.85 683.558L767.105 683.669C795.209 682.706 823.999 684.001 852.18 683.523C871.505 683.198 890.242 684.05 909.615 682.484L909.754 670.233Z" fill="#585858"/>
<path d="M909.754 670.233L1041.78 670.303L1040.95 675.479C1038.78 676.359 1018.11 676.241 1014.3 676.276L1014.15 686.884C979.1 686.87 943.651 686.621 908.638 687.057L909.123 697.479C870.452 699.55 832.397 699.46 793.657 699.363C785.342 699.343 776.992 700.41 768.726 700.195C768.497 709.722 768.477 720.573 767.853 729.99L757.473 730.316C757.903 740.91 756.801 747.126 755.893 757.616C755.45 762.771 755.72 772.14 755.776 777.655L744.876 777.662C744.994 787.446 744.682 797.008 743.989 806.778C743.525 813.395 742 816.694 742.208 823.463L732.002 823.983C732.466 838.673 732.577 847.639 730.186 862.37C728.773 871.08 727.304 871.309 727.477 880.123L718.691 880.185C718.85 889.165 717.7 895.505 716.668 904.319C716.12 908.934 716.557 914.976 716.148 919.501C713.418 919.487 711.041 919.113 708.852 920.644C707.598 922.82 707.771 924.455 707.639 926.984C707.549 932.008 708.422 932.271 704.119 935.119C702.816 942.533 703.205 951.402 703.267 959.052L693.531 959.322C692.409 948.714 693.282 920.727 693.462 909.093L703.343 909.252L703.315 869.175H716.522C715.227 859.903 715.815 831.065 715.732 819.867L727.893 822.673C729.507 805.365 729.14 789.351 729.154 771.994L741.682 771.842C741.73 756.958 741.703 742.067 741.585 727.184C745.327 727.204 750.031 727.62 753.849 727.863C753.939 721.897 753.004 701.303 754.542 697.028L756.718 696.46C757.66 693.148 757.044 687.279 756.85 683.558L767.105 683.669C795.209 682.706 823.999 684.001 852.18 683.523C871.505 683.198 890.242 684.05 909.615 682.484L909.754 670.233Z" fill="#B2ACA9"/>
<path d="M756.85 683.558L767.105 683.669L767.237 696.162C763.918 696.3 759.996 696.564 756.719 696.46C757.661 693.147 757.044 687.279 756.85 683.558Z" fill="#585858"/>
<path d="M974.194 900.093C974.284 906.613 974.153 913.057 974.187 919.55C971.506 919.307 968.499 918.961 965.831 918.912C963.683 920.658 961.382 922.453 959.331 924.296C951.432 924.227 937.186 923.472 930.084 925.723L929.217 926.811C930.666 929.618 932.731 929.528 935.592 929.936L936.687 931.516C935.26 934.17 927.652 934.316 924.582 934.551C919.406 934.801 914.223 934.96 909.047 935.036C898.099 935.992 882.432 935.639 871.179 935.681L871.048 948.049C851.813 948.215 831.226 947.793 812.241 948.312L812.074 959.925L753.904 960.508L753.918 972.315C734.198 972.058 713.106 972.64 693.739 972.086L693.531 959.323L703.267 959.052C708.727 958.754 714.637 959.219 720.34 958.768C727.512 958.193 732.05 956.773 739.298 957.112L739.845 945.333C751.77 945.388 774.948 946.171 785.764 944.065L786.298 933.387C802.47 933.394 827.29 933.075 844.336 932.646C844.315 932.646 846.713 930.345 846.727 930.345C854.016 929.791 867.729 930.096 874.582 930.11C874.845 926.347 874.886 922.488 874.977 918.704C897.503 917.305 924.547 918.6 947.787 918.053L948.037 907.077C953.753 907.147 967.639 907.493 972.878 906.571C974.063 904.874 973.972 902.366 974.194 900.093Z" fill="#585858"/>
<path d="M909.044 935.037C908.732 932.424 908.323 932.736 909.418 930.921C912.702 929.237 917.553 929.937 921.474 930.055L919.139 931.233C920.643 933.242 922.084 933.318 924.579 934.552C919.403 934.801 914.22 934.96 909.044 935.037Z" fill="#B2ACA9"/>
<path d="M921.484 930.054C926.188 930.047 930.893 930.013 935.598 929.937L936.693 931.516C935.265 934.17 927.657 934.316 924.588 934.551C922.093 933.318 920.652 933.242 919.148 931.232L921.484 930.054Z" fill="#B2ACA9"/>
<path d="M707.633 926.985C707.764 924.456 707.591 922.82 708.845 920.645C711.035 919.113 713.412 919.487 716.142 919.501L716.433 933.47C713.412 933.747 711.652 934.406 709.15 933.304C707.993 931.045 707.965 929.479 707.633 926.985Z" fill="#585858"/>
<path d="M864.08 811.511L885.075 811.746C884.998 816.354 885.13 818.862 885.594 823.45L895.24 823.401C895.261 829.866 895.6 836.178 894.249 842.477L884.971 843.627L884.895 852.33L852.307 852.42C852.342 848.332 852.944 846.503 850.997 843.315C849.21 842.726 848.836 842.581 847.484 841.278C848.531 834.647 852.397 835.776 852.55 824.184C864.218 823.858 862.895 822.59 864.08 811.511Z" fill="#3C3735"/>
<path d="M854.526 783.289C859.716 783.213 865.176 783.393 870.387 783.483C870.359 792.719 871.794 795.581 867.324 803.965L867.2 804.159C864.837 805.15 856.882 804.748 853.778 804.727C853.57 797.119 854.027 790.869 854.526 783.289Z" fill="#3C3735"/>
<path d="M883.01 783.178L896.744 783.261L896.73 798.262L892.85 804.623L880.537 804.575C880.059 794.257 881.237 792.969 883.01 783.178Z" fill="#3C3735"/>
<path d="M845.269 804.887C847.264 804.533 850.853 805.261 852.988 805.573C853.05 810.714 853.258 817.962 850.015 822.23C849.066 823.477 849.114 823.006 846.959 823.339L837.362 823.38C837.439 817.449 836.309 811.656 838.963 806.744C840.91 804.956 842.58 805.143 845.269 804.887Z" fill="#3C3735"/>
<path d="M898.05 804.644L909.871 804.52C909.933 811.754 911.901 823.762 901.507 823.789C899.415 823.769 897.315 823.644 895.236 823.401C895.126 818.586 894.938 813.714 895.153 808.899C896.22 807.451 897.176 806.224 898.05 804.644Z" fill="#3C3735"/>
<path d="M490.374 582.774L491.591 583.758C496.499 583.8 501.408 583.772 506.316 583.682C506.136 588.505 505.992 593.327 505.884 598.157C509.35 598.067 512.816 597.963 516.282 597.824C516.198 602.086 514.932 610.532 518.798 612.992C537.404 611.669 561.683 614.066 578.666 612.583C579.907 617.461 577.613 624.529 579.408 627.183L589.545 627.425C589.614 631.444 589.545 636.904 589.829 640.799C589.704 644.145 589.552 647.506 589.545 650.86C592.816 651.601 599.19 651.56 602.773 651.643L602.897 664.24L617.629 664.184L618.051 651.539L627.045 651.379C626.997 646.945 626.505 643.203 628.41 639.26C630.288 637.805 629.332 637.965 631.23 638.103C631.688 638.962 632.228 640.279 632.907 640.965C634.626 642.725 656.106 640.93 659.848 641.013L659.889 626.719L672.181 626.795C671.745 615.743 673.65 608.772 673.47 598.49L683.296 598.926C682.769 604.442 681.362 608.682 684.543 612.59C687.647 614.066 691.382 613.574 694.964 613.505L694.936 625.901C691.77 626.351 687.938 626.49 684.695 626.691L684.571 641.498C689.137 641.561 693.253 641.589 697.819 641.408C697.687 644.582 697.161 647.845 698.512 650.548C701.45 653.112 705.76 652.245 709.848 652.093L710.049 663.997C705.878 663.873 700.972 663.859 696.87 663.595C696.114 667.386 695.234 675.513 697.313 678.971C700.521 684.327 706.092 683.565 711.483 683.433C711.698 693.203 713.167 702.474 713.118 711.947C709.98 713.055 702.33 712.39 698.872 712.106C699.025 718.003 699.142 723.906 699.219 729.81C704.409 730.128 707.762 730.184 712.952 729.997L712.987 746.71L726.041 746.786C726.02 750.057 726.263 762.002 725.099 764.095C719.729 761.538 721.031 760.485 713.645 760.748C709.993 760.88 705.081 760.658 701.29 760.637C701.297 756.404 701.242 752.052 701.304 747.832L647.992 747.936L647.902 761.157C637.557 761.039 628.279 762.993 618.024 762.688L617.906 777.135L602.994 777.191L602.96 793.89L602.655 808.4C600.223 808.358 592.317 808.005 590.515 808.635C590.189 812.01 590.446 819.819 590.46 823.526L577.308 823.297L577.19 808.122C574.433 807.658 566.083 807.617 562.875 807.533L562.729 792.22C558.787 792.213 551.712 792.594 548.261 791.59C546.065 790.571 536.593 790.522 533.634 790.419C533.509 785.644 533.08 780.475 532.775 775.673L505.194 775.043C505.14 770.421 505.472 765.557 505.708 760.921L436.059 760.783C437.979 759.626 499.436 760.083 505.316 760.083C505.238 756.016 505.097 753.376 506.008 749.357C507.218 744.028 510.366 734.113 506.749 729.442C508.105 725.652 509.526 717.691 506.467 714.42C503.575 711.33 495.056 712.189 491.078 712.224C490.762 709.653 491.274 699.731 491.369 696.626L475.858 696.467C476.197 691.679 477.077 685.471 475.514 681.071C471.944 678.784 449.462 679.047 443.664 678.943C443.507 672.839 443.64 666.686 443.714 660.581C437.83 660.449 431.67 660.865 425.504 660.741C425.52 654.525 425.408 648.303 425.166 642.087C418.831 641.914 414.598 641.935 408.296 642.372L408.061 628.707C403.475 628.784 398.581 628.998 394.102 628.132C397.643 628.125 402.216 628.222 405.639 627.578C418.113 625.222 416.193 632.013 414.984 641.166C420.416 641.235 426.236 641.055 431.698 640.986L431.976 626.407C435.418 626.559 438.692 626.85 442.115 627.148C442.038 623.982 441.648 619.214 442.46 616.325C443.138 622.222 442.758 633.384 442.567 639.489C448.377 639.863 454.714 639.794 460.574 639.842C460.527 633.821 460.529 628.354 460.791 622.346C468.272 622.049 471.563 624.813 475.838 617.739C476.159 616.103 475.857 613.741 475.751 611.974C476.227 609.424 476.037 599.314 476.039 596.182C479.931 596.168 486.38 596.508 489.614 594.838C489.21 592.309 489.978 585.324 490.374 582.774Z" fill="#3C3735"/>
<path class="pawA" d="M561.931 696.003C580.757 695.691 599.299 696.052 617.994 695.47L617.987 712.786L633.266 713.09L633.238 729.353L617.987 729.547L618.022 762.689L617.904 777.136L602.992 777.191L602.958 793.891L602.653 808.4C600.221 808.359 592.315 808.005 590.513 808.636C590.188 812.01 590.444 819.819 590.458 823.526L577.306 823.298L577.189 808.123C574.431 807.659 566.081 807.617 562.873 807.534L562.728 792.221C558.785 792.214 551.71 792.595 548.26 791.59C548.142 785.375 548.204 778.972 548.176 772.743L533.383 772.791C533.016 758.885 533.32 743.869 533.348 729.88L548.17 729.81L548.225 712.862L561.854 712.661L561.931 696.003Z" fill="#FAFAFA"/>
<path d="M590.361 808.33L590.52 808.635C590.194 812.009 590.451 819.818 590.464 823.525L577.313 823.297L577.195 808.122C580.812 808.746 586.73 809.175 590.361 808.33Z" fill="#3C3735"/>
<path d="M602.963 793.891L602.659 808.401C600.226 808.359 592.32 808.006 590.519 808.636L590.359 808.331L590.394 793.863L602.963 793.891Z" fill="#3C3735"/>
<path d="M578.668 601.267C579.908 606.145 577.614 624.529 579.409 627.183L589.546 627.426C589.616 631.445 589.546 636.905 589.83 640.799C589.706 644.146 589.553 647.506 589.546 650.86L575.619 650.68C575.702 654.525 576.014 660.117 575.432 663.727C570.928 663.602 566.417 663.408 561.92 663.568L561.809 677.8L549.364 677.745C549.254 673.213 549.205 668.557 548.893 664.053C545.637 663.499 537.807 663.422 534.155 663.305C531.557 666.409 532.319 673.476 532.388 677.682L518.524 677.821C518.513 673.636 518.712 667.178 517.946 663.277C516.769 659.5 517.062 654.948 517.062 650.929L505.552 650.784C505.574 647.361 505.397 643.827 505.277 640.397C505.066 635.879 505.227 631.008 505.294 626.449L505.272 604.073C509.19 603.769 515.639 603.63 518.8 601.676C537.405 600.353 561.684 602.75 578.668 601.267Z" fill="#FAFAFA"/>
<path d="M535.092 650.735L548.34 650.805L548.894 664.053C545.638 663.499 537.808 663.423 534.156 663.305C535.549 660.117 535.168 654.359 535.092 650.735Z" fill="#585858"/>
<path d="M578.165 640.404C582.205 640.626 585.773 640.792 589.827 640.799C589.702 644.146 589.55 647.507 589.543 650.86L575.615 650.68C575.698 654.526 576.01 660.118 575.428 663.728C574.618 657.692 574.929 648.352 576.114 642.261C576.371 640.931 576.592 641.25 578.165 640.404Z" fill="#C4BFBD"/>
<path d="M490.381 582.774L491.598 583.758C496.506 583.8 501.416 583.772 506.323 583.682C506.143 588.505 505.999 593.327 505.891 598.157C509.358 598.067 512.824 597.963 516.289 597.824C516.206 602.086 514.94 610.532 518.805 612.992C515.645 614.946 509.196 615.085 505.278 615.39L505.3 626.448C505.233 631.008 505.072 635.879 505.283 640.397C501.595 640.369 494.081 640.12 490.727 640.494C490.771 643.737 491.087 647.804 490.23 650.818L476.187 650.832C476.054 641 475.991 630.765 476.81 620.981L475.845 617.739C476.167 616.103 475.864 613.741 475.758 611.974C476.234 609.424 476.045 599.314 476.046 596.182C479.938 596.168 486.388 596.508 489.622 594.838C489.217 592.309 489.985 585.324 490.381 582.774Z" fill="#C4BFBD"/>
<path d="M489.622 594.838L490.986 596.626C490.231 610.318 493.636 613.546 478.017 612.389L476.854 612.299L476.81 620.981L475.845 617.739C476.167 616.103 475.864 613.741 475.758 611.974C476.234 609.424 476.045 599.314 476.046 596.182C479.938 596.168 486.388 596.508 489.622 594.838Z" fill="#B2ACA9"/>
<path d="M490.683 626.608L505.294 626.448C505.227 631.008 505.066 635.879 505.276 640.397C501.589 640.369 494.075 640.119 490.721 640.494C490.578 636.114 490.692 631.049 490.683 626.608Z" fill="#B2ACA9"/>
<path d="M490.374 582.774L491.591 583.758C491.543 585.733 491.364 595.157 490.979 596.626L489.614 594.838C489.21 592.309 489.978 585.324 490.374 582.774Z" fill="#B2ACA9"/>
<path d="M660.328 661.85C666.246 662.272 672.17 662.591 678.101 662.806C677.921 667.843 678.191 673.068 678.365 678.126C679.737 678.292 683.056 678.472 683.693 679.664C685.793 683.635 684.698 691.042 684.829 695.802L699.963 695.996C699.872 701.103 699.949 706.418 699.956 711.545C704.349 711.559 708.735 711.691 713.121 711.947C709.982 713.056 702.332 712.39 698.875 712.106C699.027 718.003 699.145 723.907 699.221 729.81C695.292 729.471 688.363 729.81 684.192 729.9C684.379 724.627 684.164 718.543 684.102 713.208L672.759 713.215C672.503 702.489 672.828 691.43 672.669 680.558C668.886 680.44 664.908 680.025 661.118 679.699L660.328 661.85Z" fill="#3C3735"/>
<path d="M475.842 617.739L476.807 620.982C475.988 630.766 476.051 641 476.185 650.833L490.227 650.819L490.622 651.186L490.693 664.622C485.801 664.67 480.909 664.774 476.019 664.912L476.036 651.47C463.2 651.692 454.801 653.306 441.475 652.828C441.389 649.398 440.799 642.088 442.571 639.49C448.382 639.864 454.719 639.795 460.579 639.843C460.531 633.822 460.534 628.355 460.796 622.347C468.276 622.049 471.567 624.814 475.842 617.739Z" fill="#1D1C1D"/>
<path d="M490.724 640.494C494.078 640.12 501.592 640.369 505.279 640.397C505.399 643.827 505.577 647.361 505.554 650.784L517.065 650.929C517.065 654.948 516.771 659.501 517.948 663.277C509.098 663.18 500.247 663.256 491.399 663.506C491.366 660.104 491.951 653.909 490.622 651.186L490.227 650.818C491.084 647.804 490.768 643.737 490.724 640.494Z" fill="#585858"/>
<path d="M684.573 641.498C689.139 641.561 693.255 641.588 697.822 641.408C697.69 644.582 697.163 647.845 698.515 650.548C701.452 653.111 705.762 652.245 709.85 652.093L710.051 663.997C705.88 663.872 700.974 663.858 696.872 663.595C697.593 661.357 695.667 654.241 695.071 651.358C691.8 651.116 687.636 651.081 684.289 650.977L684.573 641.498Z" fill="#3C3735"/>
<path d="M314.171 18.5381C323.091 18.4176 331.236 18.1813 340.137 18.9615C340.166 22.8376 339.782 27.4947 339.555 31.438C349.704 31.0846 355.975 33.1488 365.84 33.5375C364.917 39.1397 364.565 41.7243 364.486 47.3548C368.7 47.4241 372.974 47.5904 377.192 47.7172C377.101 53.5772 376.869 59.4343 376.498 65.2832L390.933 65.2672L391.12 82.6856C396.229 82.669 400.951 82.8353 406.058 83.0577C405.353 93.5878 405.949 100.487 406.245 110.893L420.133 110.901C420.017 123.671 420.065 132.452 420.593 145.091L433.506 145.044C433.901 158.933 430.617 171.302 433.686 184.427L441.442 184.739C441.425 192.804 439.962 208.018 443.157 215.198C444.109 217.335 446.083 217.224 448.448 217.75L432.106 217.786L431.891 228.767C428.023 228.623 422.229 228.035 418.817 229.435C418.066 230.694 417.903 230.912 417.33 232.26L416.497 233.147L409.145 232.971C408.611 237.976 408.248 241.534 408.231 246.55C399.246 246.316 390.004 246.186 381.047 245.803C382.584 252.531 383.462 254.447 382.406 261.233L366.249 261.527C366.584 265.998 366.608 269.236 366.559 273.721C361.666 273.821 355.235 273.778 350.516 274.331L350.661 291.984C356.702 292.151 361.98 292.248 368.01 292.045L367.979 329.654L353.594 329.386C353.741 337.682 353.798 345.979 353.764 354.276L340.168 354.261C340.081 357.419 339.925 360.776 339.912 363.914L329.745 363.719C329.727 356.667 331.25 355.885 332.175 349.355C323.881 342.939 310.322 354.767 295.465 350.368C292.63 348.094 290.473 345.307 292.316 341.678C302.082 339.607 298.593 336.36 311.798 335.794C311.391 329.065 310.242 327.669 315.877 323.453C316.375 319.081 316.514 314.693 316.719 310.297C320.378 310.012 325.106 310.755 327.838 308.616C328.391 306.825 328.164 306.798 327.57 304.952C324.397 301.684 317.039 303.192 311.838 302.059C310.67 301.684 306.402 301.308 304.989 301.149C304.838 298.295 304.793 295.319 304.707 292.451C300.826 292.487 282.86 292.417 280.531 293.288L280.109 295.628C276.703 297.19 269.759 296.237 268.516 291.65C271.404 287.362 278.75 289.161 282.264 286.63C283.241 283.519 282.825 279.491 282.731 276.118C286.834 276.165 291.172 276.058 295.296 276.025C297.738 272.481 298.67 271.863 298.626 267.72C297.603 263.057 298.749 260.178 297.445 255.389L295.639 254.909C293.9 251.196 296.414 251.952 294.794 248.209C291.015 246.398 284.929 249.947 282.062 245.639C279.349 241.563 274.047 242.643 269.565 242.754C269.337 239.968 269.429 236.517 269.426 233.671C302.418 233.849 294.277 226.743 294.77 197.524L287.452 197.014L287.645 137.455L298.693 137.568C301.934 126.912 300.92 105.815 300.911 93.9668L300.838 46.1312L313.135 46.0979C312.859 36.7533 313.846 27.909 314.171 18.5381Z" fill="#3C3735"/>
<path d="M326.932 101.653C330.82 100.898 334.731 100.268 338.659 99.7627C345.457 104.418 347.104 104.343 355.022 104.138C354.829 107.861 354.312 112.198 353.947 115.966L371.622 116.448C371.563 121.542 371.369 127.025 371.86 132.065L382.895 132.408C383.013 142.291 383.061 151.228 382.645 161.091L394.886 161.186C395.045 172.915 393.636 183.096 393.754 194.162L407.933 193.85C408.271 199.057 408.481 207.841 409.999 212.747C410.56 214.562 414.586 213.244 414.932 215.999C415.623 221.492 414.745 227.31 417.331 232.261L416.498 233.148L409.145 232.971C408.611 237.976 408.248 241.535 408.231 246.551C399.246 246.317 390.004 246.186 381.047 245.804C382.584 252.531 383.463 254.448 382.406 261.233L366.249 261.527C365.703 260.754 364.868 257.932 364.046 257.567C359.922 255.737 342.745 256.323 338.328 256.292L337.968 243.552C334.574 243.503 331.124 243.255 327.731 243.06C328.042 232.603 330.3 221.083 330.683 209.982L323.04 209.466C322.775 186.444 322.105 156.393 323.054 133.769C324.369 131.581 323.875 132.288 327.067 131.312C328.594 127.78 327.017 107.469 326.932 101.653Z" fill="#1D1C1D"/>
<path d="M340.719 131.798L356.819 131.86C356.676 142.232 357.859 151.58 357.519 162.771L370.31 162.682C369.644 167.565 368.476 174.97 368.531 179.789C371.25 179.659 373.455 179.221 375.754 180.563C378.34 183.831 376.921 189.23 376.453 193.664C376.391 197.534 376.147 202.263 376.587 206.036C382.18 205.629 387.442 205.155 393.064 205.325C392.889 211.831 392.824 218.34 392.869 224.849C376.565 224.294 369.809 222.035 370.875 241.077C361.661 241.175 355.385 241.399 346.173 242.302C346.253 238.618 345.873 230.341 348.054 227.751L350.354 227.29C349.919 223.89 349.219 221.024 348.929 217.604C348.414 215.306 348.596 211.308 348.591 208.793C348.779 201.994 350.071 199.25 342.583 197.383C340.992 194.386 341.041 139.488 340.719 131.798Z" fill="#585858"/>
<path d="M357.518 162.771L370.309 162.682C369.643 167.565 368.475 174.97 368.531 179.789C365.205 180.493 360.699 180.288 357.203 180.294C357.17 174.352 357.078 168.716 357.518 162.771Z" fill="#585858"/>
<path d="M361.339 194.177C366.278 194.213 371.613 194.423 376.452 193.664C376.39 197.534 376.146 202.263 376.586 206.036C372.238 205.965 365.514 206.784 361.062 207.223C361.336 202.795 361.327 198.609 361.339 194.177Z" fill="#585858"/>
<path d="M348.59 208.792C351.453 208.42 355.318 207.555 357.874 208.494C360.423 211.384 359.773 213.627 359.705 217.831C356.823 217.764 351.646 217.49 348.928 217.604C348.413 215.306 348.595 211.308 348.59 208.792Z" fill="#585858"/>
<path d="M297.445 255.389C300.753 255.069 307.127 254.11 309.801 255.992C311.203 258.041 311.028 256.978 310.991 259.119C304.601 264.355 298.661 252.578 298.626 267.72C297.603 263.056 298.749 260.177 297.445 255.389Z" fill="#3C3735"/>
<path d="M304.703 292.451C308.129 292.507 308.035 291.971 310.525 293.49C311.478 297.26 310.582 298.68 311.835 302.058C310.666 301.684 306.398 301.308 304.985 301.149C304.834 298.294 304.789 295.319 304.703 292.451Z" fill="#3C3735"/>
<path d="M618.986 869.148C619.076 866.619 618.986 865.801 619.796 863.341C622.616 861.263 625.79 861.921 629.615 861.949L630.883 869.134L643.882 869.106L644.131 877.29C650.056 877.352 685.761 876.493 688.533 878.107L689.254 881.198C688.076 887.025 688.921 899.269 688.609 905.941L678.992 905.803C678.888 913.522 678.118 935.342 678.992 942.319C679.511 950.087 678.922 964.18 678.825 972.343L664.586 972.246L664.524 962.123C649.515 962.462 634.507 962.469 619.505 962.15C619.381 958.88 619.436 955.36 619.422 952.061C605.675 951.084 590.043 952.415 575.415 951.424C575.249 948.077 575.409 943.941 575.45 940.531L529.112 940.511L529.545 930.221C514.403 929.674 496.413 930.096 481.055 930.089L481.107 920.423L461.406 920.354L461.593 905.789L461.503 897.647C468.579 897.938 475.387 897.225 482.386 897.536C491.281 897.931 485.733 901.5 488.945 905.048C496.35 906.011 509.141 904.84 517.738 905.124L562.271 905.2C562.015 901.382 561.786 899.283 562.271 895.416C566.685 895.354 571.591 895.388 575.963 895.181C576.975 893.642 577.515 893.573 579.143 892.61L579.261 883.166L592.523 883.027L592.475 869.335L618.986 869.148Z" fill="#3C3735"/>
<path d="M461.503 897.647C468.579 897.938 475.387 897.224 482.386 897.536C491.281 897.931 485.733 901.499 488.945 905.047C496.35 906.01 509.141 904.839 517.738 905.123L562.271 905.199L562.174 918.288C576.15 918.268 590.382 918.101 604.337 918.288L604.144 930.477C618.667 930.768 633.197 930.858 647.727 930.754L647.963 941.993C653.652 942.069 674.834 941.397 678.472 942.325L678.992 942.318C679.511 950.086 678.922 964.18 678.825 972.342L664.586 972.245L664.524 962.122C649.515 962.461 634.507 962.468 619.505 962.15C619.381 958.879 619.436 955.359 619.422 952.061C605.675 951.084 590.043 952.414 575.415 951.423C575.249 948.076 575.409 943.94 575.45 940.531L529.112 940.51L529.545 930.22C514.403 929.673 496.413 930.095 481.055 930.089L481.107 920.422L461.406 920.353L461.593 905.788L461.503 897.647Z" fill="#585858"/>
<path class="pawA" d="M562.261 905.199L562.164 918.288C576.14 918.268 590.372 918.101 604.327 918.288L604.133 930.477C618.657 930.768 633.187 930.858 647.717 930.754L647.953 941.993C653.642 942.069 674.824 941.397 678.462 942.325L678.704 953.017C668.165 952.92 657.633 952.92 647.094 953.024L647.211 943.219C632.446 942.991 617.673 942.963 602.907 943.136C602.893 938.757 603.142 934.773 603.413 930.407C589.714 929.992 575.96 930.587 562.185 930.255L562.157 918.808C547.232 919.141 532.292 919.03 517.367 918.468L517.528 905.622L517.728 905.123L562.261 905.199Z" fill="#B2ACA9"/>
<path d="M461.492 897.647C468.568 897.938 475.377 897.224 482.376 897.536C491.271 897.931 485.723 901.499 488.935 905.047C496.339 906.01 509.131 904.839 517.728 905.123L517.528 905.622L505.229 905.795C490.499 905.857 476.393 905.407 461.582 905.788L461.492 897.647Z" fill="#3C3735"/>
<path d="M505.242 905.794L517.541 905.621L517.38 918.468L505.817 918.239L505.242 905.794Z" fill="#585858"/>
<path d="M618.983 869.148C619.073 866.619 618.983 865.801 619.794 863.341C622.614 861.263 625.787 861.921 629.612 861.949L630.88 869.134L643.879 869.106L644.129 877.29C650.053 877.352 685.759 876.493 688.53 878.107L689.251 881.198C684.269 881.849 674.568 881.205 669.163 881.059C661.694 880.914 654.217 880.907 646.748 881.031L646.595 890.58C631.455 890.538 614.846 889.887 600.053 892.437C598.459 892.714 597.946 892.728 596.339 892.755C590.608 892.769 584.871 892.721 579.141 892.61L579.258 883.166L592.521 883.027L592.472 869.335L618.983 869.148Z" fill="#585858"/>
<path d="M575.961 895.179C576.973 893.641 577.513 893.572 579.141 892.608C584.872 892.719 590.609 892.768 596.339 892.754C592.903 893.315 592.826 892.754 590.678 894.68C589.355 897.681 589.972 900.972 589.729 904.423L576.009 904.374C576.072 901.298 576.003 898.249 575.961 895.179Z" fill="#3C3735"/>
<path d="M562.266 895.416C566.679 895.354 571.585 895.389 575.958 895.181C575.999 898.25 576.068 901.299 576.006 904.376L562.799 904.514C562.751 901.216 562.577 898.701 562.266 895.416Z" fill="#585858"/>
<path d="M617.981 905.864C626.081 905.725 637.638 904.977 645.891 905.226L648.344 906.868C656.901 907 663.851 908.698 672.284 908.365L673.295 908.067C674.986 910.77 674.889 919.833 672.949 922.535C667.26 924.912 663.172 923.637 659.326 918.78L655.903 918.301C642.856 919.216 631.16 916.292 617.828 917.027L617.981 905.864Z" fill="#585858"/>
<path d="M672.279 908.366L673.29 908.068C674.981 910.771 674.884 919.834 672.944 922.536C667.255 924.913 663.167 923.638 659.321 918.781L655.898 918.303C661.788 918.039 667.324 918.365 673.186 918.781C673.318 915.566 673.9 910.937 672.279 908.366Z" fill="#3C3735"/>
<path d="M674.913 894.321C680.006 894.079 682.86 894.21 687.967 894.584C688.078 897.314 688.688 901.77 687.08 903.731L685.306 903.426C681.412 904.479 677.476 905.927 673.617 904.749C672.113 902.248 672.411 896.033 674.913 894.321Z" fill="#585858"/>
<path class="pawB" d="M659.967 766.658L700.398 766.499L700.308 777.696L713.009 777.793L712.774 813.728L700.412 813.749C701.05 824.489 700.904 850.528 700.142 861.261L691.398 861.164C685.452 861.407 680.45 861.421 674.504 861.282C670.583 861.047 664.88 861.254 660.826 861.282L646.802 861.289L646.809 851.27L633.075 851.166L633.165 823.948L618.102 823.955L618.171 794.125L633.526 793.966L633.595 777.863C642.333 777.71 651.063 777.648 659.801 777.676L659.967 766.658Z" fill="#FAFAFA"/>
<path d="M660.695 837.294L674.339 837.26C674.387 845.207 674.346 853.356 674.505 861.283C670.583 861.047 664.88 861.255 660.827 861.283C660.924 853.287 660.882 845.291 660.695 837.294Z" fill="#585858"/>
<path d="M700.405 813.75C701.043 824.49 700.897 850.53 700.135 861.263L691.391 861.166L691.564 837.593L699.879 837.281C699.858 830.913 699.512 819.605 700.405 813.75Z" fill="#585858"/>
<path class="pawA" d="M593.468 839.886C593.593 839.886 595.942 839.844 595.963 839.844C605.462 839.103 599.85 842.671 604.659 844.085C608.241 845.145 613.105 843.33 615.925 845.207C617.214 847.335 616.708 849.129 616.5 851.693C609.059 851.811 600.723 852.386 593.156 852.635L593.468 839.886Z" fill="black"/>
<path d="M713.742 713.353C718.385 713.381 724.434 712.258 727.42 715.847C728.051 718.792 726.492 724.356 725.993 728.223L725.688 728.625C723.36 729.47 716.659 729.228 713.784 729.235L713.742 713.353Z" fill="#3C3735"/>
<path d="M562.189 194.213L572.923 194.407C572.742 197.539 572.597 200.771 572.368 203.889L571.391 205.981C569.472 205.277 564.199 205.496 561.885 205.491C561.794 201.633 561.58 198.04 562.189 194.213Z" fill="#3C3735"/>
<path d="M561.885 205.491C561.794 201.633 561.58 198.04 562.189 194.213C562.487 197.768 562.591 200.326 562.584 203.894L572.368 203.889L571.391 205.981C569.472 205.277 564.199 205.496 561.885 205.491Z" fill="#3C3735"/>
<path d="M395.081 582.206C398.246 582.913 400.87 582.525 404.117 582.331L404.088 588.983C403.376 591.138 403.537 592.357 402.518 594.699C400.126 596.709 401.423 596.175 398.657 596.743C393.629 594.637 394.861 586.495 395.081 582.206Z" fill="#3C3735"/>
<path d="M479.406 194.797C482.723 194.762 485.972 194.647 489.274 194.94L489.219 206.102L481.033 206.106L479.406 194.797Z" fill="#3C3735"/>
<path class="bk" d="M909.639 240.427L928.58 240.36L928.811 270.837L956.602 270.995L956.505 290.355L928.507 290.521C928.13 299.343 928.264 309.144 928.203 318.049C923.912 318.742 914.393 318.466 909.639 318.477C908.934 309.946 909.019 299.225 908.873 290.492L881.63 290.384L881.508 270.843L907.232 270.724C908.144 260.635 908.946 250.535 909.639 240.427Z" fill="#FFF3A6"/>
<path class="bk" d="M78.257 203.758L111.474 203.775L111.576 250.658L152.249 251.114L152.387 280.546L111.543 280.529L111.535 320.386C104.953 321.909 86.5367 321.296 78.8951 321.264L78.6733 280.73L41.0343 279.881L40.9297 250.974L78.4118 250.465L78.257 203.758Z" fill="#FFF3A6"/>
<path class="bk" d="M1058.36 402.415L1074.99 402.543L1075.05 418.455C1083.44 418.15 1089.13 416.493 1093.14 425.165C1091.35 434.679 1082.81 433.374 1075.42 433.333L1075.22 450.624L1058.31 450.642L1058.28 433.453C1053.64 433.475 1048.19 434.112 1044.32 431.951C1041.62 428.4 1042.41 423.318 1042.48 418.583L1058.28 418.194L1058.36 402.415Z" fill="#FFF3A6"/>
<path d="M512.007 582.206L530.344 582.247L530.243 600.115L511.977 600.094L512.007 582.206Z" fill="#1D1C1D"/>
<path d="M567.28 582.206L585.617 582.247L585.516 600.115L567.25 600.094L567.28 582.206Z" fill="#1D1C1D"/>
<path class="bk" d="M121.05 365.453L165.107 365.55L164.864 408.482L120.977 408.431L121.05 365.453Z" fill="#FFF3A6"/>
<path d="M519.67 509.444C519.677 506.991 519.373 505.079 520.357 502.965C533.36 501.988 576.59 500.949 589.333 502.861C590.095 505.238 589.846 506.922 589.756 509.409L589.832 518.313L602.713 518.32C602.81 527.335 602.796 536.35 602.678 545.371L589.853 545.461L589.818 558.308L577.789 558.225L577.782 570.011L562.116 570.178C562.143 578.693 562.067 576.08 562.199 584.582C569.176 584.644 574.138 585.476 580.02 585.628C580.526 589.966 580.519 597.241 578.662 601.267C561.679 602.75 537.4 600.353 518.794 601.676C514.928 599.216 516.194 590.77 516.278 586.508C520.254 584.797 538.889 584.36 544.543 584.014L544.71 569.997L532.452 569.963L532.598 558.419L519.293 558.35L519.359 545.378L506.665 545.448C506.482 536.53 506.599 527.3 506.604 518.355H519.678L519.67 509.444Z" fill="#1D1C1D"/>

</g></g></g>

</svg>